<svg width="1448" height="20407" viewBox="0 0 1448 20407" fill="none" xmlns="http://www.w3.org/2000/svg">
<g filter="url(#filter0_dd_1678_1264)">
<rect width="1440" height="20399" transform="translate(4)" fill="#10633B"/>
<rect x="4" width="1440" height="901" fill="#D9D9D9"/>
<path d="M630.315 481V454.818H633.485V478.188H645.656V481H630.315ZM655.934 481.46C654.69 481.46 653.561 481.226 652.547 480.757C651.532 480.28 650.727 479.594 650.13 478.699C649.534 477.795 649.235 476.705 649.235 475.426C649.235 474.301 649.457 473.389 649.9 472.69C650.343 471.983 650.936 471.429 651.677 471.028C652.419 470.628 653.237 470.33 654.132 470.134C655.035 469.929 655.943 469.767 656.855 469.648C658.048 469.494 659.015 469.379 659.757 469.303C660.507 469.217 661.052 469.077 661.393 468.881C661.743 468.685 661.917 468.344 661.917 467.858V467.756C661.917 466.494 661.572 465.514 660.882 464.815C660.2 464.116 659.164 463.767 657.775 463.767C656.335 463.767 655.206 464.082 654.387 464.713C653.569 465.344 652.994 466.017 652.662 466.733L649.798 465.71C650.309 464.517 650.991 463.588 651.843 462.923C652.704 462.25 653.642 461.781 654.656 461.517C655.679 461.244 656.684 461.108 657.673 461.108C658.304 461.108 659.028 461.185 659.846 461.338C660.673 461.483 661.47 461.786 662.237 462.246C663.012 462.706 663.656 463.401 664.167 464.33C664.679 465.259 664.934 466.503 664.934 468.062V481H661.917V478.341H661.764C661.559 478.767 661.218 479.223 660.741 479.709C660.264 480.195 659.629 480.608 658.836 480.949C658.044 481.29 657.076 481.46 655.934 481.46ZM656.395 478.75C657.588 478.75 658.593 478.516 659.412 478.047C660.238 477.578 660.86 476.973 661.278 476.232C661.704 475.49 661.917 474.71 661.917 473.892V471.131C661.789 471.284 661.508 471.425 661.074 471.553C660.647 471.672 660.153 471.778 659.591 471.872C659.037 471.957 658.495 472.034 657.967 472.102C657.447 472.162 657.025 472.213 656.701 472.256C655.917 472.358 655.184 472.524 654.502 472.754C653.829 472.976 653.284 473.312 652.866 473.764C652.457 474.207 652.252 474.812 652.252 475.58C652.252 476.628 652.64 477.42 653.416 477.957C654.2 478.486 655.193 478.75 656.395 478.75ZM673.458 469.188V481H670.441V461.364H673.356V464.432H673.612C674.072 463.435 674.771 462.634 675.708 462.028C676.646 461.415 677.856 461.108 679.339 461.108C680.668 461.108 681.832 461.381 682.829 461.926C683.826 462.463 684.602 463.281 685.156 464.381C685.71 465.472 685.987 466.852 685.987 468.523V481H682.969V468.727C682.969 467.185 682.569 465.983 681.768 465.122C680.967 464.253 679.867 463.818 678.469 463.818C677.506 463.818 676.646 464.027 675.887 464.445C675.137 464.862 674.545 465.472 674.11 466.273C673.675 467.074 673.458 468.045 673.458 469.188ZM698.914 481.409C697.278 481.409 695.833 480.996 694.581 480.169C693.328 479.334 692.348 478.158 691.64 476.641C690.933 475.115 690.579 473.312 690.579 471.233C690.579 469.17 690.933 467.381 691.64 465.864C692.348 464.347 693.332 463.175 694.593 462.348C695.855 461.521 697.312 461.108 698.966 461.108C700.244 461.108 701.254 461.321 701.995 461.747C702.745 462.165 703.316 462.642 703.708 463.179C704.109 463.707 704.42 464.142 704.642 464.483H704.897V454.818H707.914V481H705V477.983H704.642C704.42 478.341 704.105 478.793 703.696 479.338C703.287 479.875 702.703 480.357 701.944 480.783C701.186 481.2 700.176 481.409 698.914 481.409ZM699.324 478.699C700.534 478.699 701.556 478.384 702.392 477.753C703.227 477.114 703.862 476.232 704.297 475.107C704.731 473.973 704.949 472.665 704.949 471.182C704.949 469.716 704.735 468.433 704.309 467.334C703.883 466.226 703.252 465.365 702.417 464.751C701.582 464.129 700.551 463.818 699.324 463.818C698.045 463.818 696.98 464.146 696.127 464.803C695.284 465.45 694.649 466.332 694.223 467.449C693.805 468.557 693.596 469.801 693.596 471.182C693.596 472.58 693.809 473.849 694.235 474.991C694.67 476.125 695.309 477.028 696.153 477.702C697.005 478.366 698.062 478.699 699.324 478.699ZM713.859 481V461.364H716.876V481H713.859ZM715.393 458.091C714.805 458.091 714.298 457.891 713.872 457.49C713.454 457.089 713.245 456.608 713.245 456.045C713.245 455.483 713.454 455.001 713.872 454.601C714.298 454.2 714.805 454 715.393 454C715.981 454 716.484 454.2 716.902 454.601C717.328 455.001 717.541 455.483 717.541 456.045C717.541 456.608 717.328 457.089 716.902 457.49C716.484 457.891 715.981 458.091 715.393 458.091ZM725.419 469.188V481H722.402V461.364H725.317V464.432H725.572C726.033 463.435 726.732 462.634 727.669 462.028C728.607 461.415 729.817 461.108 731.3 461.108C732.629 461.108 733.793 461.381 734.79 461.926C735.787 462.463 736.563 463.281 737.116 464.381C737.67 465.472 737.947 466.852 737.947 468.523V481H734.93V468.727C734.93 467.185 734.53 465.983 733.729 465.122C732.928 464.253 731.828 463.818 730.43 463.818C729.467 463.818 728.607 464.027 727.848 464.445C727.098 464.862 726.506 465.472 726.071 466.273C725.636 467.074 725.419 468.045 725.419 469.188ZM751.387 488.773C749.929 488.773 748.676 488.585 747.628 488.21C746.58 487.844 745.706 487.358 745.007 486.753C744.317 486.156 743.767 485.517 743.358 484.835L745.762 483.148C746.034 483.506 746.38 483.915 746.797 484.375C747.215 484.844 747.786 485.249 748.51 485.589C749.243 485.939 750.202 486.114 751.387 486.114C752.972 486.114 754.28 485.73 755.311 484.963C756.343 484.196 756.858 482.994 756.858 481.358V477.369H756.603C756.381 477.727 756.066 478.17 755.657 478.699C755.256 479.219 754.676 479.683 753.918 480.092C753.168 480.493 752.154 480.693 750.875 480.693C749.29 480.693 747.867 480.318 746.605 479.568C745.353 478.818 744.36 477.727 743.627 476.295C742.902 474.864 742.54 473.125 742.54 471.08C742.54 469.068 742.894 467.317 743.601 465.825C744.309 464.325 745.293 463.166 746.554 462.348C747.816 461.521 749.273 461.108 750.926 461.108C752.205 461.108 753.219 461.321 753.969 461.747C754.728 462.165 755.307 462.642 755.708 463.179C756.117 463.707 756.432 464.142 756.654 464.483H756.961V461.364H759.875V481.562C759.875 483.25 759.492 484.622 758.725 485.679C757.966 486.744 756.944 487.524 755.657 488.018C754.378 488.521 752.955 488.773 751.387 488.773ZM751.284 477.983C752.495 477.983 753.517 477.706 754.353 477.152C755.188 476.598 755.823 475.801 756.257 474.761C756.692 473.722 756.909 472.477 756.909 471.028C756.909 469.614 756.696 468.365 756.27 467.283C755.844 466.2 755.213 465.352 754.378 464.739C753.543 464.125 752.512 463.818 751.284 463.818C750.006 463.818 748.941 464.142 748.088 464.79C747.245 465.437 746.61 466.307 746.184 467.398C745.766 468.489 745.557 469.699 745.557 471.028C745.557 472.392 745.77 473.598 746.196 474.646C746.631 475.686 747.27 476.504 748.114 477.101C748.966 477.689 750.023 477.983 751.284 477.983ZM779.103 454.818V481H775.932V454.818H779.103ZM788.067 454.818V481H785.05V454.818H788.067ZM796.61 454.818V481H793.593V454.818H796.61ZM810.114 481.409C808.341 481.409 806.786 480.987 805.447 480.143C804.118 479.3 803.078 478.119 802.328 476.602C801.587 475.085 801.216 473.312 801.216 471.284C801.216 469.239 801.587 467.453 802.328 465.928C803.078 464.402 804.118 463.217 805.447 462.374C806.786 461.53 808.341 461.108 810.114 461.108C811.886 461.108 813.438 461.53 814.767 462.374C816.105 463.217 817.145 464.402 817.886 465.928C818.636 467.453 819.011 469.239 819.011 471.284C819.011 473.312 818.636 475.085 817.886 476.602C817.145 478.119 816.105 479.3 814.767 480.143C813.438 480.987 811.886 481.409 810.114 481.409ZM810.114 478.699C811.46 478.699 812.568 478.354 813.438 477.663C814.307 476.973 814.95 476.065 815.368 474.94C815.786 473.815 815.994 472.597 815.994 471.284C815.994 469.972 815.786 468.749 815.368 467.615C814.95 466.482 814.307 465.565 813.438 464.866C812.568 464.168 811.46 463.818 810.114 463.818C808.767 463.818 807.659 464.168 806.79 464.866C805.92 465.565 805.277 466.482 804.859 467.615C804.442 468.749 804.233 469.972 804.233 471.284C804.233 472.597 804.442 473.815 804.859 474.94C805.277 476.065 805.92 476.973 806.79 477.663C807.659 478.354 808.767 478.699 810.114 478.699Z" fill="black"/>
</g>
<defs>
<filter id="filter0_dd_1678_1264" x="0" y="0" width="1448" height="20407" filterUnits="userSpaceOnUse" color-interpolation-filters="sRGB">
<feFlood flood-opacity="0" result="BackgroundImageFix"/>
<feColorMatrix in="SourceAlpha" type="matrix" values="0 0 0 0 0 0 0 0 0 0 0 0 0 0 0 0 0 0 127 0" result="hardAlpha"/>
<feOffset dy="4"/>
<feGaussianBlur stdDeviation="2"/>
<feComposite in2="hardAlpha" operator="out"/>
<feColorMatrix type="matrix" values="0 0 0 0 0 0 0 0 0 0 0 0 0 0 0 0 0 0 0.25 0"/>
<feBlend mode="normal" in2="BackgroundImageFix" result="effect1_dropShadow_1678_1264"/>
<feColorMatrix in="SourceAlpha" type="matrix" values="0 0 0 0 0 0 0 0 0 0 0 0 0 0 0 0 0 0 127 0" result="hardAlpha"/>
<feOffset dy="4"/>
<feGaussianBlur stdDeviation="2"/>
<feComposite in2="hardAlpha" operator="out"/>
<feColorMatrix type="matrix" values="0 0 0 0 0 0 0 0 0 0 0 0 0 0 0 0 0 0 0.25 0"/>
<feBlend mode="normal" in2="effect1_dropShadow_1678_1264" result="effect2_dropShadow_1678_1264"/>
<feBlend mode="normal" in="SourceGraphic" in2="effect2_dropShadow_1678_1264" result="shape"/>
</filter>
</defs>
</svg>
