<svg width="242" height="219" viewBox="0 0 242 219" fill="none" xmlns="http://www.w3.org/2000/svg">
<circle cx="120.5" cy="109.5" r="109.5" fill="#26895A" fill-opacity="0.15"/>
<rect x="1.35196" y="117.302" width="239.296" height="61.514" fill="#ECA946" stroke="#022615" stroke-width="2.70391"/>
<rect x="1.35196" y="140.285" width="239.296" height="6.75978" fill="#ECA946" stroke="#022615" stroke-width="2.70391"/>
<rect x="1.35196" y="113.922" width="239.296" height="6.75978" fill="#ECA946" stroke="#022615" stroke-width="2.70391"/>
<rect x="1.35196" y="155.156" width="239.296" height="21.6313" fill="#ECA946" stroke="#022615" stroke-width="2.70391"/>
<rect x="87.2011" y="97.0221" width="68.2737" height="81.7933" fill="#ECA946" stroke="#022615" stroke-width="2.70391"/>
<rect x="50.352" y="57.352" width="37.2961" height="121.296" fill="#ECA946" stroke="#022615" stroke-width="2.70391"/>
<rect x="55.352" y="62.352" width="26.2961" height="116.296" fill="#ECA946" stroke="#022615" stroke-width="2.70391"/>
<rect x="154.352" y="57.352" width="37.2961" height="121.296" fill="#ECA946" stroke="#022615" stroke-width="2.70391"/>
<mask id="path-10-inside-1_1711_1033" fill="white">
<path fill-rule="evenodd" clip-rule="evenodd" d="M153.976 104.458L121 89.5864L88.0239 104.458H86.5251V105.134V180.167H155.475V105.134V104.458H153.976Z"/>
</mask>
<path fill-rule="evenodd" clip-rule="evenodd" d="M153.976 104.458L121 89.5864L88.0239 104.458H86.5251V105.134V180.167H155.475V105.134V104.458H153.976Z" fill="#ECA946"/>
<path d="M121 89.5864L122.112 87.1216L121 86.6203L119.888 87.1216L121 89.5864ZM153.976 104.458L152.864 106.923L153.395 107.162H153.976V104.458ZM88.0239 104.458V107.162H88.6055L89.1355 106.923L88.0239 104.458ZM86.5251 104.458V101.754H83.8212V104.458H86.5251ZM86.5251 180.167H83.8212V182.871H86.5251V180.167ZM155.475 180.167V182.871H158.179V180.167H155.475ZM155.475 104.458H158.179V101.754H155.475V104.458ZM119.888 92.0513L152.864 106.923L155.088 101.993L122.112 87.1216L119.888 92.0513ZM89.1355 106.923L122.112 92.0513L119.888 87.1216L86.9123 101.993L89.1355 106.923ZM86.5251 107.162H88.0239V101.754H86.5251V107.162ZM89.2291 105.134V104.458H83.8212V105.134H89.2291ZM89.2291 180.167V105.134H83.8212V180.167H89.2291ZM155.475 177.464H86.5251V182.871H155.475V177.464ZM152.771 105.134V180.167H158.179V105.134H152.771ZM152.771 104.458V105.134H158.179V104.458H152.771ZM153.976 107.162H155.475V101.754H153.976V107.162Z" fill="#022615" mask="url(#path-10-inside-1_1711_1033)"/>
<mask id="path-12-inside-2_1711_1033" fill="white">
<path fill-rule="evenodd" clip-rule="evenodd" d="M153.976 110.542L121 95.6702L88.0238 110.542H86.5251V111.218V168H155.475V111.218V110.542H153.976Z"/>
</mask>
<path fill-rule="evenodd" clip-rule="evenodd" d="M153.976 110.542L121 95.6702L88.0238 110.542H86.5251V111.218V168H155.475V111.218V110.542H153.976Z" fill="#ECA946"/>
<path d="M121 95.6702L122.112 93.2053L121 92.704L119.888 93.2053L121 95.6702ZM153.976 110.542L152.865 113.007L153.395 113.246H153.976V110.542ZM88.0238 110.542V113.246H88.6053L89.1354 113.007L88.0238 110.542ZM86.5251 110.542V107.838H83.8212V110.542H86.5251ZM86.5251 168H83.8212V170.704H86.5251V168ZM155.475 168V170.704H158.179V168H155.475ZM155.475 110.542H158.179V107.838H155.475V110.542ZM119.888 98.135L152.865 113.007L155.088 108.077L122.112 93.2053L119.888 98.135ZM89.1354 113.007L122.112 98.135L119.888 93.2053L86.9122 108.077L89.1354 113.007ZM86.5251 113.246H88.0238V107.838H86.5251V113.246ZM89.2291 111.218V110.542H83.8212V111.218H89.2291ZM89.2291 168V111.218H83.8212V168H89.2291ZM155.475 165.296H86.5251V170.704H155.475V165.296ZM152.771 111.218V168H158.179V111.218H152.771ZM152.771 110.542V111.218H158.179V110.542H152.771ZM153.976 113.246H155.475V107.838H153.976V113.246Z" fill="#022615" mask="url(#path-12-inside-2_1711_1033)"/>
<rect x="87.8771" y="140.285" width="66.2458" height="38.5307" fill="#ECA946" stroke="#022615" stroke-width="2.70391"/>
<path fill-rule="evenodd" clip-rule="evenodd" d="M105 123.049V140H91V123.049V123H91.0002C91.0266 119.157 94.1504 116.049 98 116.049C101.85 116.049 104.973 119.157 105 123H105V123.049Z" fill="#022615"/>
<path fill-rule="evenodd" clip-rule="evenodd" d="M105.488 163.034V178.265H90.257V163.034C90.257 163.034 90.257 163.034 90.257 163.034C90.257 158.828 93.6666 155.419 97.8725 155.419C102.078 155.419 105.488 158.828 105.488 163.034C105.488 163.034 105.488 163.034 105.488 163.034Z" fill="#022615"/>
<path fill-rule="evenodd" clip-rule="evenodd" d="M67.5978 165.978V178.14H59.486V165.972H59.486C59.486 165.972 59.486 165.972 59.486 165.972C59.486 163.732 61.3019 161.916 63.5419 161.916C65.7819 161.916 67.5978 163.732 67.5978 165.972C67.5978 165.974 67.5978 165.976 67.5978 165.978Z" fill="#022615"/>
<path fill-rule="evenodd" clip-rule="evenodd" d="M68.9497 165.972C68.9497 165.972 68.9497 165.972 68.9497 165.972C68.9497 163.732 70.7656 161.916 73.0056 161.916C75.2456 161.916 77.0615 163.732 77.0615 165.972C77.0615 165.973 77.0615 165.975 77.0615 165.976V178.14H68.9497V165.972Z" fill="#022615"/>
<path fill-rule="evenodd" clip-rule="evenodd" d="M64.0643 67.7039C64.068 67.648 64.0698 67.5917 64.0698 67.5349C64.0698 66.1349 62.9349 65 61.5349 65C60.1349 65 59 66.1349 59 67.5349C59 67.5917 59.0019 67.648 59.0055 67.7039H59V81.2234H64.0698V67.7039H64.0643Z" fill="#022615"/>
<path fill-rule="evenodd" clip-rule="evenodd" d="M9.46369 165.296C9.46369 165.296 9.46369 165.296 9.46369 165.296C9.46369 163.803 8.25311 162.592 6.75978 162.592C5.26645 162.592 4.05587 163.803 4.05587 165.296C4.05587 165.296 4.05587 165.296 4.05587 165.296V176.112H9.46369V165.298C9.46369 165.297 9.46369 165.297 9.46369 165.296Z" fill="#022615"/>
<path fill-rule="evenodd" clip-rule="evenodd" d="M33.1229 165.301V176.112H27.7151V165.296H27.7151C27.7151 165.296 27.7151 165.296 27.7151 165.296C27.7151 163.803 28.9257 162.592 30.419 162.592C31.9123 162.592 33.1229 163.803 33.1229 165.296C33.1229 165.298 33.1229 165.299 33.1229 165.301Z" fill="#022615"/>
<path fill-rule="evenodd" clip-rule="evenodd" d="M10.8156 165.296C10.8156 165.296 10.8156 165.296 10.8156 165.296C10.8156 163.803 12.0262 162.592 13.5196 162.592C15.0129 162.592 16.2235 163.803 16.2235 165.296C16.2235 165.297 16.2235 165.297 16.2235 165.298V176.112H10.8156V165.296Z" fill="#022615"/>
<path fill-rule="evenodd" clip-rule="evenodd" d="M34.4749 165.296C34.4749 165.296 34.4749 165.296 34.4749 165.296C34.4749 163.803 35.6854 162.592 37.1788 162.592C38.6721 162.592 39.8827 163.803 39.8827 165.296C39.8827 165.297 39.8827 165.297 39.8827 165.298V176.112H34.4749V165.296Z" fill="#022615"/>
<path fill-rule="evenodd" clip-rule="evenodd" d="M22.9832 165.296C22.9832 165.296 22.9832 165.296 22.9832 165.296C22.9832 163.803 21.7727 162.592 20.2793 162.592C18.786 162.592 17.5754 163.803 17.5754 165.296C17.5754 165.297 17.5754 165.298 17.5754 165.3V176.112H22.9832V165.296Z" fill="#022615"/>
<path fill-rule="evenodd" clip-rule="evenodd" d="M46.6425 165.296C46.6425 165.296 46.6425 165.296 46.6425 165.296C46.6425 163.803 45.4319 162.592 43.9385 162.592C42.4452 162.592 41.2346 163.803 41.2346 165.296C41.2346 165.297 41.2346 165.298 41.2346 165.3V176.112H46.6425V165.296Z" fill="#022615"/>
<path fill-rule="evenodd" clip-rule="evenodd" d="M200.089 165.296C200.089 165.296 200.089 165.296 200.089 165.296C200.089 163.803 198.879 162.592 197.385 162.592C195.892 162.592 194.682 163.803 194.682 165.296C194.682 165.296 194.682 165.296 194.682 165.296V176.112H200.089V165.296Z" fill="#022615"/>
<path fill-rule="evenodd" clip-rule="evenodd" d="M223.749 165.296C223.749 165.296 223.749 165.296 223.749 165.296C223.749 163.803 222.538 162.592 221.045 162.592C219.551 162.592 218.341 163.803 218.341 165.296C218.341 165.298 218.341 165.3 218.341 165.302V176.112H223.749V165.296H223.749Z" fill="#022615"/>
<path fill-rule="evenodd" clip-rule="evenodd" d="M206.849 165.301V176.112H201.441V165.296H201.441C201.441 165.296 201.441 165.296 201.441 165.296C201.441 163.803 202.652 162.592 204.145 162.592C205.639 162.592 206.849 163.803 206.849 165.296C206.849 165.298 206.849 165.299 206.849 165.301Z" fill="#022615"/>
<path fill-rule="evenodd" clip-rule="evenodd" d="M230.508 165.296C230.508 165.296 230.508 165.296 230.508 165.296C230.508 163.803 229.298 162.592 227.804 162.592C226.311 162.592 225.101 163.803 225.101 165.296C225.101 165.297 225.101 165.299 225.101 165.3V176.112H230.508V165.296Z" fill="#022615"/>
<path fill-rule="evenodd" clip-rule="evenodd" d="M213.609 165.296C213.609 165.296 213.609 165.296 213.609 165.296C213.609 163.803 212.398 162.592 210.905 162.592C209.412 162.592 208.201 163.803 208.201 165.296C208.201 165.298 208.201 165.3 208.201 165.302V176.112H213.609V165.296H213.609Z" fill="#022615"/>
<path fill-rule="evenodd" clip-rule="evenodd" d="M237.268 165.305C237.268 165.302 237.268 165.299 237.268 165.296C237.268 163.803 236.058 162.592 234.564 162.592C233.071 162.592 231.86 163.803 231.86 165.296C231.86 165.296 231.86 165.296 231.86 165.296H231.86V176.112H237.268V165.305Z" fill="#022615"/>
<path fill-rule="evenodd" clip-rule="evenodd" d="M71.5001 67.7039C71.5037 67.648 71.5056 67.5917 71.5056 67.5349C71.5056 66.1349 70.3707 65 68.9707 65C67.5707 65 66.4358 66.1349 66.4358 67.5349C66.4358 67.5917 66.4376 67.648 66.4413 67.7039H66.4358V81.2234H71.5056V67.7039H71.5001Z" fill="#022615"/>
<path fill-rule="evenodd" clip-rule="evenodd" d="M78.9358 67.7039C78.9395 67.648 78.9413 67.5917 78.9413 67.5349C78.9413 66.1349 77.8064 65 76.4064 65C75.0064 65 73.8715 66.1349 73.8715 67.5349C73.8715 67.5917 73.8734 67.648 73.877 67.7039H73.8715V81.2234H78.9413V67.7039H78.9358Z" fill="#022615"/>
<path fill-rule="evenodd" clip-rule="evenodd" d="M68.9497 165.972C68.9497 165.972 68.9497 165.972 68.9497 165.972C68.9497 163.732 70.7656 161.916 73.0056 161.916C75.2456 161.916 77.0615 163.732 77.0615 165.972C77.0615 165.973 77.0615 165.975 77.0615 165.976V178.14H68.9497V165.972Z" fill="#022615"/>
<path fill-rule="evenodd" clip-rule="evenodd" d="M128.084 163.034V178.265H112.853V163.034C112.853 163.034 112.853 163.034 112.853 163.034C112.853 158.828 116.262 155.419 120.468 155.419C124.674 155.419 128.084 158.828 128.084 163.034C128.084 163.034 128.084 163.034 128.084 163.034Z" fill="#022615"/>
<path fill-rule="evenodd" clip-rule="evenodd" d="M152 163.034V178.265H136.769V163.034C136.769 163.034 136.769 163.034 136.769 163.034C136.769 158.828 140.179 155.419 144.384 155.419C148.59 155.419 152 158.828 152 163.034C152 163.034 152 163.034 152 163.034Z" fill="#022615"/>
<path fill-rule="evenodd" clip-rule="evenodd" d="M151 123.049V140H137V123.049V123H137C137.027 119.157 140.15 116.049 144 116.049C147.85 116.049 150.973 119.157 151 123H151V123.049Z" fill="#022615"/>
<path fill-rule="evenodd" clip-rule="evenodd" d="M111.536 113.922C111.536 108.695 115.773 104.458 121 104.458C126.227 104.458 130.464 108.695 130.464 113.922C130.464 113.925 130.464 113.927 130.464 113.93V138.933H111.536V113.922Z" fill="#022615"/>
<line x1="108.156" y1="138.933" x2="108.156" y2="103.106" stroke="#022615" stroke-width="2.70391"/>
<line x1="112.888" y1="119.33" x2="112.888" y2="100.402" stroke="#022615" stroke-width="2.70391"/>
<line x1="129.112" y1="119.33" x2="129.112" y2="100.402" stroke="#022615" stroke-width="2.70391"/>
<line x1="133.844" y1="140.285" x2="133.844" y2="103.106" stroke="#022615" stroke-width="2.70391"/>
<rect x="159.352" y="62.352" width="26.2961" height="116.296" fill="#ECA946" stroke="#022615" stroke-width="2.70391"/>
<rect x="87.8771" y="140.285" width="66.2458" height="4.73184" fill="#ECA946" stroke="#022615" stroke-width="2.70391"/>
<rect x="112.888" y="140.285" width="38.5307" height="5.40782" transform="rotate(90 112.888 140.285)" fill="#ECA946" stroke="#022615" stroke-width="2.70391"/>
<rect x="134.52" y="140.285" width="38.5307" height="5.40782" transform="rotate(90 134.52 140.285)" fill="#ECA946" stroke="#022615" stroke-width="2.70391"/>
<path fill-rule="evenodd" clip-rule="evenodd" d="M163.587 165.972C163.587 165.972 163.587 165.972 163.587 165.972C163.587 163.732 165.402 161.916 167.642 161.916C169.882 161.916 171.698 163.732 171.698 165.972C171.698 165.973 171.698 165.975 171.698 165.976V178.14H163.587V165.972Z" fill="#022615"/>
<path fill-rule="evenodd" clip-rule="evenodd" d="M181.162 165.972C181.162 165.972 181.162 165.972 181.162 165.972C181.162 163.732 179.346 161.916 177.106 161.916C174.866 161.916 173.05 163.732 173.05 165.972C173.05 165.972 173.05 165.972 173.05 165.972V178.14H181.162V165.972Z" fill="#022615"/>
<line x1="54.7542" y1="158.536" x2="81.1173" y2="158.536" stroke="#022615" stroke-width="2.70391"/>
<line x1="56" y1="82.648" x2="82.3631" y2="82.648" stroke="#022615" stroke-width="2.70391"/>
<line x1="55.4302" y1="94.2625" x2="81.7933" y2="94.2626" stroke="#022615" stroke-width="2.70391"/>
<line x1="159.531" y1="94.2625" x2="185.894" y2="94.2626" stroke="#022615" stroke-width="2.70391"/>
<line x1="55.7821" y1="108.514" x2="82.1452" y2="108.514" stroke="#022615" stroke-width="2.70391"/>
<line x1="55.4302" y1="145.017" x2="81.7933" y2="145.017" stroke="#022615" stroke-width="2.70391"/>
<line x1="159.531" y1="145.017" x2="185.894" y2="145.017" stroke="#022615" stroke-width="2.70391"/>
<line x1="159.883" y1="108.514" x2="186.246" y2="108.514" stroke="#022615" stroke-width="2.70391"/>
<line x1="160" y1="82.648" x2="186.363" y2="82.648" stroke="#022615" stroke-width="2.70391"/>
<line x1="158.855" y1="158.536" x2="185.218" y2="158.536" stroke="#022615" stroke-width="2.70391"/>
<path fill-rule="evenodd" clip-rule="evenodd" d="M170.065 68.3798C170.078 68.2689 170.084 68.1561 170.084 68.0419C170.084 66.3619 168.722 65 167.042 65C165.362 65 164 66.3619 164 68.0419C164 68.1561 164.006 68.2689 164.019 68.3798H164V81.2234H170.084V68.3798H170.065Z" fill="#022615"/>
<path fill-rule="evenodd" clip-rule="evenodd" d="M181.233 68.3798C181.245 68.2689 181.251 68.1561 181.251 68.0419C181.251 66.3619 179.89 65 178.21 65C176.53 65 175.168 66.3619 175.168 68.0419C175.168 68.1561 175.174 68.2689 175.186 68.3798H175.168V81.2234H181.251V68.3798H181.233Z" fill="#022615"/>
<line x1="63.352" y1="82" x2="63.352" y2="157" stroke="#022615" stroke-width="2.70391"/>
<line x1="73.352" y1="82" x2="73.352" y2="157" stroke="#022615" stroke-width="2.70391"/>
<rect x="175.648" y="83.352" width="75.2961" height="5.29609" transform="rotate(90 175.648 83.352)" fill="#ECA946" stroke="#022615" stroke-width="2.70391"/>
<path fill-rule="evenodd" clip-rule="evenodd" d="M27.0391 128.793C27.0391 128.793 27.0391 128.793 27.0391 128.793C27.0391 126.18 24.6179 124.061 21.6313 124.061C18.6446 124.061 16.2235 126.18 16.2235 128.793C16.2235 128.793 16.2235 128.793 16.2235 128.793V140.961H27.0391V128.796C27.0391 128.795 27.0391 128.794 27.0391 128.793Z" fill="#022615"/>
<path fill-rule="evenodd" clip-rule="evenodd" d="M45.9665 128.793C45.9665 128.793 45.9665 128.793 45.9665 128.793C45.9665 126.18 43.5453 124.061 40.5587 124.061C37.572 124.061 35.1508 126.18 35.1508 128.793C35.1508 128.795 35.1508 128.797 35.1508 128.8V140.285H45.9665V128.793Z" fill="#022615"/>
<path fill-rule="evenodd" clip-rule="evenodd" d="M0 140.285H6.75978V128.793V128.793C6.75978 126.18 4.33861 124.061 1.35196 124.061C0.885126 124.061 0.432112 124.113 0 124.21V140.285Z" fill="#022615"/>
<path fill-rule="evenodd" clip-rule="evenodd" d="M214.961 128.793C214.961 128.793 214.961 128.793 214.961 128.793C214.961 126.18 217.382 124.061 220.369 124.061C223.355 124.061 225.777 126.18 225.777 128.793C225.777 128.797 225.777 128.8 225.777 128.804V140.961H214.961V128.793H214.961Z" fill="#022615"/>
<path fill-rule="evenodd" clip-rule="evenodd" d="M196.034 128.793C196.034 128.793 196.034 128.793 196.034 128.793C196.034 126.18 198.455 124.061 201.441 124.061C204.428 124.061 206.849 126.18 206.849 128.793C206.849 128.795 206.849 128.797 206.849 128.8V140.285H196.034V128.793Z" fill="#022615"/>
<path fill-rule="evenodd" clip-rule="evenodd" d="M242 140.285H235.24V128.793H235.24V128.793C235.24 126.18 237.661 124.061 240.648 124.061C241.115 124.061 241.568 124.113 242 124.21V140.285Z" fill="#022615"/>
</svg>
