<svg width="219" height="219" viewBox="0 0 219 219" fill="none" xmlns="http://www.w3.org/2000/svg">
<circle cx="109.5" cy="109.5" r="109.5" fill="#26895A" fill-opacity="0.15"/>
<circle cx="109.5" cy="109.5" r="67.5" fill="#005181"/>
<path d="M170.466 109.458C170.466 143.152 143.17 170.466 109.5 170.466C75.8296 170.466 48.5336 143.152 48.5336 109.458C48.5336 75.7629 75.8296 48.4487 109.5 48.4487C143.17 48.4487 170.466 75.7629 170.466 109.458Z" stroke="white" stroke-width="1.18793"/>
<path d="M78.8367 91.6397V123.951C78.8367 127.889 79.855 128.839 85.8964 128.839C99.337 128.839 101.781 120.557 101.781 107.864C101.781 91.504 96.486 86.7522 85.8964 86.7522C79.855 86.7522 78.8367 87.7026 78.8367 91.6397ZM65.5319 86.7522V84.4443H87.5256C97.5721 84.4443 109.655 91.9113 109.655 107.796C109.655 123.68 97.7079 131.147 88.0687 131.147H65.5319V128.839C70.7588 128.839 71.9128 127.617 71.9128 124.359V91.2325C71.9128 87.9741 70.7588 86.7522 65.5319 86.7522ZM120.427 124.359V91.2325C120.427 87.9741 119.273 86.7522 114.181 86.7522V84.4443H136.107C149.005 84.4443 153.213 90.4179 153.213 95.9842C153.213 101.958 147.104 106.234 139.909 106.234V106.37C149.955 106.71 155.521 111.19 155.521 118.385C155.521 122.73 151.516 131.147 140.044 131.147H114.181V128.839C119.273 128.839 120.427 127.617 120.427 124.359ZM138.144 107.796H127.351V124.155C127.351 127.685 128.64 128.839 134.342 128.839C144.66 128.839 147.647 125.105 147.647 118.385C147.647 112.004 144.796 107.796 138.144 107.796ZM127.351 105.488H134.071C143.167 105.488 145.339 101.822 145.339 96.5272C145.339 89.4675 141.809 86.7522 133.528 86.7522C127.961 86.7522 127.351 88.2457 127.351 90.1463V105.488Z" fill="white"/>
</svg>
