<svg width="1448" height="20407" viewBox="0 0 1448 20407" fill="none" xmlns="http://www.w3.org/2000/svg">
<g clip-path="url(#clip0_1678_1264)" filter="url(#filter0_dd_1678_1264)">
<rect width="1440" height="20399" transform="translate(4)" fill="#10633B"/>
<path d="M237 7844.2C217.066 7853.27 221 7868.84 225.505 7876H189C192.987 7858.69 194.608 7837.33 225.505 7823C206.568 7832.55 207.857 7850.46 207.857 7868.84C208.854 7862.87 215.286 7849.98 237 7844.2Z" fill="#10633B"/>
<path d="M225.505 7876C221 7868.84 217.066 7853.27 237 7844.2C215.286 7849.98 208.854 7862.87 207.857 7868.84C207.857 7850.46 206.568 7832.55 225.505 7823C194.608 7837.33 192.987 7858.69 189 7876" stroke="#022615" stroke-width="4"/>
<path d="M448.608 20231.2C448.608 20224.5 452.496 20215.2 462 20208C457.248 20208 441.264 20213.7 438.672 20221.6C441.264 20207.5 446.88 20195.2 454.656 20189C438.672 20194.6 426.144 20213.3 423.984 20226.3C423.984 20211.6 420.096 20204.3 413.184 20196.6C413.184 20209.2 414.048 20226 408 20233" stroke="#022615" stroke-width="4"/>
<path d="M250.5 5469L103 5554.5L314 5677L462 5590.5L250.5 5469Z" fill="#C0DCCF" stroke="#022615" stroke-width="4"/>
<path d="M250.5 5460L103 5545.5L314 5668L462 5581.5L250.5 5460Z" fill="#C0DCCF" stroke="#022615" stroke-width="4"/>
<path d="M250.5 5451L103 5536.5L314 5659L462 5572.5L250.5 5451Z" fill="#C0DCCF" stroke="#022615" stroke-width="4"/>
<path d="M250.5 5443L103 5528.5L314 5651L462 5564.5L250.5 5443Z" fill="white" stroke="#022615" stroke-width="4"/>
<path d="M250.5 5443L103 5528.5L314 5651L462 5564.5L250.5 5443Z" fill="white" stroke="#022615" stroke-width="4"/>
<path d="M252 5451L117 5528.5L314 5642L448.5 5564.5L252 5451Z" fill="white" stroke="#022615" stroke-width="4"/>
<path d="M252.5 5458.5L130 5528.5L170.5 5551.5L293.5 5482L252.5 5458.5Z" fill="#83A440" stroke="#022615" stroke-width="4"/>
<path d="M297.5 5507L217 5553L314.475 5612L397 5564.39L297.5 5507Z" fill="#C0DCCF"/>
<path d="M1266 1722.92C1266 1715 1270.5 1704 1281.5 1695.5C1276 1695.5 1257.5 1702.14 1254.5 1711.5C1257.5 1694.86 1264 1680.28 1273 1673C1254.5 1679.59 1240 1701.77 1237.5 1717.03C1237.5 1699.69 1233 1691.03 1225 1682.01C1225 1696.92 1226 1716.68 1219 1725" stroke="#022615" stroke-width="4"/>
<rect x="4" width="1440" height="901" fill="#D9D9D9"/>
<path d="M630.315 481V454.818H633.485V478.188H645.656V481H630.315ZM655.934 481.46C654.69 481.46 653.561 481.226 652.547 480.757C651.532 480.28 650.727 479.594 650.13 478.699C649.534 477.795 649.235 476.705 649.235 475.426C649.235 474.301 649.457 473.389 649.9 472.69C650.343 471.983 650.936 471.429 651.677 471.028C652.419 470.628 653.237 470.33 654.132 470.134C655.035 469.929 655.943 469.767 656.855 469.648C658.048 469.494 659.015 469.379 659.757 469.303C660.507 469.217 661.052 469.077 661.393 468.881C661.743 468.685 661.917 468.344 661.917 467.858V467.756C661.917 466.494 661.572 465.514 660.882 464.815C660.2 464.116 659.164 463.767 657.775 463.767C656.335 463.767 655.206 464.082 654.387 464.713C653.569 465.344 652.994 466.017 652.662 466.733L649.798 465.71C650.309 464.517 650.991 463.588 651.843 462.923C652.704 462.25 653.642 461.781 654.656 461.517C655.679 461.244 656.684 461.108 657.673 461.108C658.304 461.108 659.028 461.185 659.846 461.338C660.673 461.483 661.47 461.786 662.237 462.246C663.012 462.706 663.656 463.401 664.167 464.33C664.679 465.259 664.934 466.503 664.934 468.062V481H661.917V478.341H661.764C661.559 478.767 661.218 479.223 660.741 479.709C660.264 480.195 659.629 480.608 658.836 480.949C658.044 481.29 657.076 481.46 655.934 481.46ZM656.395 478.75C657.588 478.75 658.593 478.516 659.412 478.047C660.238 477.578 660.86 476.973 661.278 476.232C661.704 475.49 661.917 474.71 661.917 473.892V471.131C661.789 471.284 661.508 471.425 661.074 471.553C660.647 471.672 660.153 471.778 659.591 471.872C659.037 471.957 658.495 472.034 657.967 472.102C657.447 472.162 657.025 472.213 656.701 472.256C655.917 472.358 655.184 472.524 654.502 472.754C653.829 472.976 653.284 473.312 652.866 473.764C652.457 474.207 652.252 474.812 652.252 475.58C652.252 476.628 652.64 477.42 653.416 477.957C654.2 478.486 655.193 478.75 656.395 478.75ZM673.458 469.188V481H670.441V461.364H673.356V464.432H673.612C674.072 463.435 674.771 462.634 675.708 462.028C676.646 461.415 677.856 461.108 679.339 461.108C680.668 461.108 681.832 461.381 682.829 461.926C683.826 462.463 684.602 463.281 685.156 464.381C685.71 465.472 685.987 466.852 685.987 468.523V481H682.969V468.727C682.969 467.185 682.569 465.983 681.768 465.122C680.967 464.253 679.867 463.818 678.469 463.818C677.506 463.818 676.646 464.027 675.887 464.445C675.137 464.862 674.545 465.472 674.11 466.273C673.675 467.074 673.458 468.045 673.458 469.188ZM698.914 481.409C697.278 481.409 695.833 480.996 694.581 480.169C693.328 479.334 692.348 478.158 691.64 476.641C690.933 475.115 690.579 473.312 690.579 471.233C690.579 469.17 690.933 467.381 691.64 465.864C692.348 464.347 693.332 463.175 694.593 462.348C695.855 461.521 697.312 461.108 698.966 461.108C700.244 461.108 701.254 461.321 701.995 461.747C702.745 462.165 703.316 462.642 703.708 463.179C704.109 463.707 704.42 464.142 704.642 464.483H704.897V454.818H707.914V481H705V477.983H704.642C704.42 478.341 704.105 478.793 703.696 479.338C703.287 479.875 702.703 480.357 701.944 480.783C701.186 481.2 700.176 481.409 698.914 481.409ZM699.324 478.699C700.534 478.699 701.556 478.384 702.392 477.753C703.227 477.114 703.862 476.232 704.297 475.107C704.731 473.973 704.949 472.665 704.949 471.182C704.949 469.716 704.735 468.433 704.309 467.334C703.883 466.226 703.252 465.365 702.417 464.751C701.582 464.129 700.551 463.818 699.324 463.818C698.045 463.818 696.98 464.146 696.127 464.803C695.284 465.45 694.649 466.332 694.223 467.449C693.805 468.557 693.596 469.801 693.596 471.182C693.596 472.58 693.809 473.849 694.235 474.991C694.67 476.125 695.309 477.028 696.153 477.702C697.005 478.366 698.062 478.699 699.324 478.699ZM713.859 481V461.364H716.876V481H713.859ZM715.393 458.091C714.805 458.091 714.298 457.891 713.872 457.49C713.454 457.089 713.245 456.608 713.245 456.045C713.245 455.483 713.454 455.001 713.872 454.601C714.298 454.2 714.805 454 715.393 454C715.981 454 716.484 454.2 716.902 454.601C717.328 455.001 717.541 455.483 717.541 456.045C717.541 456.608 717.328 457.089 716.902 457.49C716.484 457.891 715.981 458.091 715.393 458.091ZM725.419 469.188V481H722.402V461.364H725.317V464.432H725.572C726.033 463.435 726.732 462.634 727.669 462.028C728.607 461.415 729.817 461.108 731.3 461.108C732.629 461.108 733.793 461.381 734.79 461.926C735.787 462.463 736.563 463.281 737.116 464.381C737.67 465.472 737.947 466.852 737.947 468.523V481H734.93V468.727C734.93 467.185 734.53 465.983 733.729 465.122C732.928 464.253 731.828 463.818 730.43 463.818C729.467 463.818 728.607 464.027 727.848 464.445C727.098 464.862 726.506 465.472 726.071 466.273C725.636 467.074 725.419 468.045 725.419 469.188ZM751.387 488.773C749.929 488.773 748.676 488.585 747.628 488.21C746.58 487.844 745.706 487.358 745.007 486.753C744.317 486.156 743.767 485.517 743.358 484.835L745.762 483.148C746.034 483.506 746.38 483.915 746.797 484.375C747.215 484.844 747.786 485.249 748.51 485.589C749.243 485.939 750.202 486.114 751.387 486.114C752.972 486.114 754.28 485.73 755.311 484.963C756.343 484.196 756.858 482.994 756.858 481.358V477.369H756.603C756.381 477.727 756.066 478.17 755.657 478.699C755.256 479.219 754.676 479.683 753.918 480.092C753.168 480.493 752.154 480.693 750.875 480.693C749.29 480.693 747.867 480.318 746.605 479.568C745.353 478.818 744.36 477.727 743.627 476.295C742.902 474.864 742.54 473.125 742.54 471.08C742.54 469.068 742.894 467.317 743.601 465.825C744.309 464.325 745.293 463.166 746.554 462.348C747.816 461.521 749.273 461.108 750.926 461.108C752.205 461.108 753.219 461.321 753.969 461.747C754.728 462.165 755.307 462.642 755.708 463.179C756.117 463.707 756.432 464.142 756.654 464.483H756.961V461.364H759.875V481.562C759.875 483.25 759.492 484.622 758.725 485.679C757.966 486.744 756.944 487.524 755.657 488.018C754.378 488.521 752.955 488.773 751.387 488.773ZM751.284 477.983C752.495 477.983 753.517 477.706 754.353 477.152C755.188 476.598 755.823 475.801 756.257 474.761C756.692 473.722 756.909 472.477 756.909 471.028C756.909 469.614 756.696 468.365 756.27 467.283C755.844 466.2 755.213 465.352 754.378 464.739C753.543 464.125 752.512 463.818 751.284 463.818C750.006 463.818 748.941 464.142 748.088 464.79C747.245 465.437 746.61 466.307 746.184 467.398C745.766 468.489 745.557 469.699 745.557 471.028C745.557 472.392 745.77 473.598 746.196 474.646C746.631 475.686 747.27 476.504 748.114 477.101C748.966 477.689 750.023 477.983 751.284 477.983ZM779.103 454.818V481H775.932V454.818H779.103ZM788.067 454.818V481H785.05V454.818H788.067ZM796.61 454.818V481H793.593V454.818H796.61ZM810.114 481.409C808.341 481.409 806.786 480.987 805.447 480.143C804.118 479.3 803.078 478.119 802.328 476.602C801.587 475.085 801.216 473.312 801.216 471.284C801.216 469.239 801.587 467.453 802.328 465.928C803.078 464.402 804.118 463.217 805.447 462.374C806.786 461.53 808.341 461.108 810.114 461.108C811.886 461.108 813.438 461.53 814.767 462.374C816.105 463.217 817.145 464.402 817.886 465.928C818.636 467.453 819.011 469.239 819.011 471.284C819.011 473.312 818.636 475.085 817.886 476.602C817.145 478.119 816.105 479.3 814.767 480.143C813.438 480.987 811.886 481.409 810.114 481.409ZM810.114 478.699C811.46 478.699 812.568 478.354 813.438 477.663C814.307 476.973 814.95 476.065 815.368 474.94C815.786 473.815 815.994 472.597 815.994 471.284C815.994 469.972 815.786 468.749 815.368 467.615C814.95 466.482 814.307 465.565 813.438 464.866C812.568 464.168 811.46 463.818 810.114 463.818C808.767 463.818 807.659 464.168 806.79 464.866C805.92 465.565 805.277 466.482 804.859 467.615C804.442 468.749 804.233 469.972 804.233 471.284C804.233 472.597 804.442 473.815 804.859 474.94C805.277 476.065 805.92 476.973 806.79 477.663C807.659 478.354 808.767 478.699 810.114 478.699Z" fill="black"/>
<path d="M198.5 3285.92C198.5 3278 194 3267 183 3258.5C188.5 3258.5 207 3265.14 210 3274.5C207 3257.86 200.5 3243.28 191.5 3236C210 3242.59 224.5 3264.77 227 3280.03C227 3262.69 231.5 3254.03 239.5 3245.01C239.5 3259.92 238.5 3279.68 245.5 3288" stroke="#022615" stroke-width="4"/>
<path d="M1067.5 6446.92C1067.5 6439 1072 6428 1083 6419.5C1077.5 6419.5 1059 6426.14 1056 6435.5C1059 6418.86 1065.5 6404.28 1074.5 6397C1056 6403.59 1041.5 6425.77 1039 6441.03C1039 6423.69 1034.5 6415.03 1026.5 6406.01C1026.5 6420.92 1027.5 6440.68 1020.5 6449" stroke="#022615" stroke-width="4"/>
<path d="M262.5 10540.9C262.5 10533 258 10522 247 10513.5C252.5 10513.5 271 10520.1 274 10529.5C271 10512.9 264.5 10498.3 255.5 10491C274 10497.6 288.5 10519.8 291 10535C291 10517.7 295.5 10509 303.5 10500C303.5 10514.9 302.5 10534.7 309.5 10543" stroke="#022615" stroke-width="4"/>
<path d="M1248 12969.9C1248 12962 1252.5 12951 1263.5 12942.5C1258 12942.5 1239.5 12949.1 1236.5 12958.5C1239.5 12941.9 1246 12927.3 1255 12920C1236.5 12926.6 1222 12948.8 1219.5 12964C1219.5 12946.7 1215 12938 1207 12929C1207 12943.9 1208 12963.7 1201 12972" stroke="#022615" stroke-width="4"/>
<path d="M1113 1625.89C1116.09 1624.1 1119.91 1624.1 1123 1625.89L1156.3 1645.11C1159.4 1646.9 1161.3 1650.2 1161.3 1653.77V1692.23C1161.3 1695.8 1159.4 1699.1 1156.3 1700.89L1123 1720.11C1119.91 1721.9 1116.09 1721.9 1113 1720.11L1079.7 1700.89C1076.6 1699.1 1074.7 1695.8 1074.7 1692.23V1653.77C1074.7 1650.2 1076.6 1646.9 1079.7 1645.11L1113 1625.89Z" fill="white" stroke="#022615" stroke-width="4"/>
<path d="M1118 1678.75V1705.62C1118 1713.33 1126.36 1718.14 1133.03 1714.26L1156.03 1700.89C1159.11 1699.1 1161 1695.81 1161 1692.25V1665.38C1161 1657.67 1152.64 1652.86 1145.97 1656.74L1122.97 1670.11C1119.89 1671.9 1118 1675.19 1118 1678.75Z" fill="#C0DCCF" stroke="#022615" stroke-width="4"/>
<path d="M1118 1678.75V1705.62C1118 1713.33 1109.64 1718.14 1102.97 1714.26L1079.97 1700.89C1076.89 1699.1 1075 1695.81 1075 1692.25V1665.38C1075 1657.67 1083.36 1652.86 1090.03 1656.74L1113.03 1670.11C1116.11 1671.9 1118 1675.19 1118 1678.75Z" fill="#C0DCCF" stroke="#022615" stroke-width="4"/>
<path d="M1112.9 1669.91L1090.02 1656.7C1083.35 1652.85 1083.36 1643.22 1090.03 1639.38L1112.83 1626.26C1115.92 1624.48 1119.73 1624.48 1122.82 1626.26L1145.69 1639.47C1152.36 1643.32 1152.35 1652.95 1145.68 1656.8L1122.88 1669.92C1119.79 1671.7 1115.99 1671.69 1112.9 1669.91Z" stroke="#022615" stroke-width="4"/>
<path d="M1073.62 1654.36C1074.28 1650.51 1077.18 1647.37 1080.25 1645.16C1082.38 1643.62 1085.21 1645.9 1085.55 1648.51C1085.63 1649.18 1085.75 1649.86 1085.89 1650.54C1086.33 1652.64 1083.11 1654.81 1081.62 1656.36C1081.46 1656.53 1081.4 1656.57 1081.19 1656.69C1079.91 1657.44 1077.57 1658.27 1075.35 1657.55C1074.05 1657.12 1073.39 1655.71 1073.62 1654.36Z" fill="#022615"/>
<path d="M1123.65 1719.75C1119.98 1721.11 1115.81 1720.16 1112.36 1718.61C1109.97 1717.54 1110.53 1713.95 1112.61 1712.35C1113.15 1711.94 1113.68 1711.5 1114.2 1711.03C1115.8 1709.61 1119.29 1711.31 1121.37 1711.82C1121.61 1711.88 1121.67 1711.91 1121.88 1712.03C1123.17 1712.76 1125.06 1714.38 1125.54 1716.66C1125.82 1718 1124.93 1719.27 1123.65 1719.75Z" fill="#022615"/>
<path d="M1148.5 1655.5C1149 1654.5 1150.5 1650.5 1149 1643C1151 1643.67 1155.7 1645.4 1158.5 1647C1161.3 1648.6 1162.33 1654.33 1162.5 1657C1162.33 1658.5 1161.3 1660.7 1158.5 1657.5C1155 1653.5 1148 1656.5 1148.5 1655.5Z" fill="#022615"/>
<ellipse cx="1118" cy="1636.5" rx="6" ry="5.5" fill="#022615"/>
<ellipse cx="1136" cy="1647.5" rx="6" ry="5.5" fill="#022615"/>
<ellipse cx="1100" cy="1647.5" rx="6" ry="5.5" fill="#022615"/>
<ellipse cx="1118" cy="1658.5" rx="6" ry="5.5" fill="#022615"/>
<ellipse cx="1086.16" cy="1691.61" rx="5" ry="6" transform="rotate(-26.6944 1086.16 1691.61)" fill="#022615"/>
<ellipse cx="1106.16" cy="1680.61" rx="5" ry="6" transform="rotate(-26.6944 1106.16 1680.61)" fill="#022615"/>
<ellipse cx="1140.36" cy="1686.06" rx="3.71751" ry="6" transform="rotate(32.5436 1140.36 1686.06)" fill="#022615"/>
<ellipse cx="1118" cy="1658.5" rx="6" ry="5.5" fill="#022615"/>
<path d="M1192 1693.89C1195.09 1692.1 1198.91 1692.1 1202 1693.89L1235.3 1713.11C1238.4 1714.9 1240.3 1718.2 1240.3 1721.77V1760.23C1240.3 1763.8 1238.4 1767.1 1235.3 1768.89L1202 1788.11C1198.91 1789.9 1195.09 1789.9 1192 1788.11L1158.7 1768.89C1155.6 1767.1 1153.7 1763.8 1153.7 1760.23V1721.77C1153.7 1718.2 1155.6 1714.9 1158.7 1713.11L1192 1693.89Z" fill="white" stroke="#022615" stroke-width="4"/>
<path d="M1197 1746.75V1773.62C1197 1781.33 1205.36 1786.14 1212.03 1782.26L1235.03 1768.89C1238.11 1767.1 1240 1763.81 1240 1760.25V1733.38C1240 1725.67 1231.64 1720.86 1224.97 1724.74L1201.97 1738.11C1198.89 1739.9 1197 1743.19 1197 1746.75Z" fill="#C0DCCF" stroke="#022615" stroke-width="4"/>
<path d="M1197 1746.75V1773.62C1197 1781.33 1188.64 1786.14 1181.97 1782.26L1158.97 1768.89C1155.89 1767.1 1154 1763.81 1154 1760.25V1733.38C1154 1725.67 1162.36 1720.86 1169.03 1724.74L1192.03 1738.11C1195.11 1739.9 1197 1743.19 1197 1746.75Z" fill="#C0DCCF" stroke="#022615" stroke-width="4"/>
<path d="M1191.9 1737.91L1169.02 1724.7C1162.35 1720.85 1162.36 1711.22 1169.03 1707.38L1191.83 1694.26C1194.92 1692.48 1198.73 1692.48 1201.82 1694.26L1224.69 1707.47C1231.36 1711.32 1231.35 1720.95 1224.68 1724.8L1201.88 1737.92C1198.79 1739.7 1194.99 1739.69 1191.9 1737.91Z" stroke="#022615" stroke-width="4"/>
<path d="M1152.62 1722.36C1153.28 1718.51 1156.18 1715.37 1159.25 1713.16C1161.38 1711.62 1164.21 1713.9 1164.55 1716.51C1164.63 1717.18 1164.75 1717.86 1164.89 1718.54C1165.33 1720.64 1162.11 1722.81 1160.62 1724.36C1160.46 1724.53 1160.4 1724.57 1160.19 1724.69C1158.91 1725.44 1156.57 1726.27 1154.35 1725.55C1153.05 1725.12 1152.39 1723.71 1152.62 1722.36Z" fill="#022615"/>
<path d="M1202.65 1787.75C1198.98 1789.11 1194.81 1788.16 1191.36 1786.61C1188.97 1785.54 1189.53 1781.95 1191.61 1780.35C1192.15 1779.94 1192.68 1779.5 1193.2 1779.03C1194.8 1777.61 1198.29 1779.31 1200.37 1779.82C1200.61 1779.88 1200.67 1779.91 1200.88 1780.03C1202.17 1780.76 1204.06 1782.38 1204.54 1784.66C1204.82 1786 1203.93 1787.27 1202.65 1787.75Z" fill="#022615"/>
<path d="M1227.5 1723.5C1228 1722.5 1229.5 1718.5 1228 1711C1230 1711.67 1234.7 1713.4 1237.5 1715C1240.3 1716.6 1241.33 1722.33 1241.5 1725C1241.33 1726.5 1240.3 1728.7 1237.5 1725.5C1234 1721.5 1227 1724.5 1227.5 1723.5Z" fill="#022615"/>
<ellipse cx="1215" cy="1715.5" rx="6" ry="5.5" fill="#022615"/>
<ellipse cx="1179" cy="1715.5" rx="6" ry="5.5" fill="#022615"/>
<ellipse cx="1165.16" cy="1759.61" rx="5" ry="6" transform="rotate(-26.6944 1165.16 1759.61)" fill="#022615"/>
<ellipse cx="1185.16" cy="1771.61" rx="5" ry="6" transform="rotate(-26.6944 1185.16 1771.61)" fill="#022615"/>
<ellipse cx="1165.16" cy="1735.61" rx="5" ry="6" transform="rotate(-26.6944 1165.16 1735.61)" fill="#022615"/>
<ellipse cx="1185.16" cy="1747.61" rx="5" ry="6" transform="rotate(-26.6944 1185.16 1747.61)" fill="#022615"/>
<ellipse cx="1206.17" cy="1749.55" rx="3.71751" ry="6" transform="rotate(30.2107 1206.17 1749.55)" fill="#022615"/>
<ellipse cx="1207.06" cy="1771.53" rx="3.71751" ry="6" transform="rotate(30.2107 1207.06 1771.53)" fill="#022615"/>
<ellipse cx="1217.91" cy="1743.07" rx="3.71751" ry="6" transform="rotate(30.2107 1217.91 1743.07)" fill="#022615"/>
<ellipse cx="1218.81" cy="1765.05" rx="3.71751" ry="6" transform="rotate(30.2107 1218.81 1765.05)" fill="#022615"/>
<ellipse cx="1229.66" cy="1736.58" rx="3.71751" ry="6" transform="rotate(30.2107 1229.66 1736.58)" fill="#022615"/>
<ellipse cx="1230.55" cy="1758.57" rx="3.71751" ry="6" transform="rotate(30.2107 1230.55 1758.57)" fill="#022615"/>
<path d="M1055 1836C1055.67 1825.33 1052 1800.2 1032 1785C1055 1792 1071 1814 1072 1824C1066 1784 1061 1760 1042 1744C1073 1768 1087 1795 1091 1824C1091 1794 1106 1776 1118 1771C1108.5 1790 1102 1817 1113 1836" stroke="#022615" stroke-width="4"/>
<path d="M1055 1836C1055.67 1825.33 1052 1800.2 1032 1785C1055 1792 1071 1814 1072 1824C1066 1784 1061 1760 1042 1744C1073 1768 1087 1795 1091 1824C1091 1794 1106 1776 1118 1771C1108.5 1790 1102 1817 1113 1836" stroke="#022615" stroke-width="4"/>
<path d="M396.942 5443C393 5435.57 389.558 5419.42 407 5410C388 5416 382.372 5429.37 381.5 5435.57C381.5 5416.5 380.372 5397.91 396.942 5388C369.907 5402.87 368.488 5425.03 365 5443" stroke="#022615" stroke-width="4"/>
<path d="M1333.94 4720C1330 4712.57 1326.56 4696.42 1344 4687C1325 4693 1319.37 4706.37 1318.5 4712.57C1318.5 4693.5 1317.37 4674.91 1333.94 4665C1306.91 4679.87 1305.49 4702.03 1302 4720" stroke="#022615" stroke-width="4"/>
<path d="M196.714 5664C199.068 5647.21 190.5 5638 177 5629C185.5 5643.5 182.982 5649.22 182.982 5654.93C180.628 5645.87 168.465 5628.4 148.062 5619C166.111 5635.79 167.68 5648.55 167.68 5653.93C157.479 5645.87 152.378 5642.51 141 5640.83C159.833 5651.91 154.732 5659.97 152.77 5664" stroke="#022615" stroke-width="4"/>
<path d="M304 13785.9C304 13778 308.5 13767 319.5 13758.5C314 13758.5 295.5 13765.1 292.5 13774.5C295.5 13757.9 302 13743.3 311 13736C292.5 13742.6 278 13764.8 275.5 13780C275.5 13762.7 271 13754 263 13745C263 13759.9 264 13779.7 257 13788" stroke="#022615" stroke-width="4"/>
<path d="M151 13688.9C154.094 13687.1 157.906 13687.1 161 13688.9L194.301 13708.1C197.395 13709.9 199.301 13713.2 199.301 13716.8V13755.2C199.301 13758.8 197.395 13762.1 194.301 13763.9L161 13783.1C157.906 13784.9 154.094 13784.9 151 13783.1L117.699 13763.9C114.605 13762.1 112.699 13758.8 112.699 13755.2V13716.8C112.699 13713.2 114.605 13709.9 117.699 13708.1L151 13688.9Z" fill="white" stroke="#022615" stroke-width="4"/>
<path d="M156 13741.8V13768.6C156 13776.3 164.36 13781.1 171.026 13777.3L194.026 13763.9C197.105 13762.1 199 13758.8 199 13755.2V13728.4C199 13720.7 190.64 13715.9 183.974 13719.7L160.974 13733.1C157.895 13734.9 156 13738.2 156 13741.8Z" fill="#C0DCCF" stroke="#022615" stroke-width="4"/>
<path d="M156 13741.8V13768.6C156 13776.3 147.64 13781.1 140.974 13777.3L117.974 13763.9C114.895 13762.1 113 13758.8 113 13755.2V13728.4C113 13720.7 121.36 13715.9 128.026 13719.7L151.026 13733.1C154.105 13734.9 156 13738.2 156 13741.8Z" fill="#C0DCCF" stroke="#022615" stroke-width="4"/>
<path d="M150.895 13732.9L128.023 13719.7C121.351 13715.9 121.357 13706.2 128.034 13702.4L150.827 13689.3C153.92 13687.5 157.726 13687.5 160.816 13689.3L183.688 13702.5C190.36 13706.3 190.354 13716 183.677 13719.8L160.884 13732.9C157.792 13734.7 153.985 13734.7 150.895 13732.9Z" stroke="#022615" stroke-width="4"/>
<path d="M111.623 13717.4C112.277 13713.5 115.183 13710.4 118.25 13708.2C120.377 13706.6 123.207 13708.9 123.546 13711.5C123.633 13712.2 123.752 13712.9 123.894 13713.5C124.33 13715.6 121.112 13717.8 119.624 13719.4C119.458 13719.5 119.4 13719.6 119.193 13719.7C117.911 13720.4 115.566 13721.3 113.353 13720.5C112.052 13720.1 111.394 13718.7 111.623 13717.4Z" fill="#022615"/>
<path d="M161.647 13782.7C157.978 13784.1 153.813 13783.2 150.361 13781.6C147.967 13780.5 148.527 13776.9 150.611 13775.4C151.151 13774.9 151.679 13774.5 152.199 13774C153.801 13772.6 157.291 13774.3 159.374 13774.8C159.606 13774.9 159.668 13774.9 159.876 13775C161.169 13775.8 163.056 13777.4 163.538 13779.7C163.822 13781 162.929 13782.3 161.647 13782.7Z" fill="#022615"/>
<path d="M186.5 13718.5C187 13717.5 188.5 13713.5 187 13706C189 13706.7 193.7 13708.4 196.5 13710C199.3 13711.6 200.333 13717.3 200.5 13720C200.333 13721.5 199.3 13723.7 196.5 13720.5C193 13716.5 186 13719.5 186.5 13718.5Z" fill="#022615"/>
<ellipse cx="156" cy="13699.5" rx="6" ry="5.5" fill="#022615"/>
<ellipse cx="174" cy="13710.5" rx="6" ry="5.5" fill="#022615"/>
<ellipse cx="138" cy="13710.5" rx="6" ry="5.5" fill="#022615"/>
<ellipse cx="156" cy="13721.5" rx="6" ry="5.5" fill="#022615"/>
<ellipse cx="124.162" cy="13754.6" rx="5" ry="6" transform="rotate(-26.6944 124.162 13754.6)" fill="#022615"/>
<ellipse cx="144.162" cy="13743.6" rx="5" ry="6" transform="rotate(-26.6944 144.162 13743.6)" fill="#022615"/>
<ellipse cx="178.361" cy="13749.1" rx="3.71751" ry="6" transform="rotate(32.5436 178.361 13749.1)" fill="#022615"/>
<ellipse cx="156" cy="13721.5" rx="6" ry="5.5" fill="#022615"/>
<path d="M230 13756.9C233.094 13755.1 236.906 13755.1 240 13756.9L273.301 13776.1C276.395 13777.9 278.301 13781.2 278.301 13784.8V13823.2C278.301 13826.8 276.395 13830.1 273.301 13831.9L240 13851.1C236.906 13852.9 233.094 13852.9 230 13851.1L196.699 13831.9C193.605 13830.1 191.699 13826.8 191.699 13823.2V13784.8C191.699 13781.2 193.605 13777.9 196.699 13776.1L230 13756.9Z" fill="white" stroke="#022615" stroke-width="4"/>
<path d="M235 13809.8V13836.6C235 13844.3 243.36 13849.1 250.026 13845.3L273.026 13831.9C276.105 13830.1 278 13826.8 278 13823.2V13796.4C278 13788.7 269.64 13783.9 262.974 13787.7L239.974 13801.1C236.895 13802.9 235 13806.2 235 13809.8Z" fill="#C0DCCF" stroke="#022615" stroke-width="4"/>
<path d="M235 13809.8V13836.6C235 13844.3 226.64 13849.1 219.974 13845.3L196.974 13831.9C193.895 13830.1 192 13826.8 192 13823.2V13796.4C192 13788.7 200.36 13783.9 207.026 13787.7L230.026 13801.1C233.105 13802.9 235 13806.2 235 13809.8Z" fill="#C0DCCF" stroke="#022615" stroke-width="4"/>
<path d="M229.895 13800.9L207.023 13787.7C200.351 13783.9 200.357 13774.2 207.034 13770.4L229.827 13757.3C232.92 13755.5 236.726 13755.5 239.816 13757.3L262.688 13770.5C269.36 13774.3 269.354 13784 262.677 13787.8L239.884 13800.9C236.792 13802.7 232.985 13802.7 229.895 13800.9Z" stroke="#022615" stroke-width="4"/>
<path d="M190.623 13785.4C191.277 13781.5 194.183 13778.4 197.25 13776.2C199.377 13774.6 202.207 13776.9 202.546 13779.5C202.633 13780.2 202.752 13780.9 202.894 13781.5C203.33 13783.6 200.112 13785.8 198.624 13787.4C198.458 13787.5 198.4 13787.6 198.193 13787.7C196.911 13788.4 194.566 13789.3 192.353 13788.5C191.052 13788.1 190.394 13786.7 190.623 13785.4Z" fill="#022615"/>
<path d="M240.647 13850.7C236.978 13852.1 232.813 13851.2 229.361 13849.6C226.967 13848.5 227.527 13844.9 229.611 13843.4C230.151 13842.9 230.679 13842.5 231.199 13842C232.801 13840.6 236.291 13842.3 238.374 13842.8C238.606 13842.9 238.668 13842.9 238.876 13843C240.169 13843.8 242.056 13845.4 242.538 13847.7C242.822 13849 241.929 13850.3 240.647 13850.7Z" fill="#022615"/>
<path d="M265.5 13786.5C266 13785.5 267.5 13781.5 266 13774C268 13774.7 272.7 13776.4 275.5 13778C278.3 13779.6 279.333 13785.3 279.5 13788C279.333 13789.5 278.3 13791.7 275.5 13788.5C272 13784.5 265 13787.5 265.5 13786.5Z" fill="#022615"/>
<ellipse cx="253" cy="13778.5" rx="6" ry="5.5" fill="#022615"/>
<ellipse cx="217" cy="13778.5" rx="6" ry="5.5" fill="#022615"/>
<ellipse cx="203.162" cy="13822.6" rx="5" ry="6" transform="rotate(-26.6944 203.162 13822.6)" fill="#022615"/>
<ellipse cx="223.162" cy="13834.6" rx="5" ry="6" transform="rotate(-26.6944 223.162 13834.6)" fill="#022615"/>
<ellipse cx="203.162" cy="13798.6" rx="5" ry="6" transform="rotate(-26.6944 203.162 13798.6)" fill="#022615"/>
<ellipse cx="223.162" cy="13810.6" rx="5" ry="6" transform="rotate(-26.6944 223.162 13810.6)" fill="#022615"/>
<ellipse cx="244.168" cy="13812.5" rx="3.71751" ry="6" transform="rotate(30.2107 244.168 13812.5)" fill="#022615"/>
<ellipse cx="245.063" cy="13834.5" rx="3.71751" ry="6" transform="rotate(30.2107 245.063 13834.5)" fill="#022615"/>
<ellipse cx="255.914" cy="13806.1" rx="3.71751" ry="6" transform="rotate(30.2107 255.914 13806.1)" fill="#022615"/>
<ellipse cx="256.809" cy="13828" rx="3.71751" ry="6" transform="rotate(30.2107 256.809 13828)" fill="#022615"/>
<ellipse cx="267.66" cy="13799.6" rx="3.71751" ry="6" transform="rotate(30.2107 267.66 13799.6)" fill="#022615"/>
<ellipse cx="268.555" cy="13821.6" rx="3.71751" ry="6" transform="rotate(30.2107 268.555 13821.6)" fill="#022615"/>
<path d="M93 13899C93.6667 13888.3 90 13863.2 70 13848C93 13855 109 13877 110 13887C104 13847 99 13823 80 13807C111 13831 125 13858 129 13887C129 13857 144 13839 156 13834C146.5 13853 140 13880 151 13899" stroke="#022615" stroke-width="4"/>
<path d="M93 13899C93.6667 13888.3 90 13863.2 70 13848C93 13855 109 13877 110 13887C104 13847 99 13823 80 13807C111 13831 125 13858 129 13887C129 13857 144 13839 156 13834C146.5 13853 140 13880 151 13899" stroke="#022615" stroke-width="4"/>
<path d="M1253.5 12025L1106 12110.5L1317 12233L1465 12146.5L1253.5 12025Z" fill="#C0DCCF" stroke="#022615" stroke-width="4"/>
<path d="M1253.5 12016L1106 12101.5L1317 12224L1465 12137.5L1253.5 12016Z" fill="#C0DCCF" stroke="#022615" stroke-width="4"/>
<path d="M1253.5 12007L1106 12092.5L1317 12215L1465 12128.5L1253.5 12007Z" fill="#C0DCCF" stroke="#022615" stroke-width="4"/>
<path d="M1253.5 11999L1106 12084.5L1317 12207L1465 12120.5L1253.5 11999Z" fill="white" stroke="#022615" stroke-width="4"/>
<path d="M1253.5 11999L1106 12084.5L1317 12207L1465 12120.5L1253.5 11999Z" fill="white" stroke="#022615" stroke-width="4"/>
<path d="M1255 12007L1120 12084.5L1317 12198L1451.5 12120.5L1255 12007Z" fill="white" stroke="#022615" stroke-width="4"/>
<path d="M1255.5 12014.5L1133 12084.5L1173.5 12107.5L1296.5 12038L1255.5 12014.5Z" fill="#412260" stroke="#022615" stroke-width="4"/>
<path d="M1300.5 12063L1220 12109L1317.48 12168L1400 12120.4L1300.5 12063Z" fill="#C0DCCF"/>
<path d="M1399.94 11999C1396 11991.6 1392.56 11975.4 1410 11966C1391 11972 1385.37 11985.4 1384.5 11991.6C1384.5 11972.5 1383.37 11953.9 1399.94 11944C1372.91 11958.9 1371.49 11981 1368 11999" stroke="#022615" stroke-width="4"/>
<path d="M1199.71 12220C1202.07 12203.2 1193.5 12194 1180 12185C1188.5 12199.5 1185.98 12205.2 1185.98 12210.9C1183.63 12201.9 1171.46 12184.4 1151.06 12175C1169.11 12191.8 1170.68 12204.6 1170.68 12209.9C1160.48 12201.9 1155.38 12198.5 1144 12196.8C1162.83 12207.9 1157.73 12216 1155.77 12220" stroke="#022615" stroke-width="4"/>
<path d="M1203 10353.5C1204.5 10342 1205.44 10323.1 1188 10314.4C1207 10320 1215.13 10333.3 1216 10339C1216 10321.3 1214.63 10303.2 1198.06 10294C1225.09 10307.8 1230.51 10330.3 1234 10347" stroke="#022615" stroke-width="4"/>
<g filter="url(#filter1_d_1678_1264)">
<path d="M1146.81 10436.6L1163.25 10426.7C1172.05 10421.4 1179.91 10418.2 1186.83 10417C1193.93 10415.8 1200.45 10415.7 1206.4 10416.7C1212.65 10417.8 1218.77 10419.1 1224.78 10420.5C1233.1 10422.7 1241.07 10424 1248.7 10424.5C1256.32 10425 1264.17 10422.8 1272.25 10417.9C1277.82 10414.6 1281.79 10410.5 1284.15 10405.6C1286.69 10400.6 1287.72 10395.5 1287.23 10390.2C1286.85 10385.2 1285.13 10380.5 1282.07 10376.4C1276.29 10368.6 1268.8 10363.8 1259.58 10362.2C1250.65 10360.7 1241.68 10361 1232.67 10363.2L1228.06 10336.9C1232.66 10335.7 1238.32 10335 1245.06 10334.6C1251.79 10334.3 1258.94 10334.8 1266.49 10336.3C1274.17 10337.9 1281.68 10340.9 1289.03 10345.2C1296.38 10349.6 1303 10355.7 1308.89 10363.7C1315.49 10372.7 1319.47 10381.9 1320.82 10391.5C1322.46 10401.1 1321.05 10410.3 1316.57 10419C1312.2 10427.8 1304.46 10435.6 1293.32 10442.3C1284.52 10447.6 1276.33 10450.9 1268.75 10452.2C1261.35 10453.4 1254.2 10453.6 1247.3 10452.7C1240.51 10451.9 1233.67 10450.7 1226.78 10449.1C1221.19 10447.8 1215.77 10446.8 1210.54 10446C1205.3 10445.3 1199.85 10445.4 1194.18 10446.5C1188.69 10447.5 1182.35 10450.2 1175.17 10454.5L1164.66 10460.8L1146.81 10436.6ZM1105.71 10479C1102.41 10474.5 1101.05 10470 1101.62 10465.5C1102.49 10461.1 1105.17 10457.5 1109.66 10454.8C1113.97 10452.2 1118.63 10451.5 1123.62 10452.6C1128.8 10453.7 1132.97 10456.4 1136.16 10460.7C1139.34 10465 1140.4 10469.4 1139.35 10474C1138.6 10478.6 1136.07 10482.2 1131.76 10484.8C1127.27 10487.5 1122.58 10488.3 1117.7 10487.3C1113.01 10486.2 1109.01 10483.5 1105.71 10479Z" fill="#CB0000"/>
<path d="M1145.78 10434.9L1143.9 10436L1145.2 10437.8L1163.05 10462L1164.13 10463.5L1165.69 10462.5L1176.2 10456.2C1183.27 10452 1189.37 10449.4 1194.54 10448.5L1194.55 10448.5L1194.56 10448.5C1200.03 10447.4 1205.25 10447.3 1210.25 10448C1215.43 10448.8 1220.79 10449.8 1226.33 10451C1233.29 10452.7 1240.2 10453.9 1247.06 10454.6C1254.16 10455.6 1261.51 10455.4 1269.08 10454.2L1269.09 10454.2L1269.1 10454.2C1276.98 10452.8 1285.4 10449.4 1294.35 10444C1305.71 10437.2 1313.77 10429.1 1318.35 10419.9C1323.02 10410.8 1324.5 10401.2 1322.79 10391.2C1321.38 10381.3 1317.26 10371.7 1310.5 10362.5C1304.48 10354.4 1297.66 10348 1290.05 10343.5C1282.52 10339 1274.81 10336 1266.91 10334.3L1266.89 10334.3L1266.87 10334.3C1259.18 10332.8 1251.87 10332.3 1244.95 10332.6C1238.14 10333 1232.34 10333.8 1227.58 10335L1225.77 10335.4L1226.09 10337.2L1230.7 10363.5L1231.07 10365.6L1233.14 10365.1C1241.9 10363 1250.59 10362.7 1259.23 10364.2C1267.93 10365.7 1274.98 10370.1 1280.46 10377.6C1283.3 10381.4 1284.88 10385.7 1285.23 10390.4L1285.23 10390.4L1285.23 10390.4C1285.69 10395.3 1284.75 10400 1282.37 10404.7L1282.36 10404.7L1282.35 10404.7C1280.19 10409.2 1276.52 10413 1271.22 10416.2C1263.4 10420.9 1255.95 10422.9 1248.82 10422.5C1241.34 10422 1233.49 10420.7 1225.28 10418.6L1225.27 10418.6L1225.25 10418.6C1219.2 10417.1 1213.03 10415.8 1206.74 10414.7C1200.53 10413.6 1193.77 10413.8 1186.49 10415.1C1179.23 10416.3 1171.14 10419.7 1162.21 10425L1145.78 10434.9ZM1099.66 10465.1L1099.65 10465.2L1099.64 10465.3C1098.98 10470.4 1100.57 10475.4 1104.1 10480.2C1107.64 10485 1112.02 10488.1 1117.25 10489.3L1117.28 10489.3L1117.31 10489.3C1122.7 10490.4 1127.89 10489.4 1132.79 10486.5C1137.54 10483.6 1140.45 10479.6 1141.32 10474.4C1142.49 10469.2 1141.22 10464.2 1137.77 10459.5C1134.3 10454.8 1129.7 10451.8 1124.04 10450.7C1118.56 10449.4 1113.39 10450.2 1108.63 10453.1C1103.74 10456 1100.66 10460 1099.66 10465.1Z" stroke="#022615" stroke-width="4"/>
</g>
<path d="M1302.5 10451.5C1291.5 10460 1287 10471 1287 10478.9L1240 10481C1247 10472.7 1246 10452.9 1246 10438C1254 10447 1258.5 10455.7 1258.5 10473C1261 10457.8 1275.5 10435.6 1294 10429C1285 10436.3 1278.5 10450.9 1275.5 10467.5C1278.5 10458.1 1297 10451.5 1302.5 10451.5Z" fill="#10633B"/>
<path d="M1287 10476.9C1287 10469 1291.5 10458 1302.5 10449.5C1297 10449.5 1278.5 10456.1 1275.5 10465.5C1278.5 10448.9 1285 10434.3 1294 10427C1275.5 10433.6 1261 10455.8 1258.5 10471C1258.5 10453.7 1254 10445 1246 10436C1246 10450.9 1247 10470.7 1240 10479" stroke="#022615" stroke-width="4"/>
<path d="M1052.94 9573C1049 9565.97 1045.56 9550.7 1063 9541.8C1044 9547.47 1038.37 9560.11 1037.5 9565.97C1037.5 9547.95 1036.37 9530.37 1052.94 9521C1025.91 9535.06 1024.49 9556.01 1021 9573" stroke="#022615" stroke-width="4"/>
<path d="M1329.39 16938.2C1329.39 16931.5 1325.5 16922.2 1316 16915C1320.75 16915 1336.74 16920.7 1339.33 16928.6C1336.74 16914.5 1331.12 16902.2 1323.34 16896C1339.33 16901.6 1351.86 16920.3 1354.02 16933.3C1354.02 16918.6 1357.9 16911.3 1364.82 16903.6C1364.82 16916.2 1363.95 16933 1370 16940" stroke="#022615" stroke-width="4"/>
<path d="M1000 17146L851 17059.5L1114.5 16908L1263 16994L1000 17146Z" fill="#63917B" stroke="#022615" stroke-width="4"/>
<path d="M1000 17136L851 17049.5L1114.5 16898L1263 16984L1000 17136Z" fill="#63917B" stroke="#022615" stroke-width="4"/>
<path d="M1000 17126L851 17039.5L1114.5 16888L1263 16974L1000 17126Z" fill="#C0DCCF" stroke="#022615" stroke-width="4"/>
<path d="M999.999 17109.7L878.082 17039.5L1115.97 16904.8L1235.51 16974L999.999 17109.7Z" stroke="#26895A" stroke-opacity="0.4" stroke-width="10"/>
<path d="M999 17097L897.5 17039.5L1116 16918L1214 16974L999 17097Z" fill="#26895A" fill-opacity="0.4"/>
<ellipse cx="1059.4" cy="17005.6" rx="61.0163" ry="40.3669" transform="rotate(-7.0561 1059.4 17005.6)" fill="#C0DCCF"/>
<path d="M1044.58 17126C1045.06 17118.3 1042.42 17100.3 1028 17089.4C1043.95 17094.2 1055.22 17109 1056.71 17116.5C1052.44 17088.4 1048.77 17071.4 1035.21 17060C1057.56 17077.2 1067.65 17096.6 1070.53 17117.4C1070.53 17095.9 1081.35 17083 1090 17079.4C1083.15 17093 1078.47 17112.4 1086.4 17126H1044.58Z" fill="#10633B"/>
<path d="M1044.58 17129C1045.06 17121.3 1042.42 17103.3 1028 17092.4C1044.58 17097.4 1056.12 17113.2 1056.84 17120.4C1052.51 17091.7 1048.91 17074.5 1035.21 17063C1057.56 17080.2 1067.65 17099.6 1070.53 17120.4C1070.53 17098.9 1081.35 17086 1090 17082.4C1083.15 17096 1078.47 17115.4 1086.4 17129" stroke="#022615" stroke-width="4"/>
<path d="M1189 17255L1040 17168.5L1303.5 17017L1452 17103L1189 17255Z" fill="#E0A5B3" stroke="#022615" stroke-width="4"/>
<path d="M1189 17245L1040 17158.5L1303.5 17007L1452 17093L1189 17245Z" fill="#E0A5B3" stroke="#022615" stroke-width="4"/>
<path d="M1189 17235L1040 17148.5L1303.5 16997L1452 17083L1189 17235Z" fill="#FFD2DD" stroke="#022615" stroke-width="4"/>
<path d="M1189 17218.7L1067.08 17148.5L1304.97 17013.8L1424.51 17083L1189 17218.7Z" stroke="#26895A" stroke-opacity="0.4" stroke-width="10"/>
<path d="M1188 17206L1086.5 17148.5L1305 17027L1403 17083L1188 17206Z" fill="#26895A" fill-opacity="0.4"/>
<ellipse cx="1248.4" cy="17114.6" rx="61.0163" ry="40.3669" transform="rotate(-7.0561 1248.4 17114.6)" fill="#FFD2DD"/>
<path d="M1403 17124C1385.56 17133.4 1389 17149.6 1392.94 17157H1361C1364.49 17139 1365.91 17116.9 1392.94 17102C1376.37 17111.9 1377.5 17130.5 1377.5 17149.6C1378.37 17143.4 1384 17130 1403 17124Z" fill="#10633B"/>
<path d="M1392.94 17157C1389 17149.6 1385.56 17133.4 1403 17124C1384 17130 1378.37 17143.4 1377.5 17149.6C1377.5 17130.5 1376.37 17111.9 1392.94 17102C1365.91 17116.9 1364.49 17139 1361 17157" stroke="#022615" stroke-width="4"/>
<path d="M1263 17353.6C1277.12 17360.3 1274.33 17371.7 1271.14 17377H1297C1294.18 17364.3 1293.03 17348.5 1271.14 17338C1284.56 17345 1283.64 17358.2 1283.64 17371.7C1282.94 17367.3 1278.38 17357.9 1263 17353.6Z" fill="#10633B"/>
<path d="M1271.14 17377C1274.33 17371.7 1277.12 17360.3 1263 17353.6C1278.38 17357.9 1282.94 17367.3 1283.64 17371.7C1283.64 17358.2 1284.56 17345 1271.14 17338C1293.03 17348.5 1294.18 17364.3 1297 17377" stroke="#022615" stroke-width="4"/>
<path d="M1376 17368L1227 17281.5L1490.5 17130L1639 17216L1376 17368Z" fill="#5F8CA7" stroke="#022615" stroke-width="4"/>
<path d="M1376 17358L1227 17271.5L1490.5 17120L1639 17206L1376 17358Z" fill="#5F8CA7" stroke="#022615" stroke-width="4"/>
<path d="M1376 17348L1227 17261.5L1490.5 17110L1639 17196L1376 17348Z" fill="#CDECFF" stroke="#022615" stroke-width="4"/>
<path d="M1376 17331.7L1254.08 17261.5L1491.97 17126.8L1611.51 17196L1376 17331.7Z" stroke="#26895A" stroke-opacity="0.4" stroke-width="10"/>
<path d="M1375 17319L1273.5 17261.5L1492 17140L1590 17196L1375 17319Z" fill="#26895A" fill-opacity="0.4"/>
<ellipse cx="1435.4" cy="17227.6" rx="61.0163" ry="40.3669" transform="rotate(-7.0561 1435.4 17227.6)" fill="#CDECFF"/>
<path d="M1172 20234.6C1157.88 20241.3 1160.67 20252.7 1163.86 20258H1138C1140.82 20245.3 1141.97 20229.5 1163.86 20219C1150.44 20226 1151.36 20239.2 1151.36 20252.7C1152.06 20248.3 1156.62 20238.9 1172 20234.6Z" fill="#10633B"/>
<path d="M1163.86 20258C1160.67 20252.7 1157.88 20241.3 1172 20234.6C1156.62 20238.9 1152.06 20248.3 1151.36 20252.7C1151.36 20239.2 1150.44 20226 1163.86 20219C1141.97 20229.5 1140.82 20245.3 1138 20258" stroke="#022615" stroke-width="4"/>
<path d="M611 15411.4C625.12 15416.7 622.333 15425.8 619.142 15430H645C642.176 15419.9 641.028 15407.4 619.142 15399C632.556 15404.6 631.643 15415.1 631.643 15425.8C630.937 15422.3 626.381 15414.8 611 15411.4Z" fill="#10633B"/>
<path d="M619.142 15430C622.333 15425.8 625.12 15416.7 611 15411.4C626.381 15414.8 630.937 15422.3 631.643 15425.8C631.643 15415.1 632.556 15404.6 619.142 15399C641.028 15407.4 642.176 15419.9 645 15430" stroke="#022615" stroke-width="4"/>
<path d="M930 15515.4C915.88 15520.7 918.667 15529.8 921.858 15534H896C898.824 15523.9 899.972 15511.4 921.858 15503C908.444 15508.6 909.357 15519.1 909.357 15529.8C910.063 15526.3 914.619 15518.8 930 15515.4Z" fill="#10633B"/>
<path d="M921.858 15534C918.667 15529.8 915.88 15520.7 930 15515.4C914.619 15518.8 910.063 15526.3 909.357 15529.8C909.357 15519.1 908.444 15508.6 921.858 15503C899.972 15511.4 898.824 15523.9 896 15534" stroke="#022615" stroke-width="4"/>
<path d="M153 20278.6C167.12 20285.3 164.333 20296.7 161.142 20302H187C184.176 20289.3 183.028 20273.5 161.142 20263C174.556 20270 173.643 20283.2 173.643 20296.7C172.937 20292.3 168.381 20282.9 153 20278.6Z" fill="#10633B"/>
<path d="M161.142 20302C164.333 20296.7 167.12 20285.3 153 20278.6C168.381 20282.9 172.937 20292.3 173.643 20296.7C173.643 20283.2 174.556 20270 161.142 20263C183.028 20273.5 184.176 20289.3 187 20302" stroke="#022615" stroke-width="4"/>
<path d="M596.864 16269C596.864 16261.6 600.968 16251.2 611 16243.2C605.984 16243.2 589.112 16249.5 586.376 16258.3C589.112 16242.6 595.04 16228.9 603.248 16222C586.376 16228.2 573.152 16249.1 570.872 16263.5C570.872 16247.2 566.768 16239 559.472 16230.5C559.472 16244.5 560.384 16263.2 554 16271" stroke="#022615" stroke-width="4"/>
<path d="M98 7985L247 7898.5L-16.5 7747L-165 7833L98 7985Z" fill="#B6A759" stroke="#022615" stroke-width="4"/>
<path d="M98 7975L247 7888.5L-16.5 7737L-165 7823L98 7975Z" fill="#B6A759" stroke="#022615" stroke-width="4"/>
<path d="M98 7965L247 7878.5L-16.5 7727L-165 7813L98 7965Z" fill="#FFF3B5" stroke="#022615" stroke-width="4"/>
<path d="M98.0013 7948.73L219.918 7878.54L-17.9726 7743.76L-137.505 7812.99L98.0013 7948.73Z" stroke="#26895A" stroke-opacity="0.4" stroke-width="10"/>
<path d="M99 7936L200.5 7878.5L-18 7757L-116 7813L99 7936Z" fill="#26895A" fill-opacity="0.4"/>
<ellipse cx="61.0163" cy="40.3669" rx="61.0163" ry="40.3669" transform="matrix(-0.992426 -0.122841 -0.122841 0.992426 104.108 7811.99)" fill="#FFF3B5"/>
<path d="M19 7930.2C38.9336 7940.99 35 7959.48 30.495 7968H67C63.0133 7947.42 61.392 7922.03 30.495 7905C49.4319 7916.35 48.1429 7937.65 48.1429 7959.48C47.1462 7952.39 40.7143 7937.07 19 7930.2Z" fill="#10633B"/>
<path d="M30.495 7968C35 7959.48 38.9336 7940.99 19 7930.2C40.7143 7937.07 47.1462 7952.39 48.1429 7959.48C48.1429 7937.65 49.4319 7916.35 30.495 7905C61.392 7922.03 63.0133 7947.42 67 7968" stroke="#022615" stroke-width="4"/>
</g>
<defs>
<filter id="filter0_dd_1678_1264" x="0" y="0" width="1448" height="20407" filterUnits="userSpaceOnUse" color-interpolation-filters="sRGB">
<feFlood flood-opacity="0" result="BackgroundImageFix"/>
<feColorMatrix in="SourceAlpha" type="matrix" values="0 0 0 0 0 0 0 0 0 0 0 0 0 0 0 0 0 0 127 0" result="hardAlpha"/>
<feOffset dy="4"/>
<feGaussianBlur stdDeviation="2"/>
<feComposite in2="hardAlpha" operator="out"/>
<feColorMatrix type="matrix" values="0 0 0 0 0 0 0 0 0 0 0 0 0 0 0 0 0 0 0.25 0"/>
<feBlend mode="normal" in2="BackgroundImageFix" result="effect1_dropShadow_1678_1264"/>
<feColorMatrix in="SourceAlpha" type="matrix" values="0 0 0 0 0 0 0 0 0 0 0 0 0 0 0 0 0 0 127 0" result="hardAlpha"/>
<feOffset dy="4"/>
<feGaussianBlur stdDeviation="2"/>
<feComposite in2="hardAlpha" operator="out"/>
<feColorMatrix type="matrix" values="0 0 0 0 0 0 0 0 0 0 0 0 0 0 0 0 0 0 0.25 0"/>
<feBlend mode="normal" in2="effect1_dropShadow_1678_1264" result="effect2_dropShadow_1678_1264"/>
<feBlend mode="normal" in="SourceGraphic" in2="effect2_dropShadow_1678_1264" result="shape"/>
</filter>
<filter id="filter1_d_1678_1264" x="1097.49" y="10330.5" width="229.987" height="165.205" filterUnits="userSpaceOnUse" color-interpolation-filters="sRGB">
<feFlood flood-opacity="0" result="BackgroundImageFix"/>
<feColorMatrix in="SourceAlpha" type="matrix" values="0 0 0 0 0 0 0 0 0 0 0 0 0 0 0 0 0 0 127 0" result="hardAlpha"/>
<feOffset dx="2" dy="4"/>
<feComposite in2="hardAlpha" operator="out"/>
<feColorMatrix type="matrix" values="0 0 0 0 0.0075 0 0 0 0 0.15 0 0 0 0 0.0816 0 0 0 1 0"/>
<feBlend mode="normal" in2="BackgroundImageFix" result="effect1_dropShadow_1678_1264"/>
<feBlend mode="normal" in="SourceGraphic" in2="effect1_dropShadow_1678_1264" result="shape"/>
</filter>
<clipPath id="clip0_1678_1264">
<rect width="1440" height="20399" fill="white" transform="translate(4)"/>
</clipPath>
</defs>
</svg>
