<svg width="1440" height="20399" viewBox="0 0 1440 20399" fill="none" xmlns="http://www.w3.org/2000/svg">
<g clip-path="url(#clip0_1678_1264)">
<rect width="1440" height="20399" fill="#10633B"/>
<path d="M233 7844.2C213.066 7853.27 217 7868.84 221.505 7876H185C188.987 7858.69 190.608 7837.33 221.505 7823C202.568 7832.55 203.857 7850.46 203.857 7868.84C204.854 7862.87 211.286 7849.98 233 7844.2Z" fill="#10633B"/>
<path d="M221.505 7876C217 7868.84 213.066 7853.27 233 7844.2C211.286 7849.98 204.854 7862.87 203.857 7868.84C203.857 7850.46 202.568 7832.55 221.505 7823C190.608 7837.33 188.987 7858.69 185 7876" stroke="#022615" stroke-width="4"/>
<path d="M444.608 20231.2C444.608 20224.5 448.496 20215.2 458 20208C453.248 20208 437.264 20213.7 434.672 20221.6C437.264 20207.5 442.88 20195.2 450.656 20189C434.672 20194.6 422.144 20213.3 419.984 20226.3C419.984 20211.6 416.096 20204.3 409.184 20196.6C409.184 20209.2 410.048 20226 404 20233" stroke="#022615" stroke-width="4"/>
<path d="M246.5 5469L99 5554.5L310 5677L458 5590.5L246.5 5469Z" fill="#C0DCCF" stroke="#022615" stroke-width="4"/>
<path d="M246.5 5460L99 5545.5L310 5668L458 5581.5L246.5 5460Z" fill="#C0DCCF" stroke="#022615" stroke-width="4"/>
<path d="M246.5 5451L99 5536.5L310 5659L458 5572.5L246.5 5451Z" fill="#C0DCCF" stroke="#022615" stroke-width="4"/>
<path d="M246.5 5443L99 5528.5L310 5651L458 5564.5L246.5 5443Z" fill="white" stroke="#022615" stroke-width="4"/>
<path d="M246.5 5443L99 5528.5L310 5651L458 5564.5L246.5 5443Z" fill="white" stroke="#022615" stroke-width="4"/>
<path d="M248 5451L113 5528.5L310 5642L444.5 5564.5L248 5451Z" fill="white" stroke="#022615" stroke-width="4"/>
<path d="M248.5 5458.5L126 5528.5L166.5 5551.5L289.5 5482L248.5 5458.5Z" fill="#83A440" stroke="#022615" stroke-width="4"/>
<path d="M293.5 5507L213 5553L310.475 5612L393 5564.39L293.5 5507Z" fill="#C0DCCF"/>
<path d="M1262 1722.92C1262 1715 1266.5 1704 1277.5 1695.5C1272 1695.5 1253.5 1702.14 1250.5 1711.5C1253.5 1694.86 1260 1680.28 1269 1673C1250.5 1679.59 1236 1701.77 1233.5 1717.03C1233.5 1699.69 1229 1691.03 1221 1682.01C1221 1696.92 1222 1716.68 1215 1725" stroke="#022615" stroke-width="4"/>
<rect width="1440" height="901" fill="#D9D9D9"/>
<path d="M626.315 481V454.818H629.485V478.188H641.656V481H626.315ZM651.934 481.46C650.69 481.46 649.561 481.226 648.547 480.757C647.532 480.28 646.727 479.594 646.13 478.699C645.534 477.795 645.235 476.705 645.235 475.426C645.235 474.301 645.457 473.389 645.9 472.69C646.343 471.983 646.936 471.429 647.677 471.028C648.419 470.628 649.237 470.33 650.132 470.134C651.035 469.929 651.943 469.767 652.855 469.648C654.048 469.494 655.015 469.379 655.757 469.303C656.507 469.217 657.052 469.077 657.393 468.881C657.743 468.685 657.917 468.344 657.917 467.858V467.756C657.917 466.494 657.572 465.514 656.882 464.815C656.2 464.116 655.164 463.767 653.775 463.767C652.335 463.767 651.206 464.082 650.387 464.713C649.569 465.344 648.994 466.017 648.662 466.733L645.798 465.71C646.309 464.517 646.991 463.588 647.843 462.923C648.704 462.25 649.642 461.781 650.656 461.517C651.679 461.244 652.684 461.108 653.673 461.108C654.304 461.108 655.028 461.185 655.846 461.338C656.673 461.483 657.47 461.786 658.237 462.246C659.012 462.706 659.656 463.401 660.167 464.33C660.679 465.259 660.934 466.503 660.934 468.062V481H657.917V478.341H657.764C657.559 478.767 657.218 479.223 656.741 479.709C656.264 480.195 655.629 480.608 654.836 480.949C654.044 481.29 653.076 481.46 651.934 481.46ZM652.395 478.75C653.588 478.75 654.593 478.516 655.412 478.047C656.238 477.578 656.86 476.973 657.278 476.232C657.704 475.49 657.917 474.71 657.917 473.892V471.131C657.789 471.284 657.508 471.425 657.074 471.553C656.647 471.672 656.153 471.778 655.591 471.872C655.037 471.957 654.495 472.034 653.967 472.102C653.447 472.162 653.025 472.213 652.701 472.256C651.917 472.358 651.184 472.524 650.502 472.754C649.829 472.976 649.284 473.312 648.866 473.764C648.457 474.207 648.252 474.812 648.252 475.58C648.252 476.628 648.64 477.42 649.416 477.957C650.2 478.486 651.193 478.75 652.395 478.75ZM669.458 469.188V481H666.441V461.364H669.356V464.432H669.612C670.072 463.435 670.771 462.634 671.708 462.028C672.646 461.415 673.856 461.108 675.339 461.108C676.668 461.108 677.832 461.381 678.829 461.926C679.826 462.463 680.602 463.281 681.156 464.381C681.71 465.472 681.987 466.852 681.987 468.523V481H678.969V468.727C678.969 467.185 678.569 465.983 677.768 465.122C676.967 464.253 675.867 463.818 674.469 463.818C673.506 463.818 672.646 464.027 671.887 464.445C671.137 464.862 670.545 465.472 670.11 466.273C669.675 467.074 669.458 468.045 669.458 469.188ZM694.914 481.409C693.278 481.409 691.833 480.996 690.581 480.169C689.328 479.334 688.348 478.158 687.64 476.641C686.933 475.115 686.579 473.312 686.579 471.233C686.579 469.17 686.933 467.381 687.64 465.864C688.348 464.347 689.332 463.175 690.593 462.348C691.855 461.521 693.312 461.108 694.966 461.108C696.244 461.108 697.254 461.321 697.995 461.747C698.745 462.165 699.316 462.642 699.708 463.179C700.109 463.707 700.42 464.142 700.642 464.483H700.897V454.818H703.914V481H701V477.983H700.642C700.42 478.341 700.105 478.793 699.696 479.338C699.287 479.875 698.703 480.357 697.944 480.783C697.186 481.2 696.176 481.409 694.914 481.409ZM695.324 478.699C696.534 478.699 697.556 478.384 698.392 477.753C699.227 477.114 699.862 476.232 700.297 475.107C700.731 473.973 700.949 472.665 700.949 471.182C700.949 469.716 700.735 468.433 700.309 467.334C699.883 466.226 699.252 465.365 698.417 464.751C697.582 464.129 696.551 463.818 695.324 463.818C694.045 463.818 692.98 464.146 692.127 464.803C691.284 465.45 690.649 466.332 690.223 467.449C689.805 468.557 689.596 469.801 689.596 471.182C689.596 472.58 689.809 473.849 690.235 474.991C690.67 476.125 691.309 477.028 692.153 477.702C693.005 478.366 694.062 478.699 695.324 478.699ZM709.859 481V461.364H712.876V481H709.859ZM711.393 458.091C710.805 458.091 710.298 457.891 709.872 457.49C709.454 457.089 709.245 456.608 709.245 456.045C709.245 455.483 709.454 455.001 709.872 454.601C710.298 454.2 710.805 454 711.393 454C711.981 454 712.484 454.2 712.902 454.601C713.328 455.001 713.541 455.483 713.541 456.045C713.541 456.608 713.328 457.089 712.902 457.49C712.484 457.891 711.981 458.091 711.393 458.091ZM721.419 469.188V481H718.402V461.364H721.317V464.432H721.572C722.033 463.435 722.732 462.634 723.669 462.028C724.607 461.415 725.817 461.108 727.3 461.108C728.629 461.108 729.793 461.381 730.79 461.926C731.787 462.463 732.563 463.281 733.116 464.381C733.67 465.472 733.947 466.852 733.947 468.523V481H730.93V468.727C730.93 467.185 730.53 465.983 729.729 465.122C728.928 464.253 727.828 463.818 726.43 463.818C725.467 463.818 724.607 464.027 723.848 464.445C723.098 464.862 722.506 465.472 722.071 466.273C721.636 467.074 721.419 468.045 721.419 469.188ZM747.387 488.773C745.929 488.773 744.676 488.585 743.628 488.21C742.58 487.844 741.706 487.358 741.007 486.753C740.317 486.156 739.767 485.517 739.358 484.835L741.762 483.148C742.034 483.506 742.38 483.915 742.797 484.375C743.215 484.844 743.786 485.249 744.51 485.589C745.243 485.939 746.202 486.114 747.387 486.114C748.972 486.114 750.28 485.73 751.311 484.963C752.343 484.196 752.858 482.994 752.858 481.358V477.369H752.603C752.381 477.727 752.066 478.17 751.657 478.699C751.256 479.219 750.676 479.683 749.918 480.092C749.168 480.493 748.154 480.693 746.875 480.693C745.29 480.693 743.867 480.318 742.605 479.568C741.353 478.818 740.36 477.727 739.627 476.295C738.902 474.864 738.54 473.125 738.54 471.08C738.54 469.068 738.894 467.317 739.601 465.825C740.309 464.325 741.293 463.166 742.554 462.348C743.816 461.521 745.273 461.108 746.926 461.108C748.205 461.108 749.219 461.321 749.969 461.747C750.728 462.165 751.307 462.642 751.708 463.179C752.117 463.707 752.432 464.142 752.654 464.483H752.961V461.364H755.875V481.562C755.875 483.25 755.492 484.622 754.725 485.679C753.966 486.744 752.944 487.524 751.657 488.018C750.378 488.521 748.955 488.773 747.387 488.773ZM747.284 477.983C748.495 477.983 749.517 477.706 750.353 477.152C751.188 476.598 751.823 475.801 752.257 474.761C752.692 473.722 752.909 472.477 752.909 471.028C752.909 469.614 752.696 468.365 752.27 467.283C751.844 466.2 751.213 465.352 750.378 464.739C749.543 464.125 748.512 463.818 747.284 463.818C746.006 463.818 744.941 464.142 744.088 464.79C743.245 465.437 742.61 466.307 742.184 467.398C741.766 468.489 741.557 469.699 741.557 471.028C741.557 472.392 741.77 473.598 742.196 474.646C742.631 475.686 743.27 476.504 744.114 477.101C744.966 477.689 746.023 477.983 747.284 477.983ZM775.103 454.818V481H771.932V454.818H775.103ZM784.067 454.818V481H781.05V454.818H784.067ZM792.61 454.818V481H789.593V454.818H792.61ZM806.114 481.409C804.341 481.409 802.786 480.987 801.447 480.143C800.118 479.3 799.078 478.119 798.328 476.602C797.587 475.085 797.216 473.312 797.216 471.284C797.216 469.239 797.587 467.453 798.328 465.928C799.078 464.402 800.118 463.217 801.447 462.374C802.786 461.53 804.341 461.108 806.114 461.108C807.886 461.108 809.438 461.53 810.767 462.374C812.105 463.217 813.145 464.402 813.886 465.928C814.636 467.453 815.011 469.239 815.011 471.284C815.011 473.312 814.636 475.085 813.886 476.602C813.145 478.119 812.105 479.3 810.767 480.143C809.438 480.987 807.886 481.409 806.114 481.409ZM806.114 478.699C807.46 478.699 808.568 478.354 809.438 477.663C810.307 476.973 810.95 476.065 811.368 474.94C811.786 473.815 811.994 472.597 811.994 471.284C811.994 469.972 811.786 468.749 811.368 467.615C810.95 466.482 810.307 465.565 809.438 464.866C808.568 464.168 807.46 463.818 806.114 463.818C804.767 463.818 803.659 464.168 802.79 464.866C801.92 465.565 801.277 466.482 800.859 467.615C800.442 468.749 800.233 469.972 800.233 471.284C800.233 472.597 800.442 473.815 800.859 474.94C801.277 476.065 801.92 476.973 802.79 477.663C803.659 478.354 804.767 478.699 806.114 478.699Z" fill="black"/>
<path d="M194.5 3285.92C194.5 3278 190 3267 179 3258.5C184.5 3258.5 203 3265.14 206 3274.5C203 3257.86 196.5 3243.28 187.5 3236C206 3242.59 220.5 3264.77 223 3280.03C223 3262.69 227.5 3254.03 235.5 3245.01C235.5 3259.92 234.5 3279.68 241.5 3288" stroke="#022615" stroke-width="4"/>
<path d="M1063.5 6446.92C1063.5 6439 1068 6428 1079 6419.5C1073.5 6419.5 1055 6426.14 1052 6435.5C1055 6418.86 1061.5 6404.28 1070.5 6397C1052 6403.59 1037.5 6425.77 1035 6441.03C1035 6423.69 1030.5 6415.03 1022.5 6406.01C1022.5 6420.92 1023.5 6440.68 1016.5 6449" stroke="#022615" stroke-width="4"/>
<path d="M258.5 10540.9C258.5 10533 254 10522 243 10513.5C248.5 10513.5 267 10520.1 270 10529.5C267 10512.9 260.5 10498.3 251.5 10491C270 10497.6 284.5 10519.8 287 10535C287 10517.7 291.5 10509 299.5 10500C299.5 10514.9 298.5 10534.7 305.5 10543" stroke="#022615" stroke-width="4"/>
<path d="M1244 12969.9C1244 12962 1248.5 12951 1259.5 12942.5C1254 12942.5 1235.5 12949.1 1232.5 12958.5C1235.5 12941.9 1242 12927.3 1251 12920C1232.5 12926.6 1218 12948.8 1215.5 12964C1215.5 12946.7 1211 12938 1203 12929C1203 12943.9 1204 12963.7 1197 12972" stroke="#022615" stroke-width="4"/>
<path d="M1109 1625.89C1112.09 1624.1 1115.91 1624.1 1119 1625.89L1152.3 1645.11C1155.4 1646.9 1157.3 1650.2 1157.3 1653.77V1692.23C1157.3 1695.8 1155.4 1699.1 1152.3 1700.89L1119 1720.11C1115.91 1721.9 1112.09 1721.9 1109 1720.11L1075.7 1700.89C1072.6 1699.1 1070.7 1695.8 1070.7 1692.23V1653.77C1070.7 1650.2 1072.6 1646.9 1075.7 1645.11L1109 1625.89Z" fill="white" stroke="#022615" stroke-width="4"/>
<path d="M1114 1678.75V1705.62C1114 1713.33 1122.36 1718.14 1129.03 1714.26L1152.03 1700.89C1155.11 1699.1 1157 1695.81 1157 1692.25V1665.38C1157 1657.67 1148.64 1652.86 1141.97 1656.74L1118.97 1670.11C1115.89 1671.9 1114 1675.19 1114 1678.75Z" fill="#C0DCCF" stroke="#022615" stroke-width="4"/>
<path d="M1114 1678.75V1705.62C1114 1713.33 1105.64 1718.14 1098.97 1714.26L1075.97 1700.89C1072.89 1699.1 1071 1695.81 1071 1692.25V1665.38C1071 1657.67 1079.36 1652.86 1086.03 1656.74L1109.03 1670.11C1112.11 1671.9 1114 1675.19 1114 1678.75Z" fill="#C0DCCF" stroke="#022615" stroke-width="4"/>
<path d="M1108.9 1669.91L1086.02 1656.7C1079.35 1652.85 1079.36 1643.22 1086.03 1639.38L1108.83 1626.26C1111.92 1624.48 1115.73 1624.48 1118.82 1626.26L1141.69 1639.47C1148.36 1643.32 1148.35 1652.95 1141.68 1656.8L1118.88 1669.92C1115.79 1671.7 1111.99 1671.69 1108.9 1669.91Z" stroke="#022615" stroke-width="4"/>
<path d="M1069.62 1654.36C1070.28 1650.51 1073.18 1647.37 1076.25 1645.16C1078.38 1643.62 1081.21 1645.9 1081.55 1648.51C1081.63 1649.18 1081.75 1649.86 1081.89 1650.54C1082.33 1652.64 1079.11 1654.81 1077.62 1656.36C1077.46 1656.53 1077.4 1656.57 1077.19 1656.69C1075.91 1657.44 1073.57 1658.27 1071.35 1657.55C1070.05 1657.12 1069.39 1655.71 1069.62 1654.36Z" fill="#022615"/>
<path d="M1119.65 1719.75C1115.98 1721.11 1111.81 1720.16 1108.36 1718.61C1105.97 1717.54 1106.53 1713.95 1108.61 1712.35C1109.15 1711.94 1109.68 1711.5 1110.2 1711.03C1111.8 1709.61 1115.29 1711.31 1117.37 1711.82C1117.61 1711.88 1117.67 1711.91 1117.88 1712.03C1119.17 1712.76 1121.06 1714.38 1121.54 1716.66C1121.82 1718 1120.93 1719.27 1119.65 1719.75Z" fill="#022615"/>
<path d="M1144.5 1655.5C1145 1654.5 1146.5 1650.5 1145 1643C1147 1643.67 1151.7 1645.4 1154.5 1647C1157.3 1648.6 1158.33 1654.33 1158.5 1657C1158.33 1658.5 1157.3 1660.7 1154.5 1657.5C1151 1653.5 1144 1656.5 1144.5 1655.5Z" fill="#022615"/>
<ellipse cx="1114" cy="1636.5" rx="6" ry="5.5" fill="#022615"/>
<ellipse cx="1132" cy="1647.5" rx="6" ry="5.5" fill="#022615"/>
<ellipse cx="1096" cy="1647.5" rx="6" ry="5.5" fill="#022615"/>
<ellipse cx="1114" cy="1658.5" rx="6" ry="5.5" fill="#022615"/>
<ellipse cx="1082.16" cy="1691.61" rx="5" ry="6" transform="rotate(-26.6944 1082.16 1691.61)" fill="#022615"/>
<ellipse cx="1102.16" cy="1680.61" rx="5" ry="6" transform="rotate(-26.6944 1102.16 1680.61)" fill="#022615"/>
<ellipse cx="1136.36" cy="1686.06" rx="3.71751" ry="6" transform="rotate(32.5436 1136.36 1686.06)" fill="#022615"/>
<ellipse cx="1114" cy="1658.5" rx="6" ry="5.5" fill="#022615"/>
<path d="M1188 1693.89C1191.09 1692.1 1194.91 1692.1 1198 1693.89L1231.3 1713.11C1234.4 1714.9 1236.3 1718.2 1236.3 1721.77V1760.23C1236.3 1763.8 1234.4 1767.1 1231.3 1768.89L1198 1788.11C1194.91 1789.9 1191.09 1789.9 1188 1788.11L1154.7 1768.89C1151.6 1767.1 1149.7 1763.8 1149.7 1760.23V1721.77C1149.7 1718.2 1151.6 1714.9 1154.7 1713.11L1188 1693.89Z" fill="white" stroke="#022615" stroke-width="4"/>
<path d="M1193 1746.75V1773.62C1193 1781.33 1201.36 1786.14 1208.03 1782.26L1231.03 1768.89C1234.11 1767.1 1236 1763.81 1236 1760.25V1733.38C1236 1725.67 1227.64 1720.86 1220.97 1724.74L1197.97 1738.11C1194.89 1739.9 1193 1743.19 1193 1746.75Z" fill="#C0DCCF" stroke="#022615" stroke-width="4"/>
<path d="M1193 1746.75V1773.62C1193 1781.33 1184.64 1786.14 1177.97 1782.26L1154.97 1768.89C1151.89 1767.1 1150 1763.81 1150 1760.25V1733.38C1150 1725.67 1158.36 1720.86 1165.03 1724.74L1188.03 1738.11C1191.11 1739.9 1193 1743.19 1193 1746.75Z" fill="#C0DCCF" stroke="#022615" stroke-width="4"/>
<path d="M1187.9 1737.91L1165.02 1724.7C1158.35 1720.85 1158.36 1711.22 1165.03 1707.38L1187.83 1694.26C1190.92 1692.48 1194.73 1692.48 1197.82 1694.26L1220.69 1707.47C1227.36 1711.32 1227.35 1720.95 1220.68 1724.8L1197.88 1737.92C1194.79 1739.7 1190.99 1739.69 1187.9 1737.91Z" stroke="#022615" stroke-width="4"/>
<path d="M1148.62 1722.36C1149.28 1718.51 1152.18 1715.37 1155.25 1713.16C1157.38 1711.62 1160.21 1713.9 1160.55 1716.51C1160.63 1717.18 1160.75 1717.86 1160.89 1718.54C1161.33 1720.64 1158.11 1722.81 1156.62 1724.36C1156.46 1724.53 1156.4 1724.57 1156.19 1724.69C1154.91 1725.44 1152.57 1726.27 1150.35 1725.55C1149.05 1725.12 1148.39 1723.71 1148.62 1722.36Z" fill="#022615"/>
<path d="M1198.65 1787.75C1194.98 1789.11 1190.81 1788.16 1187.36 1786.61C1184.97 1785.54 1185.53 1781.95 1187.61 1780.35C1188.15 1779.94 1188.68 1779.5 1189.2 1779.03C1190.8 1777.61 1194.29 1779.31 1196.37 1779.82C1196.61 1779.88 1196.67 1779.91 1196.88 1780.03C1198.17 1780.76 1200.06 1782.38 1200.54 1784.66C1200.82 1786 1199.93 1787.27 1198.65 1787.75Z" fill="#022615"/>
<path d="M1223.5 1723.5C1224 1722.5 1225.5 1718.5 1224 1711C1226 1711.67 1230.7 1713.4 1233.5 1715C1236.3 1716.6 1237.33 1722.33 1237.5 1725C1237.33 1726.5 1236.3 1728.7 1233.5 1725.5C1230 1721.5 1223 1724.5 1223.5 1723.5Z" fill="#022615"/>
<ellipse cx="1211" cy="1715.5" rx="6" ry="5.5" fill="#022615"/>
<ellipse cx="1175" cy="1715.5" rx="6" ry="5.5" fill="#022615"/>
<ellipse cx="1161.16" cy="1759.61" rx="5" ry="6" transform="rotate(-26.6944 1161.16 1759.61)" fill="#022615"/>
<ellipse cx="1181.16" cy="1771.61" rx="5" ry="6" transform="rotate(-26.6944 1181.16 1771.61)" fill="#022615"/>
<ellipse cx="1161.16" cy="1735.61" rx="5" ry="6" transform="rotate(-26.6944 1161.16 1735.61)" fill="#022615"/>
<ellipse cx="1181.16" cy="1747.61" rx="5" ry="6" transform="rotate(-26.6944 1181.16 1747.61)" fill="#022615"/>
<ellipse cx="1202.17" cy="1749.55" rx="3.71751" ry="6" transform="rotate(30.2107 1202.17 1749.55)" fill="#022615"/>
<ellipse cx="1203.06" cy="1771.53" rx="3.71751" ry="6" transform="rotate(30.2107 1203.06 1771.53)" fill="#022615"/>
<ellipse cx="1213.91" cy="1743.07" rx="3.71751" ry="6" transform="rotate(30.2107 1213.91 1743.07)" fill="#022615"/>
<ellipse cx="1214.81" cy="1765.05" rx="3.71751" ry="6" transform="rotate(30.2107 1214.81 1765.05)" fill="#022615"/>
<ellipse cx="1225.66" cy="1736.58" rx="3.71751" ry="6" transform="rotate(30.2107 1225.66 1736.58)" fill="#022615"/>
<ellipse cx="1226.55" cy="1758.57" rx="3.71751" ry="6" transform="rotate(30.2107 1226.55 1758.57)" fill="#022615"/>
<path d="M1051 1836C1051.67 1825.33 1048 1800.2 1028 1785C1051 1792 1067 1814 1068 1824C1062 1784 1057 1760 1038 1744C1069 1768 1083 1795 1087 1824C1087 1794 1102 1776 1114 1771C1104.5 1790 1098 1817 1109 1836" stroke="#022615" stroke-width="4"/>
<path d="M1051 1836C1051.67 1825.33 1048 1800.2 1028 1785C1051 1792 1067 1814 1068 1824C1062 1784 1057 1760 1038 1744C1069 1768 1083 1795 1087 1824C1087 1794 1102 1776 1114 1771C1104.5 1790 1098 1817 1109 1836" stroke="#022615" stroke-width="4"/>
<path d="M392.942 5443C389 5435.57 385.558 5419.42 403 5410C384 5416 378.372 5429.37 377.5 5435.57C377.5 5416.5 376.372 5397.91 392.942 5388C365.907 5402.87 364.488 5425.03 361 5443" stroke="#022615" stroke-width="4"/>
<path d="M1329.94 4720C1326 4712.57 1322.56 4696.42 1340 4687C1321 4693 1315.37 4706.37 1314.5 4712.57C1314.5 4693.5 1313.37 4674.91 1329.94 4665C1302.91 4679.87 1301.49 4702.03 1298 4720" stroke="#022615" stroke-width="4"/>
<path d="M192.714 5664C195.068 5647.21 186.5 5638 173 5629C181.5 5643.5 178.982 5649.22 178.982 5654.93C176.628 5645.87 164.465 5628.4 144.062 5619C162.111 5635.79 163.68 5648.55 163.68 5653.93C153.479 5645.87 148.378 5642.51 137 5640.83C155.833 5651.91 150.732 5659.97 148.77 5664" stroke="#022615" stroke-width="4"/>
<path d="M300 13785.9C300 13778 304.5 13767 315.5 13758.5C310 13758.5 291.5 13765.1 288.5 13774.5C291.5 13757.9 298 13743.3 307 13736C288.5 13742.6 274 13764.8 271.5 13780C271.5 13762.7 267 13754 259 13745C259 13759.9 260 13779.7 253 13788" stroke="#022615" stroke-width="4"/>
<path d="M147 13688.9C150.094 13687.1 153.906 13687.1 157 13688.9L190.301 13708.1C193.395 13709.9 195.301 13713.2 195.301 13716.8V13755.2C195.301 13758.8 193.395 13762.1 190.301 13763.9L157 13783.1C153.906 13784.9 150.094 13784.9 147 13783.1L113.699 13763.9C110.605 13762.1 108.699 13758.8 108.699 13755.2V13716.8C108.699 13713.2 110.605 13709.9 113.699 13708.1L147 13688.9Z" fill="white" stroke="#022615" stroke-width="4"/>
<path d="M152 13741.8V13768.6C152 13776.3 160.36 13781.1 167.026 13777.3L190.026 13763.9C193.105 13762.1 195 13758.8 195 13755.2V13728.4C195 13720.7 186.64 13715.9 179.974 13719.7L156.974 13733.1C153.895 13734.9 152 13738.2 152 13741.8Z" fill="#C0DCCF" stroke="#022615" stroke-width="4"/>
<path d="M152 13741.8V13768.6C152 13776.3 143.64 13781.1 136.974 13777.3L113.974 13763.9C110.895 13762.1 109 13758.8 109 13755.2V13728.4C109 13720.7 117.36 13715.9 124.026 13719.7L147.026 13733.1C150.105 13734.9 152 13738.2 152 13741.8Z" fill="#C0DCCF" stroke="#022615" stroke-width="4"/>
<path d="M146.895 13732.9L124.023 13719.7C117.351 13715.9 117.357 13706.2 124.034 13702.4L146.827 13689.3C149.92 13687.5 153.726 13687.5 156.816 13689.3L179.688 13702.5C186.36 13706.3 186.354 13716 179.677 13719.8L156.884 13732.9C153.792 13734.7 149.985 13734.7 146.895 13732.9Z" stroke="#022615" stroke-width="4"/>
<path d="M107.623 13717.4C108.277 13713.5 111.183 13710.4 114.25 13708.2C116.377 13706.6 119.207 13708.9 119.546 13711.5C119.633 13712.2 119.752 13712.9 119.894 13713.5C120.33 13715.6 117.112 13717.8 115.624 13719.4C115.458 13719.5 115.4 13719.6 115.193 13719.7C113.911 13720.4 111.566 13721.3 109.353 13720.5C108.052 13720.1 107.394 13718.7 107.623 13717.4Z" fill="#022615"/>
<path d="M157.647 13782.7C153.978 13784.1 149.813 13783.2 146.361 13781.6C143.967 13780.5 144.527 13776.9 146.611 13775.4C147.151 13774.9 147.679 13774.5 148.199 13774C149.801 13772.6 153.291 13774.3 155.374 13774.8C155.606 13774.9 155.668 13774.9 155.876 13775C157.169 13775.8 159.056 13777.4 159.538 13779.7C159.822 13781 158.929 13782.3 157.647 13782.7Z" fill="#022615"/>
<path d="M182.5 13718.5C183 13717.5 184.5 13713.5 183 13706C185 13706.7 189.7 13708.4 192.5 13710C195.3 13711.6 196.333 13717.3 196.5 13720C196.333 13721.5 195.3 13723.7 192.5 13720.5C189 13716.5 182 13719.5 182.5 13718.5Z" fill="#022615"/>
<ellipse cx="152" cy="13699.5" rx="6" ry="5.5" fill="#022615"/>
<ellipse cx="170" cy="13710.5" rx="6" ry="5.5" fill="#022615"/>
<ellipse cx="134" cy="13710.5" rx="6" ry="5.5" fill="#022615"/>
<ellipse cx="152" cy="13721.5" rx="6" ry="5.5" fill="#022615"/>
<ellipse cx="120.162" cy="13754.6" rx="5" ry="6" transform="rotate(-26.6944 120.162 13754.6)" fill="#022615"/>
<ellipse cx="140.162" cy="13743.6" rx="5" ry="6" transform="rotate(-26.6944 140.162 13743.6)" fill="#022615"/>
<ellipse cx="174.361" cy="13749.1" rx="3.71751" ry="6" transform="rotate(32.5436 174.361 13749.1)" fill="#022615"/>
<ellipse cx="152" cy="13721.5" rx="6" ry="5.5" fill="#022615"/>
<path d="M226 13756.9C229.094 13755.1 232.906 13755.1 236 13756.9L269.301 13776.1C272.395 13777.9 274.301 13781.2 274.301 13784.8V13823.2C274.301 13826.8 272.395 13830.1 269.301 13831.9L236 13851.1C232.906 13852.9 229.094 13852.9 226 13851.1L192.699 13831.9C189.605 13830.1 187.699 13826.8 187.699 13823.2V13784.8C187.699 13781.2 189.605 13777.9 192.699 13776.1L226 13756.9Z" fill="white" stroke="#022615" stroke-width="4"/>
<path d="M231 13809.8V13836.6C231 13844.3 239.36 13849.1 246.026 13845.3L269.026 13831.9C272.105 13830.1 274 13826.8 274 13823.2V13796.4C274 13788.7 265.64 13783.9 258.974 13787.7L235.974 13801.1C232.895 13802.9 231 13806.2 231 13809.8Z" fill="#C0DCCF" stroke="#022615" stroke-width="4"/>
<path d="M231 13809.8V13836.6C231 13844.3 222.64 13849.1 215.974 13845.3L192.974 13831.9C189.895 13830.1 188 13826.8 188 13823.2V13796.4C188 13788.7 196.36 13783.9 203.026 13787.7L226.026 13801.1C229.105 13802.9 231 13806.2 231 13809.8Z" fill="#C0DCCF" stroke="#022615" stroke-width="4"/>
<path d="M225.895 13800.9L203.023 13787.7C196.351 13783.9 196.357 13774.2 203.034 13770.4L225.827 13757.3C228.92 13755.5 232.726 13755.5 235.816 13757.3L258.688 13770.5C265.36 13774.3 265.354 13784 258.677 13787.8L235.884 13800.9C232.792 13802.7 228.985 13802.7 225.895 13800.9Z" stroke="#022615" stroke-width="4"/>
<path d="M186.623 13785.4C187.277 13781.5 190.183 13778.4 193.25 13776.2C195.377 13774.6 198.207 13776.9 198.546 13779.5C198.633 13780.2 198.752 13780.9 198.894 13781.5C199.33 13783.6 196.112 13785.8 194.624 13787.4C194.458 13787.5 194.4 13787.6 194.193 13787.7C192.911 13788.4 190.566 13789.3 188.353 13788.5C187.052 13788.1 186.394 13786.7 186.623 13785.4Z" fill="#022615"/>
<path d="M236.647 13850.7C232.978 13852.1 228.813 13851.2 225.361 13849.6C222.967 13848.5 223.527 13844.9 225.611 13843.4C226.151 13842.9 226.679 13842.5 227.199 13842C228.801 13840.6 232.291 13842.3 234.374 13842.8C234.606 13842.9 234.668 13842.9 234.876 13843C236.169 13843.8 238.056 13845.4 238.538 13847.7C238.822 13849 237.929 13850.3 236.647 13850.7Z" fill="#022615"/>
<path d="M261.5 13786.5C262 13785.5 263.5 13781.5 262 13774C264 13774.7 268.7 13776.4 271.5 13778C274.3 13779.6 275.333 13785.3 275.5 13788C275.333 13789.5 274.3 13791.7 271.5 13788.5C268 13784.5 261 13787.5 261.5 13786.5Z" fill="#022615"/>
<ellipse cx="249" cy="13778.5" rx="6" ry="5.5" fill="#022615"/>
<ellipse cx="213" cy="13778.5" rx="6" ry="5.5" fill="#022615"/>
<ellipse cx="199.162" cy="13822.6" rx="5" ry="6" transform="rotate(-26.6944 199.162 13822.6)" fill="#022615"/>
<ellipse cx="219.162" cy="13834.6" rx="5" ry="6" transform="rotate(-26.6944 219.162 13834.6)" fill="#022615"/>
<ellipse cx="199.162" cy="13798.6" rx="5" ry="6" transform="rotate(-26.6944 199.162 13798.6)" fill="#022615"/>
<ellipse cx="219.162" cy="13810.6" rx="5" ry="6" transform="rotate(-26.6944 219.162 13810.6)" fill="#022615"/>
<ellipse cx="240.168" cy="13812.5" rx="3.71751" ry="6" transform="rotate(30.2107 240.168 13812.5)" fill="#022615"/>
<ellipse cx="241.063" cy="13834.5" rx="3.71751" ry="6" transform="rotate(30.2107 241.063 13834.5)" fill="#022615"/>
<ellipse cx="251.914" cy="13806.1" rx="3.71751" ry="6" transform="rotate(30.2107 251.914 13806.1)" fill="#022615"/>
<ellipse cx="252.809" cy="13828" rx="3.71751" ry="6" transform="rotate(30.2107 252.809 13828)" fill="#022615"/>
<ellipse cx="263.66" cy="13799.6" rx="3.71751" ry="6" transform="rotate(30.2107 263.66 13799.6)" fill="#022615"/>
<ellipse cx="264.555" cy="13821.6" rx="3.71751" ry="6" transform="rotate(30.2107 264.555 13821.6)" fill="#022615"/>
<path d="M89 13899C89.6667 13888.3 86 13863.2 66 13848C89 13855 105 13877 106 13887C100 13847 95 13823 76 13807C107 13831 121 13858 125 13887C125 13857 140 13839 152 13834C142.5 13853 136 13880 147 13899" stroke="#022615" stroke-width="4"/>
<path d="M89 13899C89.6667 13888.3 86 13863.2 66 13848C89 13855 105 13877 106 13887C100 13847 95 13823 76 13807C107 13831 121 13858 125 13887C125 13857 140 13839 152 13834C142.5 13853 136 13880 147 13899" stroke="#022615" stroke-width="4"/>
<path d="M1249.5 12025L1102 12110.5L1313 12233L1461 12146.5L1249.5 12025Z" fill="#C0DCCF" stroke="#022615" stroke-width="4"/>
<path d="M1249.5 12016L1102 12101.5L1313 12224L1461 12137.5L1249.5 12016Z" fill="#C0DCCF" stroke="#022615" stroke-width="4"/>
<path d="M1249.5 12007L1102 12092.5L1313 12215L1461 12128.5L1249.5 12007Z" fill="#C0DCCF" stroke="#022615" stroke-width="4"/>
<path d="M1249.5 11999L1102 12084.5L1313 12207L1461 12120.5L1249.5 11999Z" fill="white" stroke="#022615" stroke-width="4"/>
<path d="M1249.5 11999L1102 12084.5L1313 12207L1461 12120.5L1249.5 11999Z" fill="white" stroke="#022615" stroke-width="4"/>
<path d="M1251 12007L1116 12084.5L1313 12198L1447.5 12120.5L1251 12007Z" fill="white" stroke="#022615" stroke-width="4"/>
<path d="M1251.5 12014.5L1129 12084.5L1169.5 12107.5L1292.5 12038L1251.5 12014.5Z" fill="#412260" stroke="#022615" stroke-width="4"/>
<path d="M1296.5 12063L1216 12109L1313.48 12168L1396 12120.4L1296.5 12063Z" fill="#C0DCCF"/>
<path d="M1395.94 11999C1392 11991.6 1388.56 11975.4 1406 11966C1387 11972 1381.37 11985.4 1380.5 11991.6C1380.5 11972.5 1379.37 11953.9 1395.94 11944C1368.91 11958.9 1367.49 11981 1364 11999" stroke="#022615" stroke-width="4"/>
<path d="M1195.71 12220C1198.07 12203.2 1189.5 12194 1176 12185C1184.5 12199.5 1181.98 12205.2 1181.98 12210.9C1179.63 12201.9 1167.46 12184.4 1147.06 12175C1165.11 12191.8 1166.68 12204.6 1166.68 12209.9C1156.48 12201.9 1151.38 12198.5 1140 12196.8C1158.83 12207.9 1153.73 12216 1151.77 12220" stroke="#022615" stroke-width="4"/>
<path d="M1199 10353.5C1200.5 10342 1201.44 10323.1 1184 10314.4C1203 10320 1211.13 10333.3 1212 10339C1212 10321.3 1210.63 10303.2 1194.06 10294C1221.09 10307.8 1226.51 10330.3 1230 10347" stroke="#022615" stroke-width="4"/>
<g filter="url(#filter0_d_1678_1264)">
<path d="M1142.81 10436.6L1159.25 10426.7C1168.05 10421.4 1175.91 10418.2 1182.83 10417C1189.93 10415.8 1196.45 10415.7 1202.4 10416.7C1208.65 10417.8 1214.77 10419.1 1220.78 10420.5C1229.1 10422.7 1237.07 10424 1244.7 10424.5C1252.32 10425 1260.17 10422.8 1268.25 10417.9C1273.82 10414.6 1277.79 10410.5 1280.15 10405.6C1282.69 10400.6 1283.72 10395.5 1283.23 10390.2C1282.85 10385.2 1281.13 10380.5 1278.07 10376.4C1272.29 10368.6 1264.8 10363.8 1255.58 10362.2C1246.65 10360.7 1237.68 10361 1228.67 10363.2L1224.06 10336.9C1228.66 10335.7 1234.32 10335 1241.06 10334.6C1247.79 10334.3 1254.94 10334.8 1262.49 10336.3C1270.17 10337.9 1277.68 10340.9 1285.03 10345.2C1292.38 10349.6 1299 10355.7 1304.89 10363.7C1311.49 10372.7 1315.47 10381.9 1316.82 10391.5C1318.46 10401.1 1317.05 10410.3 1312.57 10419C1308.2 10427.8 1300.46 10435.6 1289.32 10442.3C1280.52 10447.6 1272.33 10450.9 1264.75 10452.2C1257.35 10453.4 1250.2 10453.6 1243.3 10452.7C1236.51 10451.9 1229.67 10450.7 1222.78 10449.1C1217.19 10447.8 1211.77 10446.8 1206.54 10446C1201.3 10445.3 1195.85 10445.4 1190.18 10446.5C1184.69 10447.5 1178.35 10450.2 1171.17 10454.5L1160.66 10460.8L1142.81 10436.6ZM1101.71 10479C1098.41 10474.5 1097.05 10470 1097.62 10465.5C1098.49 10461.1 1101.17 10457.5 1105.66 10454.8C1109.97 10452.2 1114.63 10451.5 1119.62 10452.6C1124.8 10453.7 1128.97 10456.4 1132.16 10460.7C1135.34 10465 1136.4 10469.4 1135.35 10474C1134.6 10478.6 1132.07 10482.2 1127.76 10484.8C1123.27 10487.5 1118.58 10488.3 1113.7 10487.3C1109.01 10486.2 1105.01 10483.5 1101.71 10479Z" fill="#CB0000"/>
<path d="M1141.78 10434.9L1139.9 10436L1141.2 10437.8L1159.05 10462L1160.13 10463.5L1161.69 10462.5L1172.2 10456.2C1179.27 10452 1185.37 10449.4 1190.54 10448.5L1190.55 10448.5L1190.56 10448.5C1196.03 10447.4 1201.25 10447.3 1206.25 10448C1211.43 10448.8 1216.79 10449.8 1222.33 10451C1229.29 10452.7 1236.2 10453.9 1243.06 10454.6C1250.16 10455.6 1257.51 10455.4 1265.08 10454.2L1265.09 10454.2L1265.1 10454.2C1272.98 10452.8 1281.4 10449.4 1290.35 10444C1301.71 10437.2 1309.77 10429.1 1314.35 10419.9C1319.02 10410.8 1320.5 10401.2 1318.79 10391.2C1317.38 10381.3 1313.26 10371.7 1306.5 10362.5C1300.48 10354.4 1293.66 10348 1286.05 10343.5C1278.52 10339 1270.81 10336 1262.91 10334.3L1262.89 10334.3L1262.87 10334.3C1255.18 10332.8 1247.87 10332.3 1240.95 10332.6C1234.14 10333 1228.34 10333.8 1223.58 10335L1221.77 10335.4L1222.09 10337.2L1226.7 10363.5L1227.07 10365.6L1229.14 10365.1C1237.9 10363 1246.59 10362.7 1255.23 10364.2C1263.93 10365.7 1270.98 10370.1 1276.46 10377.6C1279.3 10381.4 1280.88 10385.7 1281.23 10390.4L1281.23 10390.4L1281.23 10390.4C1281.69 10395.3 1280.75 10400 1278.37 10404.7L1278.36 10404.7L1278.35 10404.7C1276.19 10409.2 1272.52 10413 1267.22 10416.2C1259.4 10420.9 1251.95 10422.9 1244.82 10422.5C1237.34 10422 1229.49 10420.7 1221.28 10418.6L1221.27 10418.6L1221.25 10418.6C1215.2 10417.1 1209.03 10415.8 1202.74 10414.7C1196.53 10413.6 1189.77 10413.8 1182.49 10415.1C1175.23 10416.3 1167.14 10419.7 1158.21 10425L1141.78 10434.9ZM1095.66 10465.1L1095.65 10465.2L1095.64 10465.3C1094.98 10470.4 1096.57 10475.4 1100.1 10480.2C1103.64 10485 1108.02 10488.1 1113.25 10489.3L1113.28 10489.3L1113.31 10489.3C1118.7 10490.4 1123.89 10489.4 1128.79 10486.5C1133.54 10483.6 1136.45 10479.6 1137.32 10474.4C1138.49 10469.2 1137.22 10464.2 1133.77 10459.5C1130.3 10454.8 1125.7 10451.8 1120.04 10450.7C1114.56 10449.4 1109.39 10450.2 1104.63 10453.1C1099.74 10456 1096.66 10460 1095.66 10465.1Z" stroke="#022615" stroke-width="4"/>
</g>
<path d="M1298.5 10451.5C1287.5 10460 1283 10471 1283 10478.9L1236 10481C1243 10472.7 1242 10452.9 1242 10438C1250 10447 1254.5 10455.7 1254.5 10473C1257 10457.8 1271.5 10435.6 1290 10429C1281 10436.3 1274.5 10450.9 1271.5 10467.5C1274.5 10458.1 1293 10451.5 1298.5 10451.5Z" fill="#10633B"/>
<path d="M1283 10476.9C1283 10469 1287.5 10458 1298.5 10449.5C1293 10449.5 1274.5 10456.1 1271.5 10465.5C1274.5 10448.9 1281 10434.3 1290 10427C1271.5 10433.6 1257 10455.8 1254.5 10471C1254.5 10453.7 1250 10445 1242 10436C1242 10450.9 1243 10470.7 1236 10479" stroke="#022615" stroke-width="4"/>
<path d="M1048.94 9573C1045 9565.97 1041.56 9550.7 1059 9541.8C1040 9547.47 1034.37 9560.11 1033.5 9565.97C1033.5 9547.95 1032.37 9530.37 1048.94 9521C1021.91 9535.06 1020.49 9556.01 1017 9573" stroke="#022615" stroke-width="4"/>
<path d="M1325.39 16938.2C1325.39 16931.5 1321.5 16922.2 1312 16915C1316.75 16915 1332.74 16920.7 1335.33 16928.6C1332.74 16914.5 1327.12 16902.2 1319.34 16896C1335.33 16901.6 1347.86 16920.3 1350.02 16933.3C1350.02 16918.6 1353.9 16911.3 1360.82 16903.6C1360.82 16916.2 1359.95 16933 1366 16940" stroke="#022615" stroke-width="4"/>
<path d="M996 17146L847 17059.5L1110.5 16908L1259 16994L996 17146Z" fill="#63917B" stroke="#022615" stroke-width="4"/>
<path d="M996 17136L847 17049.5L1110.5 16898L1259 16984L996 17136Z" fill="#63917B" stroke="#022615" stroke-width="4"/>
<path d="M996 17126L847 17039.5L1110.5 16888L1259 16974L996 17126Z" fill="#C0DCCF" stroke="#022615" stroke-width="4"/>
<path d="M995.999 17109.7L874.082 17039.5L1111.97 16904.8L1231.51 16974L995.999 17109.7Z" stroke="#26895A" stroke-opacity="0.4" stroke-width="10"/>
<path d="M995 17097L893.5 17039.5L1112 16918L1210 16974L995 17097Z" fill="#26895A" fill-opacity="0.4"/>
<ellipse cx="1055.4" cy="17005.6" rx="61.0163" ry="40.3669" transform="rotate(-7.0561 1055.4 17005.6)" fill="#C0DCCF"/>
<path d="M1040.58 17126C1041.06 17118.3 1038.42 17100.3 1024 17089.4C1039.95 17094.2 1051.22 17109 1052.71 17116.5C1048.44 17088.4 1044.77 17071.4 1031.21 17060C1053.56 17077.2 1063.65 17096.6 1066.53 17117.4C1066.53 17095.9 1077.35 17083 1086 17079.4C1079.15 17093 1074.47 17112.4 1082.4 17126H1040.58Z" fill="#10633B"/>
<path d="M1040.58 17129C1041.06 17121.3 1038.42 17103.3 1024 17092.4C1040.58 17097.4 1052.12 17113.2 1052.84 17120.4C1048.51 17091.7 1044.91 17074.5 1031.21 17063C1053.56 17080.2 1063.65 17099.6 1066.53 17120.4C1066.53 17098.9 1077.35 17086 1086 17082.4C1079.15 17096 1074.47 17115.4 1082.4 17129" stroke="#022615" stroke-width="4"/>
<path d="M1185 17255L1036 17168.5L1299.5 17017L1448 17103L1185 17255Z" fill="#E0A5B3" stroke="#022615" stroke-width="4"/>
<path d="M1185 17245L1036 17158.5L1299.5 17007L1448 17093L1185 17245Z" fill="#E0A5B3" stroke="#022615" stroke-width="4"/>
<path d="M1185 17235L1036 17148.5L1299.5 16997L1448 17083L1185 17235Z" fill="#FFD2DD" stroke="#022615" stroke-width="4"/>
<path d="M1185 17218.7L1063.08 17148.5L1300.97 17013.8L1420.51 17083L1185 17218.7Z" stroke="#26895A" stroke-opacity="0.4" stroke-width="10"/>
<path d="M1184 17206L1082.5 17148.5L1301 17027L1399 17083L1184 17206Z" fill="#26895A" fill-opacity="0.4"/>
<ellipse cx="1244.4" cy="17114.6" rx="61.0163" ry="40.3669" transform="rotate(-7.0561 1244.4 17114.6)" fill="#FFD2DD"/>
<path d="M1399 17124C1381.56 17133.4 1385 17149.6 1388.94 17157H1357C1360.49 17139 1361.91 17116.9 1388.94 17102C1372.37 17111.9 1373.5 17130.5 1373.5 17149.6C1374.37 17143.4 1380 17130 1399 17124Z" fill="#10633B"/>
<path d="M1388.94 17157C1385 17149.6 1381.56 17133.4 1399 17124C1380 17130 1374.37 17143.4 1373.5 17149.6C1373.5 17130.5 1372.37 17111.9 1388.94 17102C1361.91 17116.9 1360.49 17139 1357 17157" stroke="#022615" stroke-width="4"/>
<path d="M1259 17353.6C1273.12 17360.3 1270.33 17371.7 1267.14 17377H1293C1290.18 17364.3 1289.03 17348.5 1267.14 17338C1280.56 17345 1279.64 17358.2 1279.64 17371.7C1278.94 17367.3 1274.38 17357.9 1259 17353.6Z" fill="#10633B"/>
<path d="M1267.14 17377C1270.33 17371.7 1273.12 17360.3 1259 17353.6C1274.38 17357.9 1278.94 17367.3 1279.64 17371.7C1279.64 17358.2 1280.56 17345 1267.14 17338C1289.03 17348.5 1290.18 17364.3 1293 17377" stroke="#022615" stroke-width="4"/>
<path d="M1372 17368L1223 17281.5L1486.5 17130L1635 17216L1372 17368Z" fill="#5F8CA7" stroke="#022615" stroke-width="4"/>
<path d="M1372 17358L1223 17271.5L1486.5 17120L1635 17206L1372 17358Z" fill="#5F8CA7" stroke="#022615" stroke-width="4"/>
<path d="M1372 17348L1223 17261.5L1486.5 17110L1635 17196L1372 17348Z" fill="#CDECFF" stroke="#022615" stroke-width="4"/>
<path d="M1372 17331.7L1250.08 17261.5L1487.97 17126.8L1607.51 17196L1372 17331.7Z" stroke="#26895A" stroke-opacity="0.4" stroke-width="10"/>
<path d="M1371 17319L1269.5 17261.5L1488 17140L1586 17196L1371 17319Z" fill="#26895A" fill-opacity="0.4"/>
<ellipse cx="1431.4" cy="17227.6" rx="61.0163" ry="40.3669" transform="rotate(-7.0561 1431.4 17227.6)" fill="#CDECFF"/>
<path d="M1168 20234.6C1153.88 20241.3 1156.67 20252.7 1159.86 20258H1134C1136.82 20245.3 1137.97 20229.5 1159.86 20219C1146.44 20226 1147.36 20239.2 1147.36 20252.7C1148.06 20248.3 1152.62 20238.9 1168 20234.6Z" fill="#10633B"/>
<path d="M1159.86 20258C1156.67 20252.7 1153.88 20241.3 1168 20234.6C1152.62 20238.9 1148.06 20248.3 1147.36 20252.7C1147.36 20239.2 1146.44 20226 1159.86 20219C1137.97 20229.5 1136.82 20245.3 1134 20258" stroke="#022615" stroke-width="4"/>
<path d="M607 15411.4C621.12 15416.7 618.333 15425.8 615.142 15430H641C638.176 15419.9 637.028 15407.4 615.142 15399C628.556 15404.6 627.643 15415.1 627.643 15425.8C626.937 15422.3 622.381 15414.8 607 15411.4Z" fill="#10633B"/>
<path d="M615.142 15430C618.333 15425.8 621.12 15416.7 607 15411.4C622.381 15414.8 626.937 15422.3 627.643 15425.8C627.643 15415.1 628.556 15404.6 615.142 15399C637.028 15407.4 638.176 15419.9 641 15430" stroke="#022615" stroke-width="4"/>
<path d="M926 15515.4C911.88 15520.7 914.667 15529.8 917.858 15534H892C894.824 15523.9 895.972 15511.4 917.858 15503C904.444 15508.6 905.357 15519.1 905.357 15529.8C906.063 15526.3 910.619 15518.8 926 15515.4Z" fill="#10633B"/>
<path d="M917.858 15534C914.667 15529.8 911.88 15520.7 926 15515.4C910.619 15518.8 906.063 15526.3 905.357 15529.8C905.357 15519.1 904.444 15508.6 917.858 15503C895.972 15511.4 894.824 15523.9 892 15534" stroke="#022615" stroke-width="4"/>
<path d="M149 20278.6C163.12 20285.3 160.333 20296.7 157.142 20302H183C180.176 20289.3 179.028 20273.5 157.142 20263C170.556 20270 169.643 20283.2 169.643 20296.7C168.937 20292.3 164.381 20282.9 149 20278.6Z" fill="#10633B"/>
<path d="M157.142 20302C160.333 20296.7 163.12 20285.3 149 20278.6C164.381 20282.9 168.937 20292.3 169.643 20296.7C169.643 20283.2 170.556 20270 157.142 20263C179.028 20273.5 180.176 20289.3 183 20302" stroke="#022615" stroke-width="4"/>
<path d="M592.864 16269C592.864 16261.6 596.968 16251.2 607 16243.2C601.984 16243.2 585.112 16249.5 582.376 16258.3C585.112 16242.6 591.04 16228.9 599.248 16222C582.376 16228.2 569.152 16249.1 566.872 16263.5C566.872 16247.2 562.768 16239 555.472 16230.5C555.472 16244.5 556.384 16263.2 550 16271" stroke="#022615" stroke-width="4"/>
<path d="M94 7985L243 7898.5L-20.5 7747L-169 7833L94 7985Z" fill="#B6A759" stroke="#022615" stroke-width="4"/>
<path d="M94 7975L243 7888.5L-20.5 7737L-169 7823L94 7975Z" fill="#B6A759" stroke="#022615" stroke-width="4"/>
<path d="M94 7965L243 7878.5L-20.5 7727L-169 7813L94 7965Z" fill="#FFF3B5" stroke="#022615" stroke-width="4"/>
<path d="M94.0013 7948.73L215.918 7878.54L-21.9726 7743.76L-141.505 7812.99L94.0013 7948.73Z" stroke="#26895A" stroke-opacity="0.4" stroke-width="10"/>
<path d="M95 7936L196.5 7878.5L-22 7757L-120 7813L95 7936Z" fill="#26895A" fill-opacity="0.4"/>
<ellipse cx="61.0163" cy="40.3669" rx="61.0163" ry="40.3669" transform="matrix(-0.992426 -0.122841 -0.122841 0.992426 100.108 7811.99)" fill="#FFF3B5"/>
<path d="M15 7930.2C34.9336 7940.99 31 7959.48 26.495 7968H63C59.0133 7947.42 57.392 7922.03 26.495 7905C45.4319 7916.35 44.1429 7937.65 44.1429 7959.48C43.1462 7952.39 36.7143 7937.07 15 7930.2Z" fill="#10633B"/>
<path d="M26.495 7968C31 7959.48 34.9336 7940.99 15 7930.2C36.7143 7937.07 43.1462 7952.39 44.1429 7959.48C44.1429 7937.65 45.4319 7916.35 26.495 7905C57.392 7922.03 59.0133 7947.42 63 7968" stroke="#022615" stroke-width="4"/>
<mask id="path-153-inside-1_1678_1264" fill="white">
<path fill-rule="evenodd" clip-rule="evenodd" d="M1085.75 11716.3L1085.75 11668.5L1100.23 11676.8L1192.94 11516.3L1189.12 11501.1L1189.46 11501.3L1200.43 11482.3L1210.36 11465.1L1216.44 11491.6L1216.44 11491.6L1242.39 11483.6L1232.45 11500.8L1221.48 11519.8L1221.82 11520L1204.51 11524.9L1112.66 11684L1127.14 11692.4L1085.75 11716.3Z"/>
</mask>
<path fill-rule="evenodd" clip-rule="evenodd" d="M1085.75 11716.3L1085.75 11668.5L1100.23 11676.8L1192.94 11516.3L1189.12 11501.1L1189.46 11501.3L1200.43 11482.3L1210.36 11465.1L1216.44 11491.6L1216.44 11491.6L1242.39 11483.6L1232.45 11500.8L1221.48 11519.8L1221.82 11520L1204.51 11524.9L1112.66 11684L1127.14 11692.4L1085.75 11716.3Z" fill="#CB0000"/>
<path d="M1085.75 11668.5L1087.75 11665L1081.75 11661.6L1081.75 11668.5L1085.75 11668.5ZM1085.75 11716.3L1081.75 11716.3L1081.75 11723.2L1087.75 11719.7L1085.75 11716.3ZM1100.23 11676.8L1098.23 11680.3L1101.7 11682.3L1103.7 11678.8L1100.23 11676.8ZM1192.94 11516.3L1196.4 11518.3L1197.21 11516.9L1196.82 11515.3L1192.94 11516.3ZM1189.12 11501.1L1191.12 11497.7L1182.93 11492.9L1185.24 11502.1L1189.12 11501.1ZM1189.46 11501.3L1187.46 11504.8L1190.92 11506.8L1192.92 11503.3L1189.46 11501.3ZM1200.43 11482.3L1196.97 11480.3L1200.43 11482.3ZM1210.36 11465.1L1214.26 11464.2L1211.98 11454.3L1206.9 11463.1L1210.36 11465.1ZM1216.44 11491.6L1212.54 11492.5L1212.93 11494.2L1214.44 11495L1216.44 11491.6ZM1216.44 11491.6L1214.44 11495L1215.95 11495.9L1217.62 11495.4L1216.44 11491.6ZM1242.39 11483.6L1245.85 11485.6L1250.94 11476.8L1241.21 11479.8L1242.39 11483.6ZM1232.45 11500.8L1235.92 11502.8L1232.45 11500.8ZM1221.48 11519.8L1218.02 11517.8L1216.02 11521.3L1219.48 11523.3L1221.48 11519.8ZM1221.82 11520L1222.92 11523.9L1232.01 11521.3L1223.82 11516.5L1221.82 11520ZM1204.51 11524.9L1203.42 11521.1L1201.86 11521.5L1201.05 11522.9L1204.51 11524.9ZM1112.66 11684L1109.2 11682L1107.2 11685.5L1110.66 11687.5L1112.66 11684ZM1127.14 11692.4L1129.14 11695.8L1135.14 11692.4L1129.14 11688.9L1127.14 11692.4ZM1081.75 11668.5L1081.75 11716.3L1089.75 11716.3L1089.75 11668.5L1081.75 11668.5ZM1102.23 11673.4L1087.75 11665L1083.75 11671.9L1098.23 11680.3L1102.23 11673.4ZM1189.47 11514.3L1096.77 11674.8L1103.7 11678.8L1196.4 11518.3L1189.47 11514.3ZM1185.24 11502.1L1189.06 11517.3L1196.82 11515.3L1193 11500.2L1185.24 11502.1ZM1191.46 11497.9L1191.12 11497.7L1187.12 11504.6L1187.46 11504.8L1191.46 11497.9ZM1192.92 11503.3L1203.89 11484.3L1196.97 11480.3L1186 11499.3L1192.92 11503.3ZM1206.9 11463.1L1196.97 11480.3L1203.89 11484.3L1213.83 11467.1L1206.9 11463.1ZM1220.34 11490.7L1214.26 11464.2L1206.47 11466L1212.54 11492.5L1220.34 11490.7ZM1214.44 11495L1214.44 11495L1218.44 11488.1L1218.44 11488.1L1214.44 11495ZM1217.62 11495.4L1243.56 11487.4L1241.21 11479.8L1215.27 11487.7L1217.62 11495.4ZM1238.92 11481.6L1228.99 11498.8L1235.92 11502.8L1245.85 11485.6L1238.92 11481.6ZM1228.99 11498.8L1218.02 11517.8L1224.95 11521.8L1235.92 11502.8L1228.99 11498.8ZM1223.82 11516.5L1223.48 11516.3L1219.48 11523.3L1219.82 11523.5L1223.82 11516.5ZM1205.6 11528.8L1222.92 11523.9L1220.73 11516.2L1203.42 11521.1L1205.6 11528.8ZM1116.12 11686L1207.98 11526.9L1201.05 11522.9L1109.2 11682L1116.12 11686ZM1129.14 11688.9L1114.66 11680.6L1110.66 11687.5L1125.14 11695.8L1129.14 11688.9ZM1087.75 11719.7L1129.14 11695.8L1125.14 11688.9L1083.75 11712.8L1087.75 11719.7Z" fill="#022615" mask="url(#path-153-inside-1_1678_1264)"/>
<path d="M1125.79 11589.4C1126.01 11590.6 1125.98 11592.2 1125.72 11594.2C1125.48 11596.1 1125.05 11598.1 1124.41 11600.2C1123.74 11602.3 1122.93 11604.2 1121.98 11605.8C1119.36 11610.4 1116.18 11613.8 1112.46 11616.1C1108.69 11618.3 1104.71 11619.5 1100.51 11619.5C1096.33 11619.5 1092.25 11618.3 1088.25 11616C1084.6 11613.9 1081.7 11611.5 1079.53 11608.7C1077.39 11605.9 1075.95 11603 1075.2 11599.8C1074.46 11596.7 1074.34 11593.5 1074.86 11590.4C1075.35 11587.1 1076.45 11584.1 1078.15 11581.1C1079.62 11578.6 1081.27 11576.4 1083.1 11574.6C1084.94 11572.8 1086.77 11571.3 1088.6 11570.2L1093.11 11575.6C1092.19 11576.1 1091.19 11576.8 1090.12 11577.8C1089.03 11578.7 1088.01 11579.7 1087.05 11580.8C1086.11 11581.9 1085.35 11582.9 1084.76 11583.9C1082.86 11587.2 1081.86 11590.5 1081.75 11593.6C1081.64 11596.8 1082.39 11599.8 1084.02 11602.5C1085.64 11605.2 1088.09 11607.5 1091.39 11609.4C1094.4 11611.1 1097.45 11612 1100.53 11612C1103.6 11611.9 1106.47 11611.1 1109.14 11609.4C1111.84 11607.8 1114.1 11605.3 1115.94 11602.2C1116.75 11600.8 1117.41 11599.3 1117.9 11597.8C1118.42 11596.3 1118.67 11594.9 1118.67 11593.6L1110.79 11589.1L1106.01 11597.4L1100.07 11593.9L1108.45 11579.4L1125.79 11589.4ZM1112.92 11571.3C1109.98 11569.6 1107.52 11567.4 1105.52 11564.8C1103.55 11562.1 1102.15 11559.2 1101.3 11556.1C1100.42 11552.9 1100.17 11549.7 1100.55 11546.4C1100.89 11543.1 1101.92 11540 1103.64 11537C1105.36 11534 1107.56 11531.5 1110.25 11529.6C1112.93 11527.6 1115.86 11526.2 1119.05 11525.3C1122.23 11524.5 1125.46 11524.2 1128.74 11524.6C1132.02 11525 1135.13 11526 1138.07 11527.7C1141.09 11529.4 1143.58 11531.6 1145.55 11534.3C1147.52 11537 1148.92 11539.9 1149.74 11543.1C1150.59 11546.2 1150.81 11549.5 1150.41 11552.8C1149.99 11556 1148.92 11559.2 1147.2 11562.1C1145.48 11565.1 1143.31 11567.6 1140.7 11569.6C1138.05 11571.6 1135.16 11573 1132.05 11573.8C1128.94 11574.7 1125.74 11575 1122.46 11574.6C1119.16 11574.1 1115.98 11573 1112.92 11571.3ZM1116.65 11565C1119.55 11566.6 1122.59 11567.5 1125.77 11567.5C1128.95 11567.5 1131.93 11566.7 1134.7 11565.2C1137.47 11563.6 1139.69 11561.4 1141.36 11558.5C1143.01 11555.7 1143.8 11552.7 1143.73 11549.5C1143.65 11546.4 1142.81 11543.5 1141.21 11540.7C1139.62 11538 1137.35 11535.8 1134.41 11534.1C1131.47 11532.4 1128.4 11531.5 1125.19 11531.6C1121.97 11531.5 1118.97 11532.3 1116.2 11533.8C1113.46 11535.3 1111.26 11537.5 1109.61 11540.4C1107.93 11543.3 1107.14 11546.3 1107.23 11549.5C1107.31 11552.6 1108.17 11555.6 1109.81 11558.3C1111.43 11561.1 1113.71 11563.3 1116.65 11565Z" fill="#022615"/>
<path d="M1125.79 11589.4L1129.73 11588.7L1129.4 11586.9L1127.79 11586L1125.79 11589.4ZM1125.72 11594.2L1121.76 11593.7L1121.75 11593.7L1121.75 11593.7L1125.72 11594.2ZM1124.41 11600.2L1128.22 11601.5L1128.23 11601.4L1128.24 11601.4L1124.41 11600.2ZM1112.46 11616.1L1114.52 11619.5L1114.53 11619.5L1114.55 11619.5L1112.46 11616.1ZM1100.51 11619.5L1100.5 11623.5L1100.52 11623.5L1100.54 11623.5L1100.51 11619.5ZM1079.53 11608.7L1076.35 11611.2L1076.37 11611.2L1076.38 11611.2L1079.53 11608.7ZM1075.2 11599.8L1079.1 11598.9L1079.1 11598.9L1075.2 11599.8ZM1074.86 11590.4L1078.81 11591L1078.81 11591L1078.81 11591L1074.86 11590.4ZM1083.1 11574.6L1080.29 11571.7L1080.29 11571.7L1083.1 11574.6ZM1088.6 11570.2L1091.65 11567.6L1089.47 11565.1L1086.55 11566.8L1088.6 11570.2ZM1093.11 11575.6L1095.05 11579.1L1099.3 11576.7L1096.17 11573L1093.11 11575.6ZM1090.12 11577.8L1092.65 11580.9L1092.71 11580.8L1092.77 11580.8L1090.12 11577.8ZM1087.05 11580.8L1090.07 11583.4L1090.08 11583.4L1090.09 11583.4L1087.05 11580.8ZM1081.75 11593.6L1077.75 11593.5L1077.75 11593.5L1081.75 11593.6ZM1084.02 11602.5L1080.58 11604.5L1080.58 11604.5L1084.02 11602.5ZM1100.53 11612L1100.53 11616L1100.57 11616L1100.61 11616L1100.53 11612ZM1109.14 11609.4L1111.24 11612.9L1111.25 11612.8L1111.26 11612.8L1109.14 11609.4ZM1117.9 11597.8L1114.11 11596.5L1114.11 11596.5L1114.1 11596.5L1117.9 11597.8ZM1118.67 11593.6L1122.67 11593.6L1122.66 11591.3L1120.67 11590.2L1118.67 11593.6ZM1110.79 11589.1L1112.79 11585.6L1109.33 11583.6L1107.33 11587.1L1110.79 11589.1ZM1106.01 11597.4L1104.01 11600.8L1107.47 11602.8L1109.47 11599.4L1106.01 11597.4ZM1100.07 11593.9L1096.6 11591.9L1094.6 11595.4L1098.07 11597.4L1100.07 11593.9ZM1108.45 11579.4L1110.45 11576L1106.99 11574L1104.99 11577.4L1108.45 11579.4ZM1121.86 11590.2C1121.96 11590.7 1121.99 11591.8 1121.76 11593.7L1129.69 11594.7C1129.97 11592.5 1130.05 11590.5 1129.73 11588.7L1121.86 11590.2ZM1121.75 11593.7C1121.54 11595.4 1121.16 11597.2 1120.59 11599.1L1128.24 11601.4C1128.94 11599.1 1129.42 11596.9 1129.69 11594.7L1121.75 11593.7ZM1120.61 11599C1120.01 11600.8 1119.31 11602.4 1118.52 11603.8L1125.45 11607.8C1126.55 11605.9 1127.47 11603.8 1128.22 11601.5L1120.61 11599ZM1118.52 11603.8C1116.16 11607.9 1113.42 11610.8 1110.36 11612.7L1114.55 11619.5C1118.95 11616.8 1122.56 11612.8 1125.45 11607.8L1118.52 11603.8ZM1110.39 11612.6C1107.21 11614.6 1103.93 11615.5 1100.48 11615.5L1100.54 11623.5C1105.49 11623.5 1110.17 11622.1 1114.52 11619.5L1110.39 11612.6ZM1100.52 11615.5C1097.11 11615.5 1093.71 11614.6 1090.25 11612.6L1086.25 11619.5C1090.79 11622.1 1095.55 11623.5 1100.5 11623.5L1100.52 11615.5ZM1090.25 11612.6C1086.96 11610.7 1084.48 11608.6 1082.68 11606.3L1076.38 11611.2C1078.92 11614.4 1082.25 11617.2 1086.25 11619.5L1090.25 11612.6ZM1082.71 11606.3C1080.88 11603.9 1079.7 11601.4 1079.1 11598.9L1071.31 11600.7C1072.19 11604.5 1073.9 11608 1076.35 11611.2L1082.71 11606.3ZM1079.1 11598.9C1078.47 11596.2 1078.38 11593.6 1078.81 11591L1070.91 11589.7C1070.31 11593.4 1070.45 11597.1 1071.31 11600.7L1079.1 11598.9ZM1078.81 11591C1079.23 11588.3 1080.15 11585.7 1081.61 11583.1L1074.68 11579.1C1072.75 11582.5 1071.48 11586 1070.9 11589.7L1078.81 11591ZM1081.61 11583.1C1082.93 11580.8 1084.37 11579 1085.92 11577.4L1080.29 11571.7C1078.17 11573.8 1076.31 11576.3 1074.68 11579.1L1081.61 11583.1ZM1085.92 11577.4C1087.57 11575.8 1089.14 11574.6 1090.64 11573.7L1086.55 11566.8C1084.39 11568.1 1082.31 11569.7 1080.29 11571.7L1085.92 11577.4ZM1085.54 11572.8L1090.05 11578.2L1096.17 11573L1091.65 11567.6L1085.54 11572.8ZM1091.17 11572.1C1089.92 11572.8 1088.68 11573.7 1087.47 11574.8L1092.77 11580.8C1093.7 11579.9 1094.46 11579.4 1095.05 11579.1L1091.17 11572.1ZM1087.59 11574.7C1086.31 11575.7 1085.12 11576.9 1084.01 11578.2L1090.09 11583.4C1090.9 11582.4 1091.75 11581.6 1092.65 11580.9L1087.59 11574.7ZM1084.03 11578.2C1082.96 11579.4 1082.04 11580.6 1081.3 11581.9L1088.23 11585.9C1088.66 11585.2 1089.27 11584.3 1090.07 11583.4L1084.03 11578.2ZM1081.3 11581.9C1079.13 11585.7 1077.89 11589.5 1077.75 11593.5L1085.75 11593.8C1085.83 11591.4 1086.59 11588.8 1088.23 11585.9L1081.3 11581.9ZM1077.75 11593.5C1077.61 11597.4 1078.56 11601.1 1080.58 11604.5L1087.45 11600.4C1086.22 11598.4 1085.66 11596.2 1085.75 11593.8L1077.75 11593.5ZM1080.58 11604.5C1082.62 11607.9 1085.62 11610.7 1089.39 11612.8L1093.39 11605.9C1090.56 11604.3 1088.66 11602.4 1087.45 11600.4L1080.58 11604.5ZM1089.39 11612.8C1092.93 11614.9 1096.66 11616 1100.53 11616L1100.54 11608C1098.24 11608 1095.88 11607.4 1093.39 11605.9L1089.39 11612.8ZM1100.61 11616C1104.41 11615.9 1107.97 11614.9 1111.24 11612.9L1107.05 11606C1104.97 11607.3 1102.79 11608 1100.46 11608L1100.61 11616ZM1111.26 11612.8C1114.59 11610.8 1117.29 11607.8 1119.4 11604.2L1112.47 11600.2C1110.92 11602.9 1109.08 11604.8 1107.02 11606.1L1111.26 11612.8ZM1119.4 11604.2C1120.35 11602.5 1121.11 11600.8 1121.7 11599.1L1114.1 11596.5C1113.7 11597.8 1113.16 11599 1112.47 11600.2L1119.4 11604.2ZM1121.69 11599.1C1122.31 11597.3 1122.68 11595.4 1122.67 11593.6L1114.67 11593.6C1114.67 11594.4 1114.53 11595.3 1114.11 11596.5L1121.69 11599.1ZM1120.67 11590.2L1112.79 11585.6L1108.79 11592.5L1116.67 11597.1L1120.67 11590.2ZM1107.33 11587.1L1102.54 11595.4L1109.47 11599.4L1114.25 11591.1L1107.33 11587.1ZM1108.01 11593.9L1102.07 11590.5L1098.07 11597.4L1104.01 11600.8L1108.01 11593.9ZM1103.53 11595.9L1111.92 11581.4L1104.99 11577.4L1096.6 11591.9L1103.53 11595.9ZM1106.45 11582.9L1123.79 11592.9L1127.79 11586L1110.45 11576L1106.45 11582.9ZM1105.52 11564.8L1102.31 11567.2L1102.33 11567.2L1102.34 11567.2L1105.52 11564.8ZM1101.3 11556.1L1105.17 11555.1L1105.16 11555L1105.16 11555L1101.3 11556.1ZM1100.55 11546.4L1104.52 11546.9L1104.52 11546.8L1104.53 11546.8L1100.55 11546.4ZM1110.25 11529.6L1112.6 11532.8L1112.63 11532.8L1112.66 11532.8L1110.25 11529.6ZM1119.05 11525.3L1120.05 11529.2L1120.09 11529.2L1120.13 11529.2L1119.05 11525.3ZM1128.74 11524.6L1128.28 11528.6L1128.74 11524.6ZM1145.55 11534.3L1148.76 11531.9L1145.55 11534.3ZM1149.74 11543.1L1145.87 11544.1L1145.87 11544.1L1145.88 11544.1L1149.74 11543.1ZM1150.41 11552.8L1154.37 11553.3L1154.37 11553.3L1154.38 11553.3L1150.41 11552.8ZM1140.7 11569.6L1143.08 11572.8L1143.1 11572.8L1143.12 11572.8L1140.7 11569.6ZM1132.05 11573.8L1130.98 11570L1132.05 11573.8ZM1122.46 11574.6L1121.92 11578.5L1121.96 11578.5L1122 11578.6L1122.46 11574.6ZM1125.77 11567.5L1125.76 11571.5L1125.77 11567.5ZM1134.7 11565.2L1136.64 11568.7L1134.7 11565.2ZM1143.73 11549.5L1139.73 11549.6L1143.73 11549.5ZM1141.21 11540.7L1137.76 11542.7L1137.76 11542.7L1141.21 11540.7ZM1125.19 11531.6L1125.15 11535.6L1125.19 11535.6L1125.23 11535.6L1125.19 11531.6ZM1116.2 11533.8L1118.12 11537.3L1118.13 11537.3L1118.15 11537.3L1116.2 11533.8ZM1107.23 11549.5L1111.23 11549.4L1111.23 11549.4L1111.23 11549.4L1107.23 11549.5ZM1109.81 11558.3L1106.36 11560.4L1106.37 11560.4L1106.37 11560.4L1109.81 11558.3ZM1114.92 11567.8C1112.43 11566.4 1110.37 11564.6 1108.71 11562.4L1102.34 11567.2C1104.67 11570.3 1107.54 11572.8 1110.92 11574.7L1114.92 11567.8ZM1108.74 11562.4C1107.06 11560.2 1105.88 11557.7 1105.17 11555.1L1097.44 11557.1C1098.42 11560.8 1100.05 11564.1 1102.31 11567.2L1108.74 11562.4ZM1105.16 11555C1104.41 11552.3 1104.2 11549.6 1104.52 11546.9L1096.57 11545.9C1096.13 11549.7 1096.43 11553.5 1097.45 11557.2L1105.16 11555ZM1104.53 11546.8C1104.81 11544.1 1105.65 11541.5 1107.1 11539L1100.17 11535C1098.18 11538.4 1096.97 11542.1 1096.57 11546L1104.53 11546.8ZM1107.1 11539C1108.55 11536.5 1110.38 11534.4 1112.6 11532.8L1107.91 11526.4C1104.74 11528.6 1102.16 11531.5 1100.17 11535L1107.1 11539ZM1112.66 11532.8C1114.92 11531.1 1117.38 11529.9 1120.05 11529.2L1118.06 11521.5C1114.35 11522.4 1110.94 11524.1 1107.85 11526.4L1112.66 11532.8ZM1120.13 11529.2C1122.8 11528.5 1125.51 11528.2 1128.28 11528.6L1129.2 11520.6C1125.41 11520.2 1121.66 11520.5 1117.98 11521.5L1120.13 11529.2ZM1128.28 11528.6C1131 11528.9 1133.59 11529.7 1136.07 11531.2L1140.07 11524.2C1136.67 11522.3 1133.04 11521.1 1129.2 11520.6L1128.28 11528.6ZM1136.07 11531.2C1138.64 11532.7 1140.72 11534.5 1142.34 11536.7L1148.76 11531.9C1146.45 11528.8 1143.54 11526.2 1140.07 11524.2L1136.07 11531.2ZM1142.34 11536.7C1144 11538.9 1145.17 11541.4 1145.87 11544.1L1153.61 11542.1C1152.66 11538.4 1151.04 11535 1148.76 11531.9L1142.34 11536.7ZM1145.88 11544.1C1146.59 11546.7 1146.78 11549.5 1146.43 11552.3L1154.38 11553.3C1154.84 11549.4 1154.59 11545.7 1153.6 11542L1145.88 11544.1ZM1146.44 11552.3C1146.09 11555 1145.2 11557.6 1143.73 11560.1L1150.66 11564.1C1152.63 11560.7 1153.88 11557.1 1154.37 11553.3L1146.44 11552.3ZM1143.73 11560.1C1142.27 11562.7 1140.45 11564.8 1138.27 11566.4L1143.12 11572.8C1146.18 11570.4 1148.69 11567.5 1150.66 11564.1L1143.73 11560.1ZM1138.31 11566.4C1136.05 11568.1 1133.61 11569.3 1130.98 11570L1133.12 11577.7C1136.72 11576.7 1140.05 11575.1 1143.08 11572.8L1138.31 11566.4ZM1130.98 11570C1128.37 11570.7 1125.69 11570.9 1122.91 11570.6L1122 11578.6C1125.78 11579 1129.5 11578.7 1133.12 11577.7L1130.98 11570ZM1122.99 11570.6C1120.24 11570.2 1117.55 11569.3 1114.92 11567.8L1110.92 11574.7C1114.4 11576.7 1118.08 11578 1121.92 11578.5L1122.99 11570.6ZM1114.65 11568.4C1118.12 11570.4 1121.84 11571.5 1125.76 11571.5L1125.78 11563.5C1123.33 11563.5 1120.97 11562.8 1118.65 11561.5L1114.65 11568.4ZM1125.76 11571.5C1129.62 11571.5 1133.27 11570.6 1136.64 11568.7L1132.76 11561.7C1130.59 11562.9 1128.28 11563.5 1125.78 11563.5L1125.76 11571.5ZM1136.64 11568.7C1140.08 11566.8 1142.81 11564 1144.83 11560.5L1137.9 11556.5C1136.56 11558.8 1134.85 11560.5 1132.76 11561.7L1136.64 11568.7ZM1144.83 11560.5C1146.82 11557.1 1147.82 11553.4 1147.72 11549.5L1139.73 11549.6C1139.78 11552 1139.2 11554.3 1137.9 11556.5L1144.83 11560.5ZM1147.72 11549.5C1147.63 11545.6 1146.6 11542 1144.67 11538.7L1137.76 11542.7C1139.02 11544.9 1139.67 11547.2 1139.73 11549.6L1147.72 11549.5ZM1144.67 11538.7C1142.7 11535.3 1139.91 11532.6 1136.41 11530.6L1132.41 11537.5C1134.78 11538.9 1136.53 11540.6 1137.76 11542.7L1144.67 11538.7ZM1136.41 11530.6C1132.89 11528.6 1129.11 11527.5 1125.15 11527.6L1125.23 11535.6C1127.68 11535.5 1130.05 11536.2 1132.41 11537.5L1136.41 11530.6ZM1125.23 11527.6C1121.33 11527.5 1117.65 11528.4 1114.26 11530.3L1118.15 11537.3C1120.3 11536.1 1122.61 11535.5 1125.15 11535.6L1125.23 11527.6ZM1114.29 11530.3C1110.86 11532.2 1108.14 11534.9 1106.14 11538.4L1113.07 11542.4C1114.38 11540.1 1116.06 11538.5 1118.12 11537.3L1114.29 11530.3ZM1106.14 11538.4C1104.12 11541.9 1103.12 11545.6 1103.24 11549.6L1111.23 11549.4C1111.16 11547 1111.75 11544.6 1113.07 11542.4L1106.14 11538.4ZM1103.24 11549.6C1103.33 11553.4 1104.39 11557 1106.36 11560.4L1113.25 11556.3C1111.95 11554.1 1111.29 11551.8 1111.23 11549.4L1103.24 11549.6ZM1106.37 11560.4C1108.37 11563.7 1111.16 11566.4 1114.65 11568.4L1118.65 11561.5C1116.25 11560.1 1114.48 11558.4 1113.24 11556.3L1106.37 11560.4Z" fill="#022615"/>
</g>
<defs>
<filter id="filter0_d_1678_1264" x="1093.49" y="10330.5" width="229.987" height="165.205" filterUnits="userSpaceOnUse" color-interpolation-filters="sRGB">
<feFlood flood-opacity="0" result="BackgroundImageFix"/>
<feColorMatrix in="SourceAlpha" type="matrix" values="0 0 0 0 0 0 0 0 0 0 0 0 0 0 0 0 0 0 127 0" result="hardAlpha"/>
<feOffset dx="2" dy="4"/>
<feComposite in2="hardAlpha" operator="out"/>
<feColorMatrix type="matrix" values="0 0 0 0 0.0075 0 0 0 0 0.15 0 0 0 0 0.0816 0 0 0 1 0"/>
<feBlend mode="normal" in2="BackgroundImageFix" result="effect1_dropShadow_1678_1264"/>
<feBlend mode="normal" in="SourceGraphic" in2="effect1_dropShadow_1678_1264" result="shape"/>
</filter>
<clipPath id="clip0_1678_1264">
<rect width="1440" height="20399" fill="white"/>
</clipPath>
</defs>
</svg>
