<svg width="258" height="227" viewBox="0 0 258 227" fill="none" xmlns="http://www.w3.org/2000/svg">
<path d="M236 111.92C236 104 240.5 93 251.5 84.5C246 84.5 227.5 91.14 224.5 100.5C227.5 83.86 234 69.28 243 62C224.5 68.5867 210 90.7733 207.5 106.027C207.5 88.6933 203 80.0267 195 71.0133C195 85.92 196 105.68 189 114" stroke="#022615" stroke-width="4"/>
<path d="M83 14.8868C86.094 13.1004 89.906 13.1004 93 14.8868L126.301 34.1132C129.395 35.8996 131.301 39.2008 131.301 42.7735V81.2265C131.301 84.7992 129.395 88.1004 126.301 89.8868L93 109.113C89.906 110.9 86.094 110.9 83 109.113L49.6987 89.8868C46.6047 88.1004 44.6987 84.7992 44.6987 81.2265V42.7735C44.6987 39.2008 46.6047 35.8996 49.6987 34.1132L83 14.8868Z" fill="white" stroke="#022615" stroke-width="4"/>
<path d="M88 67.7533V94.6188C88 102.33 96.3596 107.14 103.026 103.264L126.026 89.8917C129.105 88.1015 131 84.8085 131 81.2467V54.3812C131 46.6698 122.64 41.8602 115.974 45.7362L92.9738 59.1083C89.8946 60.8985 88 64.1915 88 67.7533Z" fill="#C0DCCF" stroke="#022615" stroke-width="4"/>
<path d="M88 67.7533V94.6188C88 102.33 79.6404 107.14 72.9738 103.264L49.9738 89.8917C46.8946 88.1015 45 84.8085 45 81.2467V54.3812C45 46.6698 53.3596 41.8602 60.0262 45.7362L83.0262 59.1083C86.1054 60.8985 88 64.1915 88 67.7533Z" fill="#C0DCCF" stroke="#022615" stroke-width="4"/>
<path d="M82.8953 58.9091L60.0227 45.7037C53.351 41.8518 53.3573 32.2199 60.034 28.3767L82.8272 15.2565C85.9195 13.4765 89.7259 13.479 92.8159 15.263L115.688 28.4685C122.36 32.3204 122.354 41.9523 115.677 45.7955L92.884 58.9156C89.7917 60.6956 85.9852 60.6931 82.8953 58.9091Z" stroke="#022615" stroke-width="4"/>
<path d="M43.6231 43.3649C44.2773 39.5062 47.1833 36.3743 50.2501 34.1593C52.3771 32.6232 55.2075 34.904 55.5458 37.5058C55.6333 38.1793 55.7519 38.8579 55.8936 39.5404C56.3298 41.6417 53.1123 43.8134 51.6238 45.3594C51.4578 45.5318 51.4 45.5702 51.1935 45.6912C49.9108 46.4433 47.5659 47.2681 45.3532 46.5478C44.0523 46.1244 43.3944 44.7137 43.6231 43.3649Z" fill="#022615"/>
<path d="M93.6468 108.748C89.978 110.111 85.8127 109.16 82.361 107.611C79.9672 106.538 80.5273 102.946 82.6113 101.352C83.1508 100.939 83.6792 100.497 84.1994 100.033C85.801 98.6051 89.2906 100.306 91.3737 100.822C91.606 100.879 91.6681 100.91 91.8762 101.028C93.1689 101.763 95.0556 103.382 95.5382 105.658C95.822 106.996 94.9292 108.271 93.6468 108.748Z" fill="#022615"/>
<path d="M118.5 44.5C119 43.5 120.5 39.5 119 32C121 32.6667 125.7 34.4 128.5 36C131.3 37.6 132.333 43.3333 132.5 46C132.333 47.5 131.3 49.7 128.5 46.5C125 42.5 118 45.5 118.5 44.5Z" fill="#022615"/>
<ellipse cx="88" cy="25.5" rx="6" ry="5.5" fill="#022615"/>
<ellipse cx="106" cy="36.5" rx="6" ry="5.5" fill="#022615"/>
<ellipse cx="70" cy="36.5" rx="6" ry="5.5" fill="#022615"/>
<ellipse cx="88" cy="47.5" rx="6" ry="5.5" fill="#022615"/>
<ellipse cx="56.1625" cy="80.6066" rx="5" ry="6" transform="rotate(-26.6944 56.1625 80.6066)" fill="#022615"/>
<ellipse cx="76.1625" cy="69.6066" rx="5" ry="6" transform="rotate(-26.6944 76.1625 69.6066)" fill="#022615"/>
<ellipse cx="110.361" cy="75.0577" rx="3.71751" ry="6" transform="rotate(32.5436 110.361 75.0577)" fill="#022615"/>
<ellipse cx="88" cy="47.5" rx="6" ry="5.5" fill="#022615"/>
<path d="M162 82.8868C165.094 81.1004 168.906 81.1004 172 82.8868L205.301 102.113C208.395 103.9 210.301 107.201 210.301 110.774V149.226C210.301 152.799 208.395 156.1 205.301 157.887L172 177.113C168.906 178.9 165.094 178.9 162 177.113L128.699 157.887C125.605 156.1 123.699 152.799 123.699 149.227V110.774C123.699 107.201 125.605 103.9 128.699 102.113L162 82.8868Z" fill="white" stroke="#022615" stroke-width="4"/>
<path d="M167 135.753V162.619C167 170.33 175.36 175.14 182.026 171.264L205.026 157.892C208.105 156.101 210 152.809 210 149.247V122.381C210 114.67 201.64 109.86 194.974 113.736L171.974 127.108C168.895 128.899 167 132.191 167 135.753Z" fill="#C0DCCF" stroke="#022615" stroke-width="4"/>
<path d="M167 135.753V162.619C167 170.33 158.64 175.14 151.974 171.264L128.974 157.892C125.895 156.101 124 152.809 124 149.247V122.381C124 114.67 132.36 109.86 139.026 113.736L162.026 127.108C165.105 128.899 167 132.191 167 135.753Z" fill="#C0DCCF" stroke="#022615" stroke-width="4"/>
<path d="M161.895 126.909L139.023 113.704C132.351 109.852 132.357 100.22 139.034 96.3767L161.827 83.2565C164.92 81.4765 168.726 81.479 171.816 83.263L194.688 96.4685C201.36 100.32 201.354 109.952 194.677 113.795L171.884 126.916C168.792 128.696 164.985 128.693 161.895 126.909Z" stroke="#022615" stroke-width="4"/>
<path d="M122.623 111.365C123.277 107.506 126.183 104.374 129.25 102.159C131.377 100.623 134.207 102.904 134.546 105.506C134.633 106.179 134.752 106.858 134.894 107.54C135.33 109.642 132.112 111.813 130.624 113.359C130.458 113.532 130.4 113.57 130.193 113.691C128.911 114.443 126.566 115.268 124.353 114.548C123.052 114.124 122.394 112.714 122.623 111.365Z" fill="#022615"/>
<path d="M172.647 176.748C168.978 178.111 164.813 177.16 161.361 175.611C158.967 174.538 159.527 170.946 161.611 169.352C162.151 168.939 162.679 168.497 163.199 168.033C164.801 166.605 168.291 168.306 170.374 168.822C170.606 168.879 170.668 168.91 170.876 169.028C172.169 169.763 174.056 171.382 174.538 173.658C174.822 174.996 173.929 176.271 172.647 176.748Z" fill="#022615"/>
<path d="M197.5 112.5C198 111.5 199.5 107.5 198 100C200 100.667 204.7 102.4 207.5 104C210.3 105.6 211.333 111.333 211.5 114C211.333 115.5 210.3 117.7 207.5 114.5C204 110.5 197 113.5 197.5 112.5Z" fill="#022615"/>
<ellipse cx="185" cy="104.5" rx="6" ry="5.5" fill="#022615"/>
<ellipse cx="149" cy="104.5" rx="6" ry="5.5" fill="#022615"/>
<ellipse cx="135.162" cy="148.607" rx="5" ry="6" transform="rotate(-26.6944 135.162 148.607)" fill="#022615"/>
<ellipse cx="155.162" cy="160.607" rx="5" ry="6" transform="rotate(-26.6944 155.162 160.607)" fill="#022615"/>
<ellipse cx="135.162" cy="124.607" rx="5" ry="6" transform="rotate(-26.6944 135.162 124.607)" fill="#022615"/>
<ellipse cx="155.162" cy="136.607" rx="5" ry="6" transform="rotate(-26.6944 155.162 136.607)" fill="#022615"/>
<ellipse cx="176.168" cy="138.55" rx="3.71751" ry="6" transform="rotate(30.2107 176.168 138.55)" fill="#022615"/>
<ellipse cx="177.064" cy="160.532" rx="3.71751" ry="6" transform="rotate(30.2107 177.064 160.532)" fill="#022615"/>
<ellipse cx="187.914" cy="132.067" rx="3.71751" ry="6" transform="rotate(30.2107 187.914 132.067)" fill="#022615"/>
<ellipse cx="188.809" cy="154.049" rx="3.71751" ry="6" transform="rotate(30.2107 188.809 154.049)" fill="#022615"/>
<ellipse cx="199.659" cy="125.583" rx="3.71751" ry="6" transform="rotate(30.2107 199.659 125.583)" fill="#022615"/>
<ellipse cx="200.555" cy="147.565" rx="3.71751" ry="6" transform="rotate(30.2107 200.555 147.565)" fill="#022615"/>
<path d="M25 225C25.6667 214.333 22 189.2 2 174C25 181 41 203 42 213C36 173 31 149 12 133C43 157 57 184 61 213C61 183 76 165 88 160C78.5 179 72 206 83 225" stroke="#022615" stroke-width="4"/>
<path d="M25 225C25.6667 214.333 22 189.2 2 174C25 181 41 203 42 213C36 173 31 149 12 133C43 157 57 184 61 213C61 183 76 165 88 160C78.5 179 72 206 83 225" stroke="#022615" stroke-width="4"/>
</svg>
