<svg width="228" height="219" viewBox="0 0 228 219" fill="none" xmlns="http://www.w3.org/2000/svg">
<circle cx="114" cy="109.5" r="109.5" fill="#26895A" fill-opacity="0.15"/>
<rect x="225.5" y="178.334" width="223" height="137.334" transform="rotate(-180 225.5 178.334)" fill="#83A440" stroke="white" stroke-width="4"/>
<mask id="path-3-inside-1_1783_10" fill="white">
<path fill-rule="evenodd" clip-rule="evenodd" d="M227.5 55.3909L207.398 55.3909L207.398 55.3909C177.337 55.3911 152.968 79.7604 152.968 109.821C152.968 139.882 177.337 164.252 207.398 164.252L207.398 164.252L227.5 164.252L227.5 55.3909Z"/>
</mask>
<path d="M227.5 55.3909L231.5 55.3909L231.5 51.3909L227.5 51.3909L227.5 55.3909ZM207.398 55.3909L207.398 51.3909L207.398 51.3909L207.398 55.3909ZM207.398 164.252L207.398 168.252L207.398 168.252L207.398 164.252ZM207.398 164.252L207.398 168.252L207.398 164.252ZM227.5 164.252L227.5 168.252L231.5 168.252L231.5 164.252L227.5 164.252ZM227.5 51.3909L207.398 51.3909L207.398 59.3909L227.5 59.3909L227.5 51.3909ZM207.398 51.3909L207.398 51.3909L207.398 59.3909L207.398 59.3909L207.398 51.3909ZM207.398 51.3909C175.128 51.3911 148.968 77.5513 148.968 109.821L156.968 109.821C156.968 81.9695 179.546 59.3911 207.398 59.3909L207.398 51.3909ZM148.968 109.821C148.968 142.092 175.128 168.252 207.398 168.252L207.398 160.252C179.546 160.252 156.968 137.673 156.968 109.821L148.968 109.821ZM207.398 168.252L207.398 168.252L207.398 160.252L207.398 160.252L207.398 168.252ZM207.398 168.252L227.5 168.252L227.5 160.252L207.398 160.252L207.398 168.252ZM231.5 164.252L231.5 55.3909L223.5 55.3909L223.5 164.252L231.5 164.252Z" fill="white" mask="url(#path-3-inside-1_1783_10)"/>
<rect x="3.49998" y="92" width="43" height="36" stroke="white" stroke-width="4"/>
<mask id="path-6-inside-2_1783_10" fill="white">
<path d="M65.8691 109.775C65.8691 120.661 57.1974 129.486 46.5003 129.486C35.8033 129.486 27.1316 120.661 27.1316 109.775C27.1316 98.8892 35.8033 90.0645 46.5003 90.0645C57.1974 90.0645 65.8691 98.8892 65.8691 109.775Z"/>
</mask>
<path d="M61.8691 109.775C61.8691 118.518 54.9225 125.486 46.5003 125.486L46.5003 133.486C59.4722 133.486 69.8691 122.804 69.8691 109.775L61.8691 109.775ZM46.5003 125.486C38.0781 125.486 31.1316 118.518 31.1316 109.775L23.1316 109.775C23.1316 122.804 33.5284 133.486 46.5003 133.486L46.5003 125.486ZM31.1316 109.775C31.1316 101.032 38.0781 94.0645 46.5003 94.0645L46.5003 86.0645C33.5284 86.0645 23.1316 96.7464 23.1316 109.775L31.1316 109.775ZM46.5003 94.0645C54.9225 94.0645 61.8691 101.032 61.8691 109.775L69.8691 109.775C69.8691 96.7464 59.4722 86.0645 46.5003 86.0645L46.5003 94.0645Z" fill="white" mask="url(#path-6-inside-2_1783_10)"/>
<rect x="225.869" y="128" width="43" height="36" transform="rotate(-180 225.869 128)" stroke="white" stroke-width="4"/>
<mask id="path-9-inside-3_1783_10" fill="white">
<path d="M163.5 110.225C163.5 99.3389 172.172 90.5141 182.869 90.5141C193.566 90.5141 202.237 99.3389 202.237 110.225C202.237 121.111 193.566 129.936 182.869 129.936C172.172 129.936 163.5 121.111 163.5 110.225Z"/>
</mask>
<path d="M167.5 110.225C167.5 101.482 174.447 94.5141 182.869 94.5141L182.869 86.5141C169.897 86.5141 159.5 97.1961 159.5 110.225L167.5 110.225ZM182.869 94.5141C191.291 94.5141 198.237 101.482 198.237 110.225L206.237 110.225C206.237 97.1961 195.841 86.5141 182.869 86.5141L182.869 94.5141ZM198.237 110.225C198.237 118.968 191.291 125.936 182.869 125.936L182.869 133.936C195.841 133.936 206.237 123.254 206.237 110.225L198.237 110.225ZM182.869 125.936C174.447 125.936 167.5 118.968 167.5 110.225L159.5 110.225C159.5 123.254 169.897 133.936 182.869 133.936L182.869 125.936Z" fill="white" mask="url(#path-9-inside-3_1783_10)"/>
<mask id="path-11-inside-4_1783_10" fill="white">
<path fill-rule="evenodd" clip-rule="evenodd" d="M1.10105 164.252L21.2025 164.252L21.2025 164.252L21.2032 164.252C51.2644 164.252 75.6337 139.883 75.6337 109.822C75.6338 79.7605 51.2644 55.3911 21.2032 55.3911L21.1219 55.3912L1.10107 55.3912L1.10105 164.252Z"/>
</mask>
<path d="M1.10105 164.252L-2.89895 164.252L-2.89895 168.252L1.10105 168.252L1.10105 164.252ZM21.2025 164.252L21.2025 168.252L25.2025 168.252L25.2025 164.252L21.2025 164.252ZM21.2025 164.252L21.2025 160.252L17.2025 160.252L17.2025 164.252L21.2025 164.252ZM21.2032 55.3911L21.2032 51.3911L21.2003 51.3911L21.2032 55.3911ZM21.1219 55.3912L21.1219 59.3912L21.1248 59.3912L21.1219 55.3912ZM1.10107 55.3912L1.10107 51.3912L-2.89893 51.3912L-2.89893 55.3912L1.10107 55.3912ZM1.10105 168.252L21.2025 168.252L21.2025 160.252L1.10105 160.252L1.10105 168.252ZM25.2025 164.252L25.2025 164.252L17.2025 164.252L17.2025 164.252L25.2025 164.252ZM21.2025 168.252L21.2032 168.252L21.2032 160.252L21.2025 160.252L21.2025 168.252ZM21.2032 168.252C53.4735 168.252 79.6337 142.092 79.6337 109.822L71.6337 109.822C71.6337 137.674 49.0552 160.252 21.2032 160.252L21.2032 168.252ZM79.6337 109.822C79.6338 77.5514 53.4735 51.3911 21.2032 51.3911L21.2032 59.3911C49.0552 59.3911 71.6338 81.9696 71.6337 109.822L79.6337 109.822ZM21.2003 51.3911L21.119 51.3912L21.1248 59.3912L21.2062 59.3911L21.2003 51.3911ZM21.1219 51.3912L1.10107 51.3912L1.10107 59.3912L21.1219 59.3912L21.1219 51.3912ZM-2.89893 55.3912L-2.89895 164.252L5.10105 164.252L5.10107 55.3912L-2.89893 55.3912Z" fill="white" mask="url(#path-11-inside-4_1783_10)"/>
<line x1="114.5" y1="180.334" x2="114.5" y2="39.0002" stroke="white" stroke-width="4"/>
<circle cx="114.056" cy="109.556" r="16.5559" transform="rotate(-180 114.056 109.556)" stroke="white" stroke-width="4"/>
</svg>
