<svg width="796" height="494" viewBox="0 0 796 494" fill="none" xmlns="http://www.w3.org/2000/svg">
<path d="M482.392 53.24C482.392 46.5385 478.504 37.2308 469 30.0385C473.752 30.0385 489.736 35.6569 492.328 43.5769C489.736 29.4969 484.12 17.16 476.344 11C492.328 16.5733 504.856 35.3467 507.016 48.2533C507.016 33.5867 510.904 26.2533 517.816 18.6267C517.816 31.24 516.952 47.96 523 55" stroke="#022615" stroke-width="4"/>
<path d="M153 261L4 174.5L267.5 23L416 109L153 261Z" fill="#63917B" stroke="#022615" stroke-width="4"/>
<path d="M153 251L4 164.5L267.5 13L416 99L153 251Z" fill="#63917B" stroke="#022615" stroke-width="4"/>
<path d="M153 241L4 154.5L267.5 3L416 89L153 241Z" fill="#C0DCCF" stroke="#022615" stroke-width="4"/>
<path d="M388.505 88.9896L152.999 224.73L31.0817 154.535L268.973 19.7622L388.505 88.9896Z" stroke="#26895A" stroke-opacity="0.4" stroke-width="10"/>
<path d="M152 212L50.5 154.5L269 33L367 89L152 212Z" fill="#26895A" fill-opacity="0.4"/>
<ellipse cx="212.405" cy="120.556" rx="61.0163" ry="40.3669" transform="rotate(-7.0561 212.405 120.556)" fill="#C0DCCF"/>
<path d="M197.581 241C198.062 233.348 195.419 215.317 181 204.413C196.946 209.242 208.225 224.024 209.707 231.53C205.438 203.35 201.769 186.363 188.209 175C210.558 192.217 220.651 211.587 223.535 232.391C223.535 210.87 234.349 197.957 243 194.37C236.151 208 231.465 227.37 239.395 241H197.581Z" fill="#10633B"/>
<path d="M197.581 244C198.062 236.348 195.419 218.317 181 207.413C197.581 212.435 209.116 228.217 209.837 235.391C205.512 206.696 201.907 189.478 188.209 178C210.558 195.217 220.651 214.587 223.535 235.391C223.535 213.87 234.349 200.957 243 197.37C236.151 211 231.465 230.37 239.395 244" stroke="#022615" stroke-width="4"/>
<path d="M342 370L193 283.5L456.5 132L605 218L342 370Z" fill="#E0A5B3" stroke="#022615" stroke-width="4"/>
<path d="M342 360L193 273.5L456.5 122L605 208L342 360Z" fill="#E0A5B3" stroke="#022615" stroke-width="4"/>
<path d="M342 350L193 263.5L456.5 112L605 198L342 350Z" fill="#FFD2DD" stroke="#022615" stroke-width="4"/>
<path d="M577.505 197.99L341.999 333.73L220.082 263.535L457.973 128.762L577.505 197.99Z" stroke="#26895A" stroke-opacity="0.4" stroke-width="10"/>
<path d="M341 321L239.5 263.5L458 142L556 198L341 321Z" fill="#26895A" fill-opacity="0.4"/>
<ellipse cx="401.405" cy="229.556" rx="61.0163" ry="40.3669" transform="rotate(-7.0561 401.405 229.556)" fill="#FFD2DD"/>
<path d="M556 239C538.558 248.417 542 264.565 545.942 272H514C517.488 254.033 518.907 231.87 545.942 217C529.372 226.913 530.5 245.5 530.5 264.565C531.372 258.37 537 245 556 239Z" fill="#10633B"/>
<path d="M545.942 272C542 264.565 538.558 248.417 556 239C537 245 531.372 258.37 530.5 264.565C530.5 245.5 529.372 226.913 545.942 217C518.907 231.87 517.488 254.033 514 272" stroke="#022615" stroke-width="4"/>
<path d="M416 468.6C430.12 475.278 427.333 486.728 424.142 492H450C447.176 479.259 446.028 463.544 424.142 453C437.556 460.029 436.643 473.209 436.643 486.728C435.937 482.335 431.381 472.855 416 468.6Z" fill="#10633B"/>
<path d="M424.142 492C427.333 486.728 430.12 475.278 416 468.6C431.381 472.855 435.937 482.335 436.643 486.728C436.643 473.209 437.556 460.029 424.142 453C446.028 463.544 447.176 479.259 450 492" stroke="#022615" stroke-width="4"/>
<path d="M529 483L380 396.5L643.5 245L792 331L529 483Z" fill="#5F8CA7" stroke="#022615" stroke-width="4"/>
<path d="M529 473L380 386.5L643.5 235L792 321L529 473Z" fill="#5F8CA7" stroke="#022615" stroke-width="4"/>
<path d="M529 463L380 376.5L643.5 225L792 311L529 463Z" fill="#CDECFF" stroke="#022615" stroke-width="4"/>
<path d="M764.505 310.99L528.999 446.73L407.082 376.535L644.973 241.762L764.505 310.99Z" stroke="#26895A" stroke-opacity="0.4" stroke-width="10"/>
<path d="M528 434L426.5 376.5L645 255L743 311L528 434Z" fill="#26895A" fill-opacity="0.4"/>
<ellipse cx="588.405" cy="342.556" rx="61.0163" ry="40.3669" transform="rotate(-7.0561 588.405 342.556)" fill="#CDECFF"/>
</svg>
