<svg width="420" height="264" viewBox="0 0 420 264" fill="none" xmlns="http://www.w3.org/2000/svg">
<path d="M406 120.2C386.066 129.275 390 144.836 394.505 152H358C361.987 134.686 363.608 113.329 394.505 99C375.568 108.553 376.857 126.464 376.857 144.836C377.854 138.865 384.286 125.982 406 120.2Z" fill="#10633B"/>
<path d="M394.505 152C390 144.836 386.066 129.275 406 120.2C384.286 125.982 377.854 138.865 376.857 144.836C376.857 126.464 375.568 108.553 394.505 99C363.608 113.329 361.987 134.686 358 152" stroke="#022615" stroke-width="4"/>
<path d="M267 261L416 174.5L152.5 23L4 109L267 261Z" fill="#B6A759" stroke="#022615" stroke-width="4"/>
<path d="M267 251L416 164.5L152.5 13L4 99L267 251Z" fill="#B6A759" stroke="#022615" stroke-width="4"/>
<path d="M267 241L416 154.5L152.5 3L4 89L267 241Z" fill="#FFF3B5" stroke="#022615" stroke-width="4"/>
<path d="M31.4947 88.9896L267.001 224.73L388.918 154.535L151.027 19.7622L31.4947 88.9896Z" stroke="#26895A" stroke-opacity="0.4" stroke-width="10"/>
<path d="M268 212L369.5 154.5L151 33L53 89L268 212Z" fill="#26895A" fill-opacity="0.4"/>
<ellipse cx="61.0163" cy="40.3669" rx="61.0163" ry="40.3669" transform="matrix(-0.992426 -0.122841 -0.122841 0.992426 273.108 87.9907)" fill="#FFF3B5"/>
<path d="M188 206.2C207.934 216.987 204 235.484 199.495 244H236C232.013 223.419 230.392 198.032 199.495 181C218.432 192.355 217.143 213.645 217.143 235.484C216.146 228.387 209.714 213.073 188 206.2Z" fill="#10633B"/>
<path d="M199.495 244C204 235.484 207.934 216.987 188 206.2C209.714 213.073 216.146 228.387 217.143 235.484C217.143 213.645 218.432 192.355 199.495 181C230.392 198.032 232.013 223.419 236 244" stroke="#022615" stroke-width="4"/>
</svg>
