<svg width="367" height="294" viewBox="0 0 367 294" fill="none" xmlns="http://www.w3.org/2000/svg">
<path d="M151.5 83L4 168.5L215 291L363 204.5L151.5 83Z" fill="#C0DCCF" stroke="#022615" stroke-width="4"/>
<path d="M151.5 74L4 159.5L215 282L363 195.5L151.5 74Z" fill="#C0DCCF" stroke="#022615" stroke-width="4"/>
<path d="M151.5 65L4 150.5L215 273L363 186.5L151.5 65Z" fill="#C0DCCF" stroke="#022615" stroke-width="4"/>
<path d="M151.5 57L4 142.5L215 265L363 178.5L151.5 57Z" fill="white" stroke="#022615" stroke-width="4"/>
<path d="M151.5 57L4 142.5L215 265L363 178.5L151.5 57Z" fill="white" stroke="#022615" stroke-width="4"/>
<path d="M153 65L18 142.5L215 256L349.5 178.5L153 65Z" fill="white" stroke="#022615" stroke-width="4"/>
<path d="M153.5 72.5L31 142.5L71.5 165.5L194.5 96L153.5 72.5Z" fill="#412260" stroke="#022615" stroke-width="4"/>
<path d="M198.5 121L118 167L215.475 226L298 178.394L198.5 121Z" fill="#C0DCCF"/>
<path d="M297.942 57C294 49.5652 290.558 33.4174 308 24C289 30 283.372 43.3696 282.5 49.5652C282.5 30.5 281.372 11.913 297.942 2C270.907 16.8696 269.488 39.0326 266 57" stroke="#022615" stroke-width="4"/>
<path d="M97.7142 278C100.068 261.209 91.4999 252 77.9999 243C86.4999 257.5 83.9817 263.224 83.9817 268.933C81.6276 259.866 69.4646 242.403 49.0622 233C67.1105 249.791 68.6799 262.552 68.6799 267.925C58.4787 259.866 53.3781 256.507 41.9999 254.828C60.8329 265.91 55.7323 273.97 53.7705 278" stroke="#022615" stroke-width="4"/>
</svg>
