<svg width="234" height="204" viewBox="0 0 234 204" fill="none" xmlns="http://www.w3.org/2000/svg">
<path d="M109.374 61.5C110.874 50 111.816 31.1325 94.374 22.4C113.374 27.9636 121.502 41.2549 122.374 47C122.374 29.3213 121.002 11.1921 104.432 2C131.467 15.7881 136.886 38.3393 140.374 55" stroke="#022615" stroke-width="4"/>
<g filter="url(#filter0_d_1888_42)">
<path d="M53.1842 144.616L69.6194 134.733C78.4208 129.44 86.2817 126.212 93.202 125.05C100.302 123.779 106.826 123.662 112.775 124.697C119.022 125.785 125.148 127.061 131.153 128.525C139.475 130.67 147.448 131.989 155.069 132.481C162.691 132.972 170.543 130.788 178.626 125.927C184.194 122.579 188.16 118.464 190.524 113.583C193.067 108.593 194.093 103.479 193.6 98.2393C193.225 93.1595 191.506 88.5422 188.442 84.3871C182.669 76.5565 175.171 71.8382 165.95 70.2325C157.027 68.6785 148.058 68.997 139.044 71.1881L134.436 44.8956C139.033 43.746 144.699 42.9916 151.434 42.6323C158.169 42.273 165.313 42.8207 172.868 44.2755C180.539 45.8901 188.051 48.8697 195.402 53.2143C202.754 57.5589 209.375 63.7264 215.267 71.7169C221.865 80.6662 225.839 89.9247 227.19 99.4923C228.838 109.112 227.422 118.267 222.941 126.959C218.579 135.81 210.829 143.584 199.693 150.28C190.891 155.573 182.702 158.883 175.125 160.21C167.728 161.429 160.577 161.576 153.674 160.653C146.889 159.889 140.048 158.698 133.15 157.079C127.561 155.827 122.148 154.814 116.911 154.042C111.675 153.269 106.223 153.434 100.554 154.536C95.0647 155.53 88.7277 158.188 81.5429 162.508L71.0351 168.827L53.1842 144.616ZM12.084 186.976C8.78486 182.501 7.42196 178.015 7.99536 173.519C8.86621 169.074 11.5469 165.501 16.0374 162.801C20.3483 160.209 25.0011 159.487 29.9959 160.635C35.1704 161.676 39.3483 164.353 42.5296 168.668C45.711 172.983 46.7764 177.417 45.726 181.97C44.9729 186.574 42.441 190.173 38.1301 192.765C33.6396 195.465 28.9559 196.321 24.0789 195.333C19.3815 194.236 15.3832 191.45 12.084 186.976Z" fill="#CB0000"/>
<path d="M52.1535 142.902L50.2705 144.034L51.5744 145.802L69.4254 170.014L70.5057 171.479L72.0658 170.541L82.5736 164.222C89.6448 159.97 95.7476 157.439 100.91 156.504L100.923 156.502L100.936 156.499C106.402 155.437 111.626 155.284 116.619 156.02C121.8 156.785 127.161 157.787 132.703 159.028C139.664 160.662 146.573 161.865 153.429 162.638C160.537 163.587 167.88 163.431 175.45 162.183L175.46 162.181L175.47 162.18C183.356 160.799 191.778 157.374 200.723 151.994C212.08 145.166 220.148 137.141 224.727 127.859C229.395 118.796 230.879 109.215 229.166 99.1834C227.759 89.2512 223.635 79.6967 216.876 70.53C210.851 62.358 204.037 55.9942 196.42 51.4925C188.898 47.0468 181.183 43.9817 173.279 42.3184L173.263 42.3148L173.246 42.3116C165.554 40.8303 158.246 40.266 151.327 40.6351C144.514 40.9987 138.712 41.7648 133.951 42.9553L132.145 43.407L132.466 45.2408L137.074 71.5334L137.443 73.6357L139.517 73.1315C148.27 71.0038 156.961 70.6972 165.607 72.2028C174.299 73.7165 181.351 78.1397 186.832 85.574C189.675 89.43 191.258 93.688 191.605 98.3865L191.607 98.4066L191.609 98.4266C192.064 103.264 191.125 108 188.742 112.674L188.733 112.693L188.724 112.711C186.56 117.179 182.897 121.025 177.595 124.213C169.778 128.914 162.327 130.944 155.198 130.485C147.716 130.002 139.868 128.706 131.652 126.588L131.639 126.585L131.626 126.581C125.577 125.107 119.408 123.822 113.119 122.727C106.903 121.645 100.143 121.777 92.8604 123.079C85.609 124.299 77.51 127.654 68.5888 133.019L52.1535 142.902ZM6.03268 173.134L6.01986 173.2L6.01143 173.266C5.35893 178.383 6.9428 183.373 10.4743 188.163C14.0102 192.958 18.3939 196.059 23.6242 197.28L23.6528 197.287L23.6815 197.293C29.0763 198.386 34.2667 197.422 39.1608 194.479C43.9111 191.623 46.8201 187.56 47.6892 182.356C48.8663 177.17 47.5963 172.17 44.1394 167.481C40.6737 162.781 36.0748 159.824 30.4171 158.68C24.9381 157.427 19.7629 158.227 15.0067 161.087C10.1152 164.028 7.02971 168.045 6.03268 173.134Z" stroke="#022615" stroke-width="4"/>
</g>
<path d="M208.874 159.5C197.874 168 193.374 179 193.374 186.92L146.374 189C153.374 180.68 152.374 160.92 152.374 146.013C160.374 155.027 164.874 163.693 164.874 181.027C167.374 165.773 181.874 143.587 200.374 137C191.374 144.28 184.874 158.86 181.874 175.5C184.874 166.14 203.374 159.5 208.874 159.5Z" fill="#10633B"/>
<path d="M193.374 184.92C193.374 177 197.874 166 208.874 157.5C203.374 157.5 184.874 164.14 181.874 173.5C184.874 156.86 191.374 142.28 200.374 135C181.874 141.587 167.374 163.773 164.874 179.027C164.874 161.693 160.374 153.027 152.374 144.013C152.374 158.92 153.374 178.68 146.374 187" stroke="#022615" stroke-width="4"/>
<defs>
<filter id="filter0_d_1888_42" x="3.86768" y="38.5254" width="229.987" height="165.205" filterUnits="userSpaceOnUse" color-interpolation-filters="sRGB">
<feFlood flood-opacity="0" result="BackgroundImageFix"/>
<feColorMatrix in="SourceAlpha" type="matrix" values="0 0 0 0 0 0 0 0 0 0 0 0 0 0 0 0 0 0 127 0" result="hardAlpha"/>
<feOffset dx="2" dy="4"/>
<feComposite in2="hardAlpha" operator="out"/>
<feColorMatrix type="matrix" values="0 0 0 0 0.0075 0 0 0 0 0.15 0 0 0 0 0.0816 0 0 0 1 0"/>
<feBlend mode="normal" in2="BackgroundImageFix" result="effect1_dropShadow_1888_42"/>
<feBlend mode="normal" in="SourceGraphic" in2="effect1_dropShadow_1888_42" result="shape"/>
</filter>
</defs>
</svg>
